<mxfile host="Electron" agent="Mozilla/5.0 (Macintosh; Intel Mac OS X 10_15_7) AppleWebKit/537.36 (KHTML, like Gecko) draw.io/24.5.3 Chrome/124.0.6367.207 Electron/30.0.6 Safari/537.36" modified="2025-06-03T18:40:14.646Z" etag="mLP2Fa7LMF-drNYV48XY" version="24.5.3" type="device">
  <diagram name="linc-convert" id="DOc9hOgSZbAuTcbhquyE">
    <mxGraphModel dx="1368" dy="899" grid="1" gridSize="10" guides="1" tooltips="1" connect="1" arrows="1" fold="1" page="1" pageScale="1" pageWidth="1000" pageHeight="600" math="0" shadow="0">
      <root>
        <mxCell id="_0TWMCMOEPgWWZoUAao2-0" />
        <mxCell id="_0TWMCMOEPgWWZoUAao2-1" parent="_0TWMCMOEPgWWZoUAao2-0" />
        <mxCell id="Xw0nPymDu_IeGhTBpWZU-4" value="" style="rounded=0;whiteSpace=wrap;html=1;fillColor=none;strokeColor=default;" vertex="1" parent="_0TWMCMOEPgWWZoUAao2-1">
          <mxGeometry x="30" y="19" width="920" height="490" as="geometry" />
        </mxCell>
        <mxCell id="_0TWMCMOEPgWWZoUAao2-2" value="" style="whiteSpace=wrap;html=1;fillColor=#f5f5f5;fontColor=#333333;strokeColor=none;" parent="_0TWMCMOEPgWWZoUAao2-1" vertex="1">
          <mxGeometry x="184" y="37.690000000000055" width="490" height="450" as="geometry" />
        </mxCell>
        <mxCell id="_0TWMCMOEPgWWZoUAao2-3" value="" style="whiteSpace=wrap;html=1;fillColor=#d5e8d4;strokeColor=none;" parent="_0TWMCMOEPgWWZoUAao2-1" vertex="1">
          <mxGeometry x="225" y="79.69000000000005" width="67" height="258" as="geometry" />
        </mxCell>
        <mxCell id="_0TWMCMOEPgWWZoUAao2-4" value="" style="shape=image;verticalLabelPosition=bottom;labelBackgroundColor=default;verticalAlign=top;aspect=fixed;imageAspect=0;image=https://upload.wikimedia.org/wikipedia/commons/thumb/c/c3/Python-logo-notext.svg/1200px-Python-logo-notext.svg.png;" parent="_0TWMCMOEPgWWZoUAao2-1" vertex="1">
          <mxGeometry x="527.2" y="447.6900000000003" width="30" height="32.94" as="geometry" />
        </mxCell>
        <mxCell id="_0TWMCMOEPgWWZoUAao2-5" value="" style="shape=cylinder3;whiteSpace=wrap;html=1;boundedLbl=1;backgroundOutline=1;size=15;rotation=90;fillColor=#dae8fc;strokeColor=#6c8ebf;" parent="_0TWMCMOEPgWWZoUAao2-1" vertex="1">
          <mxGeometry x="444" y="-40.00000000000006" width="35" height="286.69" as="geometry" />
        </mxCell>
        <mxCell id="_0TWMCMOEPgWWZoUAao2-6" value="Light-sheet microscopy" style="text;html=1;align=center;verticalAlign=middle;whiteSpace=wrap;rounded=0;fontSize=16;" parent="_0TWMCMOEPgWWZoUAao2-1" vertex="1">
          <mxGeometry x="354" y="87.69000000000005" width="213" height="30" as="geometry" />
        </mxCell>
        <mxCell id="_0TWMCMOEPgWWZoUAao2-7" value=".dat files" style="sketch=0;html=1;aspect=fixed;strokeColor=none;shadow=0;fillColor=#3B8DF1;verticalAlign=top;labelPosition=center;verticalLabelPosition=bottom;shape=mxgraph.gcp2.files;fontSize=14;" parent="_0TWMCMOEPgWWZoUAao2-1" vertex="1">
          <mxGeometry x="94" y="87.69000000000005" width="32" height="31.04" as="geometry" />
        </mxCell>
        <mxCell id="_0TWMCMOEPgWWZoUAao2-8" value=".mat files" style="sketch=0;html=1;aspect=fixed;strokeColor=none;shadow=0;fillColor=#3B8DF1;verticalAlign=top;labelPosition=center;verticalLabelPosition=bottom;shape=mxgraph.gcp2.files;fontSize=14;" parent="_0TWMCMOEPgWWZoUAao2-1" vertex="1">
          <mxGeometry x="94" y="227" width="32" height="31.04" as="geometry" />
        </mxCell>
        <mxCell id="_0TWMCMOEPgWWZoUAao2-9" value=".jp2 files" style="sketch=0;html=1;aspect=fixed;strokeColor=none;shadow=0;fillColor=#3B8DF1;verticalAlign=top;labelPosition=center;verticalLabelPosition=bottom;shape=mxgraph.gcp2.files;fontSize=14;" parent="_0TWMCMOEPgWWZoUAao2-1" vertex="1">
          <mxGeometry x="94" y="156.53999999999996" width="32" height="31.04" as="geometry" />
        </mxCell>
        <mxCell id="_0TWMCMOEPgWWZoUAao2-10" value="..." style="sketch=0;html=1;aspect=fixed;strokeColor=none;shadow=0;fillColor=#3B8DF1;verticalAlign=top;labelPosition=center;verticalLabelPosition=bottom;shape=mxgraph.gcp2.files;fontSize=14;" parent="_0TWMCMOEPgWWZoUAao2-1" vertex="1">
          <mxGeometry x="94" y="297.69000000000005" width="32" height="31.04" as="geometry" />
        </mxCell>
        <mxCell id="_0TWMCMOEPgWWZoUAao2-11" value="" style="shape=cylinder3;whiteSpace=wrap;html=1;boundedLbl=1;backgroundOutline=1;size=15;rotation=90;fillColor=#dae8fc;strokeColor=#6c8ebf;" parent="_0TWMCMOEPgWWZoUAao2-1" vertex="1">
          <mxGeometry x="444" y="28.720000000000027" width="35" height="286.69" as="geometry" />
        </mxCell>
        <mxCell id="_0TWMCMOEPgWWZoUAao2-12" value="Dark-field microscopy" style="text;html=1;align=center;verticalAlign=middle;whiteSpace=wrap;rounded=0;fontSize=16;" parent="_0TWMCMOEPgWWZoUAao2-1" vertex="1">
          <mxGeometry x="354" y="157.69000000000005" width="213" height="30" as="geometry" />
        </mxCell>
        <mxCell id="_0TWMCMOEPgWWZoUAao2-13" value="" style="shape=cylinder3;whiteSpace=wrap;html=1;boundedLbl=1;backgroundOutline=1;size=15;rotation=90;fillColor=#dae8fc;strokeColor=#6c8ebf;" parent="_0TWMCMOEPgWWZoUAao2-1" vertex="1">
          <mxGeometry x="444" y="99.18000000000006" width="35" height="286.69" as="geometry" />
        </mxCell>
        <mxCell id="_0TWMCMOEPgWWZoUAao2-14" value="Polarization-sensitive OCT" style="text;html=1;align=center;verticalAlign=middle;whiteSpace=wrap;rounded=0;fontSize=16;" parent="_0TWMCMOEPgWWZoUAao2-1" vertex="1">
          <mxGeometry x="354" y="227.51999999999998" width="213" height="30" as="geometry" />
        </mxCell>
        <mxCell id="_0TWMCMOEPgWWZoUAao2-15" value="" style="shape=cylinder3;whiteSpace=wrap;html=1;boundedLbl=1;backgroundOutline=1;size=15;rotation=90;fillColor=#dae8fc;strokeColor=#6c8ebf;" parent="_0TWMCMOEPgWWZoUAao2-1" vertex="1">
          <mxGeometry x="444" y="169.8699999999999" width="35" height="286.69" as="geometry" />
        </mxCell>
        <mxCell id="_0TWMCMOEPgWWZoUAao2-16" value="..." style="text;html=1;align=center;verticalAlign=middle;whiteSpace=wrap;rounded=0;fontSize=16;" parent="_0TWMCMOEPgWWZoUAao2-1" vertex="1">
          <mxGeometry x="354" y="297.69000000000005" width="213" height="30" as="geometry" />
        </mxCell>
        <mxCell id="_0TWMCMOEPgWWZoUAao2-17" value="Tests" style="shadow=0;dashed=0;html=1;strokeColor=#9673a6;fillColor=#e1d5e7;labelPosition=center;verticalLabelPosition=middle;verticalAlign=middle;align=center;outlineConnect=0;shape=mxgraph.veeam.2d.folder;flipH=1;fontSize=16;" parent="_0TWMCMOEPgWWZoUAao2-1" vertex="1">
          <mxGeometry x="434" y="357.69000000000005" width="85.2" height="71.2" as="geometry" />
        </mxCell>
        <mxCell id="_0TWMCMOEPgWWZoUAao2-18" value="Utilities" style="shadow=0;dashed=0;html=1;strokeColor=#d79b00;fillColor=#ffe6cc;labelPosition=center;verticalLabelPosition=middle;verticalAlign=middle;align=center;outlineConnect=0;shape=mxgraph.veeam.2d.folder;flipH=1;fontSize=16;" parent="_0TWMCMOEPgWWZoUAao2-1" vertex="1">
          <mxGeometry x="544" y="357.69000000000005" width="85.2" height="71.2" as="geometry" />
        </mxCell>
        <mxCell id="_0TWMCMOEPgWWZoUAao2-19" value="Docs" style="shadow=0;dashed=0;html=1;strokeColor=#b85450;fillColor=#f8cecc;labelPosition=center;verticalLabelPosition=middle;verticalAlign=middle;align=center;outlineConnect=0;shape=mxgraph.veeam.2d.folder;flipH=1;fontSize=16;" parent="_0TWMCMOEPgWWZoUAao2-1" vertex="1">
          <mxGeometry x="324" y="357.69000000000005" width="85.2" height="71.2" as="geometry" />
        </mxCell>
        <mxCell id="_0TWMCMOEPgWWZoUAao2-20" value="" style="endArrow=block;html=1;rounded=0;exitX=0.5;exitY=0;exitDx=0;exitDy=0;exitPerimeter=0;endFill=1;" parent="_0TWMCMOEPgWWZoUAao2-1" source="_0TWMCMOEPgWWZoUAao2-5" edge="1">
          <mxGeometry width="50" height="50" relative="1" as="geometry">
            <mxPoint x="754" y="111.03999999999996" as="sourcePoint" />
            <mxPoint x="724" y="197.69000000000005" as="targetPoint" />
            <Array as="points">
              <mxPoint x="654" y="103.69000000000005" />
              <mxPoint x="654" y="197.69000000000005" />
            </Array>
          </mxGeometry>
        </mxCell>
        <mxCell id="_0TWMCMOEPgWWZoUAao2-21" value="Preprocess and convert" style="text;html=1;align=center;verticalAlign=middle;whiteSpace=wrap;rounded=0;fontSize=16;" parent="_0TWMCMOEPgWWZoUAao2-1" vertex="1">
          <mxGeometry x="354" y="47.690000000000055" width="213" height="30" as="geometry" />
        </mxCell>
        <mxCell id="_0TWMCMOEPgWWZoUAao2-22" value="Raw imaging data" style="text;html=1;align=center;verticalAlign=middle;whiteSpace=wrap;rounded=0;fontSize=16;" parent="_0TWMCMOEPgWWZoUAao2-1" vertex="1">
          <mxGeometry x="40" y="47.690000000000055" width="140" height="30" as="geometry" />
        </mxCell>
        <mxCell id="_0TWMCMOEPgWWZoUAao2-23" value="" style="sketch=0;aspect=fixed;pointerEvents=1;shadow=0;dashed=0;html=1;strokeColor=none;labelPosition=center;verticalLabelPosition=bottom;verticalAlign=top;align=center;fillColor=light-dark(#000000, #bfd3ff);shape=mxgraph.mscae.enterprise.connectors" parent="_0TWMCMOEPgWWZoUAao2-1" vertex="1">
          <mxGeometry x="238" y="89.26999999999998" width="41" height="27.88" as="geometry" />
        </mxCell>
        <mxCell id="_0TWMCMOEPgWWZoUAao2-24" value="" style="sketch=0;aspect=fixed;pointerEvents=1;shadow=0;dashed=0;html=1;strokeColor=none;labelPosition=center;verticalLabelPosition=bottom;verticalAlign=top;align=center;fillColor=light-dark(#000000, #bfd3ff);shape=mxgraph.mscae.enterprise.connectors" parent="_0TWMCMOEPgWWZoUAao2-1" vertex="1">
          <mxGeometry x="238" y="158.75" width="41" height="27.88" as="geometry" />
        </mxCell>
        <mxCell id="_0TWMCMOEPgWWZoUAao2-25" value="" style="sketch=0;aspect=fixed;pointerEvents=1;shadow=0;dashed=0;html=1;strokeColor=none;labelPosition=center;verticalLabelPosition=bottom;verticalAlign=top;align=center;fillColor=light-dark(#000000, #bfd3ff);shape=mxgraph.mscae.enterprise.connectors" parent="_0TWMCMOEPgWWZoUAao2-1" vertex="1">
          <mxGeometry x="238" y="228.57999999999993" width="41" height="27.88" as="geometry" />
        </mxCell>
        <mxCell id="_0TWMCMOEPgWWZoUAao2-26" value="" style="sketch=0;aspect=fixed;pointerEvents=1;shadow=0;dashed=0;html=1;strokeColor=none;labelPosition=center;verticalLabelPosition=bottom;verticalAlign=top;align=center;fillColor=light-dark(#000000, #bfd3ff);shape=mxgraph.mscae.enterprise.connectors" parent="_0TWMCMOEPgWWZoUAao2-1" vertex="1">
          <mxGeometry x="238" y="299.27" width="41" height="27.88" as="geometry" />
        </mxCell>
        <mxCell id="_0TWMCMOEPgWWZoUAao2-27" value="" style="endArrow=block;html=1;rounded=0;exitX=0.5;exitY=0;exitDx=0;exitDy=0;exitPerimeter=0;endFill=1;" parent="_0TWMCMOEPgWWZoUAao2-1" source="_0TWMCMOEPgWWZoUAao2-11" edge="1">
          <mxGeometry width="50" height="50" relative="1" as="geometry">
            <mxPoint x="354" y="-2.3100000000000023" as="sourcePoint" />
            <mxPoint x="724" y="197.69000000000005" as="targetPoint" />
            <Array as="points">
              <mxPoint x="654" y="171.69000000000005" />
              <mxPoint x="654" y="197.69000000000005" />
            </Array>
          </mxGeometry>
        </mxCell>
        <mxCell id="_0TWMCMOEPgWWZoUAao2-28" value="Entry Point" style="text;html=1;align=center;verticalAlign=middle;whiteSpace=wrap;rounded=0;fontSize=16;" parent="_0TWMCMOEPgWWZoUAao2-1" vertex="1">
          <mxGeometry x="204.39" y="47.690000000000055" width="108.22" height="30" as="geometry" />
        </mxCell>
        <mxCell id="_0TWMCMOEPgWWZoUAao2-29" value="" style="endArrow=block;html=1;rounded=0;endFill=1;" parent="_0TWMCMOEPgWWZoUAao2-1" edge="1">
          <mxGeometry width="50" height="50" relative="1" as="geometry">
            <mxPoint x="133" y="102.69000000000005" as="sourcePoint" />
            <mxPoint x="224" y="102.69000000000005" as="targetPoint" />
          </mxGeometry>
        </mxCell>
        <mxCell id="_0TWMCMOEPgWWZoUAao2-30" value="" style="endArrow=block;html=1;rounded=0;endFill=1;" parent="_0TWMCMOEPgWWZoUAao2-1" edge="1">
          <mxGeometry width="50" height="50" relative="1" as="geometry">
            <mxPoint x="133" y="172.45000000000005" as="sourcePoint" />
            <mxPoint x="224" y="172.45000000000005" as="targetPoint" />
          </mxGeometry>
        </mxCell>
        <mxCell id="_0TWMCMOEPgWWZoUAao2-31" value="" style="endArrow=block;html=1;rounded=0;endFill=1;" parent="_0TWMCMOEPgWWZoUAao2-1" edge="1">
          <mxGeometry width="50" height="50" relative="1" as="geometry">
            <mxPoint x="133" y="242.28999999999996" as="sourcePoint" />
            <mxPoint x="224" y="242.28999999999996" as="targetPoint" />
          </mxGeometry>
        </mxCell>
        <mxCell id="_0TWMCMOEPgWWZoUAao2-32" value="" style="endArrow=block;html=1;rounded=0;endFill=1;" parent="_0TWMCMOEPgWWZoUAao2-1" edge="1">
          <mxGeometry width="50" height="50" relative="1" as="geometry">
            <mxPoint x="133" y="312.97" as="sourcePoint" />
            <mxPoint x="224" y="312.97" as="targetPoint" />
          </mxGeometry>
        </mxCell>
        <mxCell id="_0TWMCMOEPgWWZoUAao2-33" value="" style="endArrow=block;html=1;rounded=0;endFill=1;" parent="_0TWMCMOEPgWWZoUAao2-1" edge="1">
          <mxGeometry width="50" height="50" relative="1" as="geometry">
            <mxPoint x="292" y="102.69000000000005" as="sourcePoint" />
            <mxPoint x="317" y="102.69000000000005" as="targetPoint" />
          </mxGeometry>
        </mxCell>
        <mxCell id="_0TWMCMOEPgWWZoUAao2-34" value="" style="endArrow=block;html=1;rounded=0;endFill=1;" parent="_0TWMCMOEPgWWZoUAao2-1" edge="1">
          <mxGeometry width="50" height="50" relative="1" as="geometry">
            <mxPoint x="292" y="172.45000000000005" as="sourcePoint" />
            <mxPoint x="317" y="172.45000000000005" as="targetPoint" />
          </mxGeometry>
        </mxCell>
        <mxCell id="_0TWMCMOEPgWWZoUAao2-35" value="" style="endArrow=block;html=1;rounded=0;endFill=1;" parent="_0TWMCMOEPgWWZoUAao2-1" edge="1">
          <mxGeometry width="50" height="50" relative="1" as="geometry">
            <mxPoint x="292" y="242.28999999999996" as="sourcePoint" />
            <mxPoint x="317" y="242.28999999999996" as="targetPoint" />
          </mxGeometry>
        </mxCell>
        <mxCell id="_0TWMCMOEPgWWZoUAao2-36" value="" style="endArrow=block;html=1;rounded=0;endFill=1;" parent="_0TWMCMOEPgWWZoUAao2-1" edge="1">
          <mxGeometry width="50" height="50" relative="1" as="geometry">
            <mxPoint x="292" y="312.97" as="sourcePoint" />
            <mxPoint x="317" y="312.97" as="targetPoint" />
          </mxGeometry>
        </mxCell>
        <mxCell id="_0TWMCMOEPgWWZoUAao2-37" value="linc-convert" style="text;html=1;align=center;verticalAlign=middle;whiteSpace=wrap;rounded=0;fontSize=16;" parent="_0TWMCMOEPgWWZoUAao2-1" vertex="1">
          <mxGeometry x="557.2" y="446.69000000000005" width="90" height="30" as="geometry" />
        </mxCell>
        <mxCell id="_0TWMCMOEPgWWZoUAao2-38" value="" style="endArrow=block;html=1;rounded=0;exitX=0.5;exitY=0;exitDx=0;exitDy=0;exitPerimeter=0;endFill=1;" parent="_0TWMCMOEPgWWZoUAao2-1" source="_0TWMCMOEPgWWZoUAao2-13" edge="1">
          <mxGeometry width="50" height="50" relative="1" as="geometry">
            <mxPoint x="744" y="197.69000000000005" as="sourcePoint" />
            <mxPoint x="724" y="197.69000000000005" as="targetPoint" />
            <Array as="points">
              <mxPoint x="654" y="242.69000000000005" />
              <mxPoint x="654" y="197.69000000000005" />
            </Array>
          </mxGeometry>
        </mxCell>
        <mxCell id="_0TWMCMOEPgWWZoUAao2-39" value="" style="endArrow=block;html=1;rounded=0;exitX=0.5;exitY=0;exitDx=0;exitDy=0;exitPerimeter=0;endFill=1;" parent="_0TWMCMOEPgWWZoUAao2-1" source="_0TWMCMOEPgWWZoUAao2-15" edge="1">
          <mxGeometry width="50" height="50" relative="1" as="geometry">
            <mxPoint x="594" y="197.69000000000005" as="sourcePoint" />
            <mxPoint x="724" y="197.69000000000005" as="targetPoint" />
            <Array as="points">
              <mxPoint x="654" y="313.69000000000005" />
              <mxPoint x="654" y="197.69000000000005" />
            </Array>
          </mxGeometry>
        </mxCell>
        <mxCell id="Xw0nPymDu_IeGhTBpWZU-3" value="" style="shape=image;aspect=fixed;image=data:image/png,iVBORw0KGgoAAAANSUhEUgAABLAAAASwCAYAAADrIbPPAAAABHNCSVQICAgIfAhkiAAAAAlwSFlzAAAOxAAADsQBlSsOGwAAABl0RVh0U29mdHdhcmUAd3d3Lmlua3NjYXBlLm9yZ5vuPBoAACAASURBVHic7N17mJ1VfS/w39qTTEgQBVQ0c0G5eKlWrcdardpaFduj1Z7T0nipWm2rUKtIJpnZe08mIW8gl9kzE4Kl9ija08pRTwvejtZaFbwh9QItXkBqKUSY2TsU76CZkJn9rvNHMjhEbkkmMwE+nzz7efKu/c5a37UzzPPMj7XWGwEAAAAAAAAAAAAAAAAAAAAAAAAAAAAAAAAAAAAAAAAAAAAAAAAAAAAAAAAAAAAAAAAAAAAAAAAAAAAAAAAAAAAAAAAAAAAAAAAAAAAAAAAAAAAAAAAAAAAAAAAAAAAAAAAAAAAAAAAAAAAAAAAAAAAAAAAAAAAAAAAAAAAAAAAAAAAAAAAAAAAAAAAAAAAAAAAAAAAAAAAAAAAAAAAAAAAAAAAAAAAAAAAAAAAAAAAAAAAAAAAAAAAAAAAAAAAAAAAAAAAAAAAAAAAAAAAAAAAAAAAAAAAAAAAAAAAAAAAAAAAAAAAAAAAAAAAAAAAAAAAAAAAAAAAAAAAAAAAAAAAAAAAAAAAAAAAAAAAAAAAAAAAAAAAAAAAAAAAAAAAAAAAAAAAAAAAAAAAAAAAAAAAAAAAAAAAAAAAAAAAAAAAAAAAAAAAAAAAAAAAAAAAAAAAAAAAAAAAAAAAAAAAAAAAAAAAAAAAAAAAAAAAAAAAAAAAAAAAAAAAAAAAAAAAAAAAAAAAAAAAAAAAAAAAAAAAAAAAAAAAAAAAAAAAAAAAAAAAAAAAAAAAAAAAAAAAAAAAAAAAAAAAAAAAAAAAAAAAAAAAAAAAAAAAAAAAAAAAAAAAAAAAAAAAAAAAAAAAAAAAAAAAAAAAAAAAAAAAAAAAAAAAAAAAAAAAAAAAAAAAAAAAAAAAAAAAAAAAAAAAAAAAAAAAAAAAAAAAAAAAAAAAAAAAAAAAAAAAAAAAAAAAAAAAAAAAAAAAAAAAAAAAAAAAAAAAAAAAAAAAAAAAAAAAAAAAAAAAAAAAAAAAAAAAAAAAAAAAAAAAAAAAAAAAAAAAAAAAAAAAAAAAAAAAAAAAAAAAAAAAAAAAAAAAAAAAAAAAAAAAAAAAAAAAAAAAAAAAAAAAAAAAAAAAAAAAAAAAAAAAAAAAAAAAAAAAAAAAAAAAAAAAAAAAAAAAAAAAAAAAAAAAAAAAAAAAAAAAAAAAAAAAAAAAAAAAAAAAAAAAAAAAAAAAAAAAAAAAAAAAAAAAAAAAAAAAAAAAAAAAAAAAAAAAAAAAAAAAAAAAAAAAAAAAAAAAAAAAAAAAAAAAAAAAAAAAAAAAAAAAAAAAAAAAAAAAAAAAAAAAAAAAAAAAAAAAAAAAAAAAAAAAAAAAAAAAAAAAAAAAAAAAAAAAAAAAAAAAAAAAAAAAAAAAAAAAAAAAAAAAAAAAAAAAAAAAAAAAAAAAAAAAAAAAAAAAAAAAAAAAAAAAAAAAAAAAAAAAAAAAAAAAAAAAAAAAAAAAAAAAAAAAAAAAAAAAAAAAAAAAAAAAAAAAAAAAAAAAAAAAAAAAAAAAAAAAAAAAAAAAAAAAAAAAAAAAAAAAAAAAAAAAAAAAAAAAAAAAAAAAAAAAAAAAAAAAAAAAAAAAAAAAAAAAAAAAAAAAAAAAAAAAAAAAAAAAAAAAAAAAAAAAAAAAAAAAAAAAAAAAAAAAAAAAAAAAAAAAAAAAAAAAAAAAAAAAAAAAAAAAAAAAAAAAAAAAAAAAAAAAAAAAAAAAAAAAAAAAAAAAAAAAAAAAAAAAAAAAAAAAAAAAAAAAAAAAAAAAAAAAAAAAAAAAAAAAAAAAAAAAAAAAAAAAAAAAAAAAAAAAAAAAAAAAAAAAAAAAAAAAAAAAAAAAAAAAAAAAAAAAAAAAAAAAAAAAAAAAAAAAAAAAAAAAAAAAAAAAAAAAAAAAAAAAAAAAAAAAAAAAAAAAAAAAAAAAAAAAAAAAAAAAAAAAAAAAAAAAAAAAAAAAAAAAAAAAAAAAAAAAAAAAAAAAAAAAAAAAAAAAAAAAAAAAAAAAAAAAAAAAAAAAAAAAAAAAAAAAAAAAAAAAAAAAAAAAAAAAAAAAAAAAAAAAAAAAAAAAAAAAAAAAAAAAAAAAAAAAAAAAAAAAAAAAAAAAAAAAAAAAAAAAAAAAAAAAAAAAAAAAAAAAAAAAAAAAAAAAAAAAAAAAAAAAAAAAAAAAAAAAAAAAAAAAAAAAAAAAAAAAAAAAAAAAAAAAAAAAAAAAAAAAAAAAAAAAAAAAAAAAAAAAAAAAAAAAAAAAAAAAAAAAAAAAAAAAAAAAAAAAAAAAAAAAAAAAAAAAAAAAAAAAAAAAAAAAAAAAAAAAAAAAAAAAAAAAAAAAAAAAAAAAAAAAAAAAAAAAAAAAAAAAAAAAAAAAAAAAAAAAAAAAAAAAAAAAAAAAAAAAAAAAAAAAAAAAAAAAAAAAAAAAAAAAAAAAAAAAAAAAAAAAAAAAAAAAAAAAAAAAAAAAAAAAAAAAAAAAAAAAAAAAAAAAAAAAAAAAAAAAAAAAAAAAAAAAAAAAAAAAAAAAAAAAAAAAAAAAAAAAAAAAAAAAAAAAAAAAAAAAAAAAAAAAAAAAAAAAAAAAAAAAAAAAAAAAAAAAAAAAAAAAAAAAAAAAAAAAAAAAAAAAAAAAAAAAAAAAAAAAAAAAAAAAAAAAAAAAAAAAAAAAAAAAAAAAAAAAAAAAAAAAAAAAAAAAAAAAAAAAAAAAAAAAAAAAAAAAAANwP5RxpvOh/6uy2iaLaM1HU1v6gKB66ULkAAAA49CoLHQDg3jSL+imtDbWvVaJjbHZ7jsoRKeKcXTG5vVnUi+uHaw9bqIwAAAAcOosWOgDA3ZkoBl6WolJE5GfsbfrMXd2XIr6RI9eP2BVvbRW1sUWx9K+OK4qfzl9SAAAADiUFLOCw0yzqp6ScN+Ucv3anN9Jd3Jwjcs5bor3432NRuz9HXj+VJvubRf2vjogjzn14Udw6P6kBAAA4VGwhBA4bzaJ+SquofSVy/kyOfYpX96J706bx7g3DZ6YUT4ic3h+R67vy5PXNol44IwsAAOD+TQELWHCtova8iaL++cj5MznHsw6mr66icVP3huEzU8TjI9IH7ihknVWvtYpi2VxlBgAAYP4oYAELplXUntdaX/tcznFZyvn5c9n3HYWsqekn5MgfjpQ35pj8rkIWAADA/Y8CFjDvWkXtea2i9tmc47Ic8VuHcqyuTVtv7NkwcnolpcflnD8yu5A13te39FCODQAAwNxQwALmTauoPa+5vnZpznFZzvGC+Rx7eTH83X0LWZWHdipkAQAA3A8oYAGHXHPd4HObZ9UuyWVcFjleGDnigF7lXXSe9y/LTCGro91+fI780Yi8sXLUnkLW9qI44gCnCAAAwCGkgAUcMs2i9pzmuvrHI5VfiogXLXSe2R69cWx7z4aR0xdV0hNyyh+NyJs6y8nrWmfVzlTIAgAAOLwoYAFz7nvV6lHNs2qXRBmXR8ovW+g89+RRxfANPRtGTq9UKk+NyJfniHM7y8nvjA8NdS90NgAAAPZQwALm3O3L4mFxmK24ujfLiy3f7j575FUp0h9GxPGLF+djIiL+q6ifeE1RdC5wPAAAgAc1BSzgoE0U1Wc319U/PjE4+PCFznKwck63zL6eKsvXHL13a+F1Z5yxZKFyAQAAPJgtWugAwP3X+FD11zoqsT6300sjclSWTKU73tzPw9UPWI6IdK937X+fM8qISNGTI7YtO3rZmc2zqpt23PzjC3/1ggum5nhUAAAA7oYVWMB+Gy/6n9paV7uoUklfyZFeutB55sEPOzo6npoiroyc3r38Ucde11pXPy0Xhf8JAAAAMA8UsID7bHxd7SmtdbWLKu2Or+eIFTH3a58OW48uNl/ddU7jFWXE01Lkr+XI72y1JxWyAAAA5oECFnCvbi7W/HJrXe2iSsQ3HmyFq331ntP4Vtc5jVeUHe1fSRFXKGQBAAAcegpYwN0aL/qf2lxX+3C73f7mYV24yulVOwYHHzmfQ/YWY9/sOqfxikqkZ6XI386R39VqT17dOqv6mlwUfrYCAADMIb9kAb9gfF3tKRPrah+stDu+HhG/HwtfuMo54sMdHR2rZjdOxxETOaUtEfGKclF5w8S62qbxou/Y+Qy2/JzhK7rOGfndMirPjsjbc07va7Unr26eVX+1QhYAAMDc8MsVcIcdg4NPmlhbv7CS46qU49TIkSJH3OfXbPvzdff8uiRFembPOY1TH11svnr2ECcUxa6es4fX5OnKYyOnrSnHGZXpzhuba6vDN9brxxzwB5EjYvc+1/ei95wtX+0+Z+Qlucy/HjldH2X+QGt68uqJdbU/zitWdBxwFgAAAMJ5LUC01lZ/KUc6q4zyFekwKWznFJ/siLR++TnDV9zdPdcUReeTIspUFD+IiOKWYuCdu6cr9RTpzEWL8mkTQ7Vzl0zltz9yZOS2+crds2nkKxHx8ua6wedGLouU473NJ5wwMLG2uqF70bIPp6Io5ysLAADAA8Vh8YsqsDBag4NPbK6tvT9HujoiXhWHw8+EHJdGjuf2nNN46ezi1cS62tOaQ7X+2bc+NHYd32pPXtMa2nPu1HHF6M09Gxsry7zo5Ij4QEqxbndnuqE5VKve3N9/5HxOo/ucLZd3b2y8OKXyN1OkW1Kki1vTu65qra3+QV74LZkAAAD3K1ZgwYNQc2ioN6fpzTnKV0fE4bK97Yspx7quTY0vzm7csa725JyjyDlOjYhLImLsTl+V4/E5pfe12pNrJtbVNnR3LP1gKopmRLy1VdRG8nSsTSk2to/oWD2xtj6cf3b7O3u3bZucr0l1nTN6WUS8qDVU+81IeUOO9KHW2to3Wjm/sWvTyJXzlQMAAOD+bOFXWwDzLlXav5MiXhuHR/HqX3Iln9K9sfH82cWrPavDqh8oc3wzR/xh3MOqpRx5bZTRTDn+Ye8qp/+ZI1JX0bipe2PjtEq0nxA5/ilFHqkc2fmfzbW1M64744wl8zK7vbo2Nb7YtbHxgjLSCyLil8pUeX7Enm2QVmQBAADcMwUseBAYL+onN4dq1YXOMVuOuCJFekn3xsZze84euXSmfbyonzyxtn5h7iivjkivjvvwcypV4mvdmxq/vWe7Xv5hjvSR1tralRNrB14WEfHojWPbuzc1/qSM8kk54rMRcd6yhy29bmJt7fRriqLz0M3yF/VuHP58RNw+c/3QqZ2/0lpbu2ImKwAAAL9IAQsewFpDqx8zMVR9V2UqXxsRr7jjjXbM5VMC9+sphCnHt3JOr+je2HhW18bhf74ja612/EzWlPPrIkfHPfYfEbFrb/v0nsuuc0Yv69rYeEHK8Rspx09Srny8OVT7+sRQfUVERO/G0et6NjZelyL/cs6Vz6cc7zh6evK61lD9tFwUe7ZUT+8zVnk3Yx+MvLffn18/Y0/W+jcmhuorrMgCAAC4M2dgwQPQzWv7T2jnjrUR8boUsXih80REpIhvRcrF8o0jH0mzSkLNoaHelKeHcoo/SZHmZDVU16bGlyLiha01td+JiA2R8kXNtdXLc1TO6tk4/NmujSPXRsQfj6+rjaZ2FJHyO1tTkwOtoerZEeWNc12vuk9yqkal/P2U00U71tS+2qqkYnaBDwAA4MHMCix4ANlRrz+2OVR9d5k7vhMRf5oPj+LVtRHpVcsXL/2Vro0jH54pXt1UVLuaQ/XzI6avyylOj4g538rXtbnxqa7NjWfnHC+LnJamnC9tDdU+1xoc+I2IiN5zGt/q2dw4NSrpGRFxbY50YY740FznuC9SR3y2e+PIc1JKL4mIyDl/srm2+i+ttfXfXog8AAAAhxMrsOABoDk01BvR7i8jnx6RlizICqJf9N0Uacvy/7j+b9LFF7dnGlvF6kfk6Y7+mEpvi8hL5yNIz+bGJyLiE8219VNyzo2oVL7YXFu9vNLOQ8u3jH6h+5zhqyLi98bX9D+1I3WszREr5iPXXdm76uqfm2vrp6Qcm3LkTzXXVr8cOW3p3tT4+ELlAgAAWEgKWHA/tnf73WCO6T+LQ7CC6UB1x7KbY3E8LhXF9Exbq1j9iDy1aCBPxVsi4sgFybVx+JJcFM9sTu06NeUoykr6fGuo+k8Rsb5r08iVvZvHvhkRr2gO1Z6TIr4360tTjkhp7k/DusesEXHJxNqBl6VcWR8RH2uurV+WI4qejcOfna8cAAAAhwMFLLgfmqhWe9KiVI88/cYcseQ+lVX2PRZ8zksxeXzxzo7bIyJmF65urNePWVyJ1Xl3fltEHDXXo+7vPFJRlBFxcS6KD+3YPfmqHGl9RHytuab+8Rzt9T2bR7/evanxL3fcH+nHkePhrTW1Kydyub5ny+g/znnmHBFTd31rz8bRf8wRn2gNVl8eKdaniEsn1tS/0JHb65dvGf3CQWcBAAC4H3AGFtyP3Fz0H9dcUx1Oi9J/RMRbImLJQmeKiO9FpPruzmWPf+TIyG0zjbcUxUOaa+q1RZV8Q448FIeieHUQUlGUXZsbH+jqXPpLOaVXRuRfSlH5t+ZQ/ePNev3pM/d1b26cn1L8Ror4SUp3fqrhvGWNyN1bRj7WvbnxjKikF6eUH1Kmyueba6pfmlhTfdF8ZgEAAFgIClhwP/DdNWuWNwfrb2/v7rgxItUiYl7OjrpHOW7JkVaVk7sf0715uHFCUeyaeatVrH7E1O7JGyPycEQcvYAp71UqirJn0/DFO77/oyenSKdFjqdEJV85MTj4+Jl7ujY1vtS1ufHCVKbfSTl2pZwvaq6pfmlibf2F8523e+PwJV2bGs9MOZ8aUTkqRbqkuaZ2SWuo9rz5zgIAADBfFLDgMHbLwMCjJwZr2xZH+/pI+W0RccRCZ4qIH0SkesdU+8SezcPberdtm4yIuLm//8grTzttcUREubPjiIg4dkFT7qdfveCCqa7Nw++JnF4TEZVFKXVGROwYHHj+eL1+ckRE1/Dwp7s2N56dI14WKR2Rynxpa/DnTzWcLykid20Z+XDX5uFfyTmvyJEflXNc1lxT+3RzqPac+cwCAAAwHxSw4DB0c3//ca3B2tapRZXrU8TKyLE0csRBvcpZA5QH1MePco51ndP5hO7Nw41Hj439LCJivK9v6cSael97cccNXUcd9bA7xjjYvHf32tehOFZ9Vp/tnH6zkvK1zXrtb3bU64+N2PNUw72roH4/Rzo2R+WLzcHapyeGqs/e3/7v8vo+ShG5Z8vIB7s7lz0tR7wycnRFGZc3B2v/vKNef+aB9QoAAHD4UcCCw1C5uOMdOWJVRCxb6CwRcWtEnL17ye0n9mxpbJw55+q6M85Y0lxTO6PjiM7rU87nRsRxCxvzkCojxcvLlL/TGqy9szk01Lt3FdRHu5Yc8fSc4pUR0Z3K9OXWYPUTraHqr85nuFQUZc/mxkVdS5Y+NVK8OiJ+uUx503xmAAAAOJQ8hRAOAxODgw/PlfZJvZtGvrbQWWb5aU7p/Nx5+1hvse2HM43XFEXnw26f/JMUeShy9B6KBVCHnRS3Lu5ceuL07ZNvyxGro5x+Q3OwdkG7nYdTUbQi4qJcFB/csWvnq3NKZ0UZX2uuqX0st2N9T6PxjXmLuecJi3/fGqydmiPuWA3XHKy/r4x0fu+WLV+drywAAABzSQELFtB4X9+xlSVL3pZyuTLalb+KiD0FrDIi0iEe/O4rT7fnyO/tbOf1x42O3nzH7UVRae7adWraNbk5Ik6+14CHorJ1V0PmiGjP8Th5n7HKiOOK4qcRsfmWovjLqV273hKRax2VdPpEvfp305VFRSqKHRHx/lwU/7e5a9epKedNKcVVzXr9ExFxVvfw8FV36n/m85mKuV8LW+7TZ86/U4n8mma9dklZ5qHekcOqUAoAAHCvFLBgAdxYrx+zOOVVOcfbIvJD962XLJBdOeJdne1y+E6FqxUrOnacfMIftXZNnpUiTl7IgIeDvYWsxo31+gWLU14VOZ25uGy/plmrvSNNT4+movh+RFx85WmnfbTr4ce8Iee8NiKubNar/xBlbOgeGfnOggTPcWmkeGylkr7arNf/MUUUXcPD/7ogWQAAAPaTAhbMo+0rVx7duWRJX8r5zJx/vsUrIn6xgnWo9+b9vP/dkdJ7yo6Ozb2bNjXveLsoKq3JyVe0ItZHGU88iP7nzgIc4n53q+EeMzz8o4hY11q9+u25o6M/UnprXrToza1a7e1TKZ279/13X1MU7z165843RkprIsU1rVrt/TnH4jv1eSgqmLMP7c8ROefPdS9d1mju2vXaSs5rc8QVzXr94xFR3Gl1GAAAwGFIAQvmwfeq1aN2Vyp/ETnXIuKYw+HcqBQxVab092W7veH40dHrZ9pzRGrVai9rTU5uiIinL2DE+4WurVu/HxH11urVY7mjoz+ntGpRziub1eo7du/ePXxCUfw4Iv76mqJ4zzG7dr0h57w+Io5YiKypKKYj4u9yUVw4s80xIv6tWatdklKqW5EFAAAcrhSw4BD6QVE8dHLnzjN3p9QXOR+z0HlmlDlfsTilJ3YND98w05YjUqtafXkrpQ0R8SsLGO9+aaaQ9d01a96+uN0ejJRWdi5Z8qZWtTq2aNmy8/duPbygVRTvy5OTfxFl+f2Fyrr3sPc92xyPPfb1OeehnPMVE7XaR3JE0dtofGuhsgEAANwVBSw4BL5XrR51e8Tbdu2cXJUiHXuftrnlu/n7IbDvk/F21GovaZaxIUU8c87Gnq9lZjkiUnr596rVrzxyZOS2g+5vOvZs59u9zxj30WM3b94REW+bqFZHKhFDOVIxtXOyr1mrjaSlS/+6qyh2RsTYvnPIOb/5loGBtbPPHztg++a9m/y/esEFUxHxnmuK4sJjdu56Q0QeShFfb1VrH66UHRsePbb56oPOAgAAMAfm+tlX8KB2S1E8pFWtDu6OtD1F2hgRxy50pogoI/L/jciv2feNZn/9lGa1dnmZ459SimcuRLj9cGlZVtbNblg8Pb0j5fhfkeP03ZFuaNZq1Zv7+49cqICz9YyMTHSNjLy5UklPiIiPRY4teefk9a2B2pnbi+KOLYQdy5ZdHZE2RIoVU6lyfXOgNrpjcPCR85n1yUWxu2tk+IIfL1v6uBzpLTnys9qV9jea1erf71g9+KT5zAIAAHBXFLBgDtzc339ks1qvTe2c3J4jbY6Ihy90pojIKeKDlRRP7R4Z+aPZT79rDQ4+sVmtfSEq+TMR8ZwFzHhffDGleH73SOOU3rEtX539xqPHxn7WNdr4i9SefnxE/mjKsbFd6bhhYqDeN97Xt3ShAs+2fHj4u90jjTe2c/nElOLTOcXWzsnJ/xyv138rIqKrKHZ2jwwX5e7dJ+QU50WKPy/b5Q0T1frm8b6+eS2APrkodveMDL9z5+Tk4yLF2yLSc8uO8lvNavUDrWr1l+YzCwAAwGwKWHAQbu7vP7I5UOtvp47tkfNw5HhE5IgDes1WHmAfe145cvpYzuV/6xpprFjeaFzzC8Gn8/Mix28exBj3PoeD7auMf8mRT+keaTy/q9H44l19/nnFio4ckbq2br2xe2TkTR2V9MRUpk+myCMdizuvbw7UzrjujDOW3NXX3qN9n0I4B9shjx8dvb6r0Xh9RH5ylPHwVMYzIiJaRbEsF8Wi3m3bftjTaAxVOionRpn/V8r5zMqizu3NgdqG7StXHr1fg+2bOcedn0p4Lx53/vm3dzca79g5ufPkyLEycnp+zunq5kD9fc1q9Qn7lQUAAGAOKGDBAWgVxbKJ/tqqduq4ISJGI2Jet3zdnRT5n1LKv9Y9Ovw/ekZHvz7TPl6t/lqzvzq8kNnuqxxxRaWMl3aPNZ7bMzJy6Uz7zf39J0z0106ffe/ESSed0KrWrpjor/1uRMSjhodv6BobfkNuV56cc/psRJy37Iil101U639+TVF0zvNU7tLelXBTM9ftnTt/ufXTyWtb1err8ooVHcu3bPle99hIdXGUJ+UU/zsiqp2Ll9ww0V9d971q9aj5zPq488+/vXu0cf7uI5eelHLuSym/MHK6ZqK/fuH4wMDj5jMLAADw4KaABQcg/3Ty6hSxNXIcN2erl/ZdIbN/X39JzpXndI2O/G7XyMiVM100V9Wf3uyvfaxSpq9GpFPu6PvgVngdqhVYV0WO3+sebTxr+dbGJ2e6adVqxzf7axeU0fGdlOLUO41xe0SU8YwU8Y+t/tpXWgP1346I6Dl3y390jw6/tlJWnhI5fTmV+R1H3zb5neZA/U9zUdz7wyvuai5zKUdE+04tJ+cyXdh6zIlXN1fXX52LonLc6OjNPSONvnJ60clRxgdSpLW7y7S9NVCr7/c5XweZ/4Si2NU1NvKX7andJ6Wc+1PkF1dy5dv36bMEAACYAwpYcB9sL4ojfnBG8dBZTY9YsDCz5EhfSDme3z3WeHHP2JYvz7SP99WeMtFf+1BU8r9GxMsXMOK9Sim+lXI+tWus8YzuscbH095yy3jfUHdzde2vcjuui4g35YjFd9dHTrE5IiLn/Klmf+2yiWr1BRERy7du+Xb3WOOVZbSfHimuipzf0/rp5LWt1XtWO83LBO+jHPHnOWJ7pPyB1m2T35xYXf3DHJF6t21qdm9tvDV1xOMi4sOR4+x2dNww0V9bNd/nfPVu2zbZNTZyXsppXUQs+tdWK0VENAfqr/yvvvqJ85kFAAB4cFHAgntwTVF0tlbXT+v86eR/3n7Ez5620HnukOIrEfF7PWPDv9W19efnQ7VWDz5xor9+YaUjrkoRfxARaeFC3qtrc4rXL//uDU/v2jry4ZnC1Y7BwUc2+6vDlY7p6yLFWyLiXrf+pTJ/vmus8eyI9OKIOCKV6bPN/uqXJvrrL4yI6B0b+2b3WOMPynY8LUVclVN6b+sxJ17XWl0/7XApZFVyurJnrPHSXOZfj0jbU0oXN/ur35wYqK/IEamr0bipe6xxWuTpx+WUP5oiGpWOzhub/fXaQh9Yn3N+Wbsj//tEf/3C8b76yQuZBQAAYsc5lQAAIABJREFUeGBSwIK7cN0ZZyxprqq95ejbJq/Pkd8VObrvdMMCbb/LOa5I7fSS7tHGr3ePNT4+c/v4wMDjJvpr/ydHeXXK+XWRo+MQbPGbqy2E16UyXtd14w1P6RltXJguvrgdEbHjjMFHNvtro+Xt5Xcjp1rkWHqv2yxnxtmre2z4kq6xxq+lSH8QuXJUyvnS5qrapyZWVZ8dEdG7rfGtrrHGK8p2fnbk+I8c+V3N40/4emtV/dQ8u9g3ey5zdIj73WWOqTtf95w78pXurcMvTzmeH1H5QSrzRa3+2tfGVw2+NCKia+vWG3tGR04vU/mkHPGpyHlzpdL5HxOram++45yvfT+ru/vs5moOey5/nHJ+SUclf7u5qnZBa/Xqx8zxiAAAwIOY80tglmuKovNht+360xTlmojoXeg8s1wVKdb3zCpaRew52LydO9ZFGa+Lw/+/5+2R8jldD1n2f1JRTM80jvf1HZvSkv4ylWdEjocc7JqxFJFjbPgjuSj+X/Onk3+YItanSF9ura59IiKt79o6/K+920a+FhH/vTkw+NxUlmfnlD/YWl37ejPn9RHxg4NLMDf2rqz7rYlV1RelSGdXUvmJ5uraVyLyWd1bRz7TOzp6XUS8rrWyujl3pCKl+Kujb9tVa62ub8w5L573tXdl+vfOReXvTrXTGZFiVY5Fr2/11/42OmJzV6Nx0zynAQAAHmAO9194YV5cUxSdx9y26w351smhiDj+LnfeTc/6+1yvyNm3zzL2VmLy1ZUU65dvHflImnVHc9VQb85Ta8sy/Uncw9lQ93m8uTL7Y/t5/zellDa1bvvh3/7qBRfc8fS97StXHt3ZsaQvcqyMyA894Dw57vKfKxVFGREX5aL44I7bdr4653RWRL6iuar2sRyxvufcxje6R7dcHhEv2tE38PwydZwTEf8v2u3xiHR3c5kb+65Yu5s5RET0nDtyaURc2uqr//dIeUOO9OnmqvplZSXO6h0b/nzXeSPXRsQrx/tqT6mkvCFHXBARKXJ85pDl37fPvau7HjkycltEbP5etXr+7VPpzEjRF2X8SXN1/T25o9zSMzIycQiSAAAADwIKWDyoXXnaaYu7jjr29fnWyaEc8diFznOHlL4TOb+6+2HLLtpbiImIiJuq1a6O6cpgxPSbUkpLDkVdYg41I2LLjx+69N1PLordM43fq1aPun0qnZlSrIocxxzqEHs/v/fnoviH5q27XhuR16WIq1p9tQ+liGL5tsY1y7eNfiEifrPZVz8lKvnsyIfV6ruIiOjaNvzPEfHPzb7ayyPlDZUyPtfsq302cuWs7vO2XN67rfGtiPiD1sqB/5YrHRsi8pKFyrq3kLXxB2cUf7lr0eTKiNyXptOfNVfV313mjuHebZuaC5UNAAC4f1LA4kEpF8Wi1q27/jgir805n7DQefbVde7w2tnX/3XmmkdNdbTraTpOj8gLemD3ffGTZctuWRZx8glFsWum7eb+/iPb5aK37m7ngZTi4fOdae+2xb+78rTT3t/1kGPekFOszRHfbK6q/kO0Y0P320e+071t+JKIuGTH6tpLdk0fHlsJ99W9rfHxHPGPO1ZXfz8iFTmVX2quqn2qrFTW945t+WrXeaP/FhEvH+8butO5bZVI3TkipUOzHusuPfz84taIOPv6Wu3tR0ylvhR5ZSVNv7G5qn5Be1HZOH5kpDVfWQAAgPs3BSweVHJRLGreuuu1O348uTZSnHTgHc1hqD22l6n83L6NrdWrH5HLjup0tP8i5ThyzkZrx6F4PuH3l0wdtTsiYvaKq/G+vqUpdb653Y5aRD7uoD67u/rae9h+d1f2bmN89zVF8d6jf7LzjRFpTVTimtbK2vvbKZ3Tu234P5dvbXxy5v6UK7si8iOafbVLIsVZ3ec2/uUgZnDX89jPOaSIHFtHPpyL4qOtW3etiJzXV9rlV1p9tU9EZeacr1mrnHJcniPe3OqrPacZsb5rW+NjB1XI2vf75156OqnR+ElEFNtXrjyvMy3pi8grO6bSmyZW1t7VubhsHDc6evMBZwEAAB4UPIWQB4W8YkXHxKqBP27+ZOe1kcu/LVM+Kcf+/blTf3P356Yc+fQdP/vRE/aedRQRew42n1hZ3ViWHTfkiIEc+ci5GG1GO9pzOYcf5SjXdS7OJ+5dcRMREduL4ojxVdW3pVh8feS8NUc+bi7nMPvf4kA8uSh2d28b+evdD1t6chnl6pzyb6corx1fVfubHSvrj525r2vb8FiZyj/MKT8q53x5s6/6yZvOrD/zgAa9U+Zyn+v9l4qi7D53+B+6Jm54SpnidWXkx5dlecX4qupHxvtqT5m5r3tb43+mSvxGjvJHOfJHm33VK8ZXDbz0QPPPfP/8XBnlfXjM4Qnnnffj7m2N9WXsPiFHbI2U/2z3dLp+YmV163+dueZRB5oHAAB44FPA4gEtr1jRMb6q9tpmzwnfjpzeGxEnL3SmiIjI0UoRZ0xOTz6+Z9vIBbMPN4+ISNH5zkgxFBFHLVDCe5Uj3ZojnT2Vd5/Ys210495zjyJiTwFu8U92XpdyvD0ili9gzHt1QlHs6t02+vb0s2UnpZwGU84vb6fyOzcNDJwUsWe1U++5ox/qfuiyp6VIr86RH1uplF+b6Bv4WHNV/ekLnT8iIl18cbv33Mb7uh+27EmR8p+mHL+ect46+56urY0v9WwbfUGkeGHkmEw5fWKir/rl5urqi+c7b++2bT/s2dZYF7s7TohI50WKN01Vpm8YXzUwenN//3HznQcAADj82ULIA1IuisrETyZf1SzLdanMT5yTTufmqXT/FRHDOU29q2fbtsmZxlv+onjI7iMmT+o5t/GNPf3nud/gt2+PBz6Hn0bE+ZF2j/Vu2/bDmcYrTztt8TN+9KMyXXxxO00vXhYd0XPAI+yPHHd+QuQB6rqg2BkRY62+ga+WOX0xbt9z1tj4mf3Pyu3KeCqKVkT8fV6x4uJm9wl/FJHOyrn814mV1Y/klIq9h6jf98z7fj9N3c29+2HmnK+JldXfjYiHzbRPnFl9R2VRx/ldW7f8e8+5I5+LiN+46cza71RSbMjt/OnxldXLIipn9Z43/Pn9msM9Xd8HPe/Y8oOIGGqtXr0tT1dWR0pvnS7Tm8dXDryjo6Mc7dq69fv73ysAAPBAZAUWDzg7VtYf2/zxzqtTzu+PlOameHXwvp9yVBctKk/qOW/kvN69xavWacWy5pnVgd2dO7dHmVcsdMh7sTNHHutod5zYc97ImpniVS6KRRN91dc/etnR/77j+OMP+VMFD7Wc77wXLqXKb1cWxX9OnFk79+b+/uPSxf+fvXuPb6o+/wD+eU6aQgsKzqHQJAh42cWp2/Sn23Sbm87N6XSbq8qtLQUKvUELzUmL0p4WhCYpN0sLLfc7ijrvzqlzc96HzqmoE6VAzmlRvOCUlDY53+f3R5MaQoFeUlL0+369+rI5Ofme5+ScVPP4fJ/vNtO+2LPBNjj5OwSeBOCHxPyaXqBubSxQvxOnsI+NcLMwzTf1AnW9r7D4HAAYvsT9uH2x+0dg/h0BAwjiab3A+ZRR4Lz8RIeXsmDBR7Yl3hKLaRnF4BoC5QrT0uArVC890bFIkiRJkiRJktQ3yQos6SshcnU1AdMGptgnErpXgfUpCAv6JeLOyCl2DRlaf+tg/1TB/mIAZ4KjxhSIfZP17lfMHAJRXaBVVI6s/bLZNmuaoh/wjzY+8ZeCcN5xj9dbeuM4R16LBIAnBQNKVrg6iDTtIwCrd2jaxkGf+DNBmCWAN/Tpzi3MqHDc6d15zPE56nEsRd8/beO/COBqYjHaN821PkGhOcMWV+62L/E+zMAjTQXqjYKpnIFnjenq4wKizLGk6qVjnkPk8WJwDsOq5+8H4GrKn7nOVCw7FKIzAWBfXtHIgNX8LLLiT5IkSZIkSZKkrxdZgSWd1Bggo9D1O2O6+ky8Y4nyBQHuALWOsi/23BFOXu3QtER9mpplHdT8HhiLAPTlxtUBEOpZCZxjX+wuCCev2t/zT/2vEGNjh8mrr57PELSMZEIVWJkqgpbdxnS1ck928Wnna1qr/U7P8s9OSz4HjBxA+QURvaNPd90drnbqEwiPNYvmkWDkEvG1Jot39QJ1/Z7C4lEEcMpiz/22JZ7vk0I3MHAmQXlRn+Z6Ym+hesmJDtWE5X+RjwMWy+UkrHuM6Wqlr7DwGyc6HkmSJEmSJEmS4k9WYEknJQaoqUC90QA0CL4IgD/eMYV8AdCdrLQusEf1hzoz6bQM+tR/OwjDT1x5UrcECFhLoLkpi917wxvb33NGOQRfGM8A4yHUr0nbV1RUGwxYihk8zZIophjTnYv6i0OLT9e0/wGo9xUWbiBOzAaziwS/pReoaxSmO1KWfPlexsu51dUtAOo/zNE2t1ib84i5yMLiZqPAVW8GuZKWehqxyP0Qa9oj+gH/aGIuVQRe9k1XH0BbRdbrcQx/IAMFJKxTfQXq4iBaF49cvPhAHOORJEmSJEmSJOkEkgks6aRj5Bdd3ago81mg48qQIHqntjCyUfiR+Sc/EVa2Bnj+yFrPYdPsjE8P3gRB88DctWqc3sxxiaNtpXsZ4jZ71PS3477nHTmRUwhjOd2yo/sn4lyGVlV9CGBGU37JfKGYM5mpuJmSpvumqdWth2iRY5H7MwAL9xUV1QVaaRIxlQjwBH2auoYtgQrHokXGYTEHYxx/BzFHT1k8o1b7AkDlhzna0haLPxfELkXBFH2aujaoJGikaU0ANrGmbTE+PXgTMd0BKK/p09RHoPBsjr5/emsaZ9RnzrQo300QIgsCTisSZxjT1dpWaq2UiSxJkiRJkiRJ+uqTCSzppKFPd14PJo2Bi/tQAdMhEJZbkVB55pJ5H4Q3sqYp+qfNY4xP/KUAndsrCYrYEQRsYdNSYa+Z/27kE435zmsEKRUMvqwPved9QqhfU7ExY0YNBxNmEVDSrz/nGNNcHjqUVDu0SjsIYMl+VV3d0szTQTSDTGuaPl1dDu4bf3tDiSx3Q0FBnVUkzmDQ9AQRHOub5qyxWNv7fG3bnpV1/5lJp2UQ820Q9AqB3z3e2L0h2Sr2D/F4incXzFqSIEwXM0+3cmKWPk1dlMTNS06vrv7f8UeRJEmSJEmSJOlk1Ce+REnSsRj5RVczlDsg0PkVyXo72cIIgFHP1lBFzZeHpcZ81/XGx/45BFzUxTE7/r23MBiER6DwbNti72uRTzVOd10hBFcI4BfgbgbTG+cQnQhsAWABYMb4OJEVUsdpqG9buNAHILtxums+C57J4Lncz6/68tUFSAiEm/fP3a+qSw41I4cYxQCSjrjesUxyRo93nPFDFUylvsLCxWxap4GVQtFKuUa+ujQYVNxnLav8FMCK7VlZa4f2HzwBTLM7PGYsRY5nHh7/iMXzmgAU7JtaNM+0KjMYKGlGUkG4Cu7sevdnMY5GkiRJkiRJkqQ4kwksqc/y5bmuJaCMwZfFO5ZognHB8KWexvBjBkifVvR7g5VygC+IZ2ydwWT5Dyj4/eieRu2JK8G/iFdsJ6tQj6vpe/OddypQSgl8BwKJ+UaeOu/AN5NXDtG0zwG49dySlSBzJoi+iHfM0UKr/GlN+SU1JkwXA/mWBDHFyHcu6o9Di0MVTvUNGdr6hIEHp1z86acdT0Y9QYYur/oQQLGery5lcDExFffrx3m+PFdVP5G0NFRhJkmSJEmSJEnSV4BMYEl9TmO+8xoB0gD+cbxjiRBkWNq/DEcmr/Rc5/WGQuXE+GF8Quu64Usq/xX52De96DIIS4UQfE28YuoRC/9yZ37+M6Em5XE1vNr7PoB0Y7o6TwguA1A96GO/6pvmnPvBoc/WhZrBz4p+nQCPbygoeL8v9HMKTY8sashxViVaqIRBJc1Imq5PU6sSg8nVocTQkvYXsCIIfJk+Ta1hS2BeZFXiiWCv9ugA8oycGW62WEqIUN5q8c808lxeS3+zZmhV1cETGY8kSZIkSZIkSbHXG62uJalbjPyiq/Vc9TnB9DgYP25vPN3Zn0hdfe3Rf0wAG9hUvmOrrvx35CH25rl+ree5XgTRQ2D8sMfHiiRieg4gxuMM5ES/543Tii/W89SHyVReJOZrenysz3vlGoR/XiUWnsj4+w8UHxDzZhakJnHSTj3fNWV7VpY1+jy7LAbT4WxLPP91VHvGmIIuhMC/SFD90MTB7+i5ajqnplrC+yWj+R1iqobgqdZg4i49T529X1VP6dHBBY5s1N+NWqmRtd59tmrPdADnAnwXBLRWxb/LyHMVNWZpyeH9Es2kXAhoELiFAtb39DzX4oYc59AenUNHn+njsNUu9NmrvTmKQueCcR+D5wQPKUfEK0mSJEmSJEnSyUcmsKS40/OKf6nnq/9kVp4A4SfxjidEANiqwPI9e7UnzVFb+V7kk3qe8ykF/Bf0wemNh+O/EfgK21LPbxzVnpfDW/flFY305al/FkL8C8B1cQzw+AivK8AfbEs9l9iqq56MfGqIx/O5bal3rIXMCwB6Ecy1ZyYO/q+Rp05gTesTFaZn1bh32Gs8qSD6ARO/AcIa48yRb+m5RT8GgNOrq/9nW+qeRiJ4LoC7ANze4keDL1d17SsqGhDf6NvYqz26vdqbo7B5HhEeYPA8TvS/H07EnVGrfWGv8cxPouZRxDwf4HSrQu/78pzepvySISc63pQl7r32pZ4plgTlW0R4kMHzRKJ/l57rmiETWZIkSZIkSZJ0cpIJLClufHnFVxq56j/A4ikIXBHTCqbuj8MA7hNBcZF9qWd0ytL577QPGVE1A6b/i3mFUXSFTA/GYoF/sslX2pd6r7It9T4X/d4HmK4ixu/BoJieQ4ziBwPM9BaYbrGdnvyDlKWe+6mDGhwOtfYeVr3gLftS981sih9A4D/MWGXs97+t56rjD7tuncUAWkO/d1TN1A32avd/HNXe3wvgUjDOAis/AYCd+fn9GCBb7UKffakn2xJUvsUC9xMwN9is7NJzXTN8hYVJ3TqHsBh1qkqpWbDHVu2ZTEyFzBj6ymmnKQDgyy26bGd+fr/Tq6v/Z6vxVgQSWkcCWEBMU0xh7tJz1Xm+wsJvdDl+M+rxR12Ld9jiyt22as/kBIhvMdMjAFey1f++nqsWdOs9lSRJkiRJkiQpbmQCSzrh9Bzn9/Vc59PE4mkGfhbveEIY4IdIUS62L/XcNHx51ZvhJ/Tcoh/rOa4nmoaO6CvVYcfyAgHXOGo9P3Ms8/4jvFHPLTlPz3Ue0Xepj3qXGePsQ5IusNe47yZNEwDQkOMc6stzjYvcUc8pPlvPcT0RrmZyLKt63VHr+YMilP8D4b8A1htnjHjTyHXdyprWJ/7eDV/q2Y4v02Poj6SLjFz1VSNPvYEBGra8crej1jOJWfkOiP4CsIcC1vd9ec78nfn5/eIYejsBcVivMWLKSxJJ7+l56tQdmpY4cvHiA/alnlLAMpKIlwKYhtbEBl+uq7yhoGDwiY536NKqBkeNe6IplG8z6C8AvNRqfc/Idd14omORJEmSJEmSJKl7+sQXOulrRqE/AnRlvMNox3hMsHKZvcZ7Q2Sfq7156iV6jvoooDwP4qvjGeLxELCdwdfZazw/sdV4nghv35NdPErPVdcC5lsg+mMcQ+yMXQAybB82fNdR69kUTlw15ZcM8eU4vVai94k57YhXEV8NKM/rOeqje3OK/w8AUpZVvmJf6rmeIX5EoD0M3mJ85P+PL895U7hqq4/5PjMeaMxVX/blOn8LAI7ayvfsS93pJHA+A38npsVJIuk9PdeVvUPTEuMdcAe+CUbtoP3+/xp56kTWtAR7zfyPbUu9JQmmGEXglQR2WgOJu/Qcdfb+zB72+eqGs5ZV7rLXuCcwK98BABH6XLOmJTRkaP1PdDySJEmSJEmSJHWeTGBJvc7Icf1Ez1UL2jfEuEF5D6avPUVMl9trPb8dXvvlqnxtFWLqA4rAywCubd8/2OXxT8T0u9dI4MaUGs+ljhrvo+GXN+bOPMvIVldYSLwDRjoYllhOUYzxOexh8OR9gQPfttd41tG2bSYA+CYWfkPPVeeZprmLQEVgJB85iRCh6YZYCmCUAvGSnqs+oOc4vw8Ajpqql2w1nt8oTD+FwH4SdI+Ro75qZLdVO3Uw2pexH+txT0WOF0D4fShiRisxPaLnqM8bueqvAMC2zPNfx1LPGBN0IQS9BOaaQR/63zVy1IlHbVgffT0YMZtG2OE5AGDGv1iI7zPjNRZYYXzgf0fPcaZxaqpl6PKqD+01npnBQMLZBNoI4LaW/mjwZR+jz1fk+OaRx+sJR23le2B8FH5Pmho/H2xNbn7PyFHz+kqVmyRJkiRJkiRJh5MJLKnX6Nnqj/Rs9SEGPwfGT+MdT4TnQbjaXuu52lbrfj68sWnKzO/q2ep6gF4B4wb0zUodAAATvQVwuu2M5IttyzwPhvtD6fmq3chRlwi2vMOESQB6viJf79EZXBDwJ3/bUeNdeUl9fQAA9meqp/iyVRf1s74PRgmAgccbSCE8aDsj+btgvgWMbwP0qp6tPmRMLf4BAKTUup+113p+SQpfAeJPmPCAkaO+pmc7U/tKRZbCyt/ttZ7LicWvQLAw4696jvqcnqteBYSawS9z/0kIcSGIXmZgxdCEwTv1bDWrrzSsD0/hZIUugkKvArRWHzKyLcbUVMuI+nlNthr3NFhwDgGbiKAF/cpuX7bqin9zdbYxUJ1kJu31ZasuWZElSZIkSZIkSX1Ln/jSI321+Kaql5ICDcC18Y4lygvEotS27PCV7BrzSr5tCrPUBG5Bn0/q8jtESrltSFJ7byigrT9UIqiETWQx0Ne/eDcxoTJ4MLl+5FrtUHjj/kz1lJYknt7CmEHAaV0dNPR+bGNN+3Pjh/50JtzOJLbr2erdisVSnrJ0/juhhvZXGbnqr5hRAaK7jRz1BaOD+yJeQnE8aeS4fsfgcjCe1HOdfyNCqW2p97lQf7ab9+aplygC5SDUGR/6Z/iyXRX2M5O2Rt4X8eJY6n4DwM2+3KLLwJYKENc1Dhk5zZfnLLMv9d5H1R4dwPTG3JkLTbbMJsIckeCf7stVKw8pzXVxDL0UwPlEmGdN9ufq2eq8zz5KXn3+Nq31uK+UJEmSJEmSJKlXyQSWFDN7p6iXKG2Jq+uOO90n1lOyIgVxWE0NEbYLplLHMvdjkbv5corPIebZwjTHEtC1lep6I/7oVeMOrwt6D4wK28e7N4en2AFt/aFM03SBkc1A5ytYTkSK48j36EMwPJwUqHUsWtQc3rivqGhA4KCS1wI4Iej0Y47ZUa1U1Gp1pGlBAKt2pGobBn3TnwlgljDNN/Vs5xYWqHDUeXeG+oQ9oWe7rgO4nKE84ctW/wnwbAQRPOw4R16Lnutoil8UW637IQYe1nPUP5BJGhOeNbLVx4Uiyhw1VS+FmsFfp08p+jEsSjmBNzV+4J+lZzvLwVAOi5ljfA4dTUftgKOm6iUAv27McV0hmCvIpHuMbPU1AyhLWeZ5iGoW7AEwaW+Wc75iUUqJeWGSmeQkYCVTVMy9MY3zyPfobXutZ87eqUVzFShlINQM+qa/WM9W5+0zD6wJVwlKkiRJkiRJknTiyQSW1GONuc4fCgENwPXoI9OxQl4joCyl1vMQRXz9bZpaPCJI4nZikY6+/xnYTcxzUoYOWB9KzAAA9NyS04mDRWbQzEMnptjF2cfMVGUdaFYPrao6GN7oKyxMokOJ2cGD7CLgjFgfNFQ1s3xnfv6a/sH+WQQqIQW36tnqhgSLmDN0aVWDfZn7EQYebcx13QDB5QD9nRV+p1cTrF1AAKPWcx9r2v2NHx5MZaYyEsqLerb6sKJwWUqN91V7XdULAK5pzHb+VIDmAHQ32lJMT8U5/HYpte5nAfxSz1F/AUYFAw805qjbfSaXOeq8jw6v974PIN3IVucJoAyE0njGG6pyS/XluS4gkzUAy4daBpcYOercpuCB9TKRJUmSJEmSJEknXl//8i71YXqO8/ssoAmTjt8vKrqipRcJxocA/8m+3HtfZOJKn6TaYcVtJotMYnR9FbferAY58mA+MKbuE5+ujvyy3FBQMDihpV8hm6IAoFN7dIjePIdmABYcAGFhv1YsHrLa/Xn4qZ35+f36t/bPomYqAXhYl8Y9ShP3Yzm3uroFQLWvsHAlNSdMBag4GFTG6VPUNQrTHVTv3osa9wMMPGhMUW8ikMbRd3NvNnEPPz7GJyg0LfAuTk29R//mqNHEXCpM2u6boj4ARZQ5llW9nrLM+08AV+pT1KtAqDiiwqs3z6GTVWr2Ws/TAH7amOO8RrBSQYRH9KnqC0RtUzhtyzz/BTBmT67rDovJGkf+teiN+I/T6D40FfImfYrrIgZrIKwYqgyeZWSrc1POTN4QmVSWJEmSJEmSJKl3yQSW1GW+7KILFbZoLPj31LcqrgAAjjrvTgA7w493Z80aZrWYJcycBcZJscKYfbl7RuTj/ZnqKS2JKEAzZoB4cLzi6qxAMPkjDDwwcuTixQfC23akaomDvuHPRAC3gWA/0TGFpi0u2je+qD4wUMkjoEgQp/umOFeCgvNp+SIDdZ57WNPua2w6eItiKgeOO+gJFpo+upE1baux7+A4KFRKrPxbn6reY2GzfFjdgrfsdZ6nADzVmFXy7ahXH3t65gmUUuv9K4C/6tmu68Bczqw8YUxVnxHEpY5l3n+cVePeAeCIBvut/fAnTk1dHzmN9kSw17n/A+APxtTiHzCExoxVxj7/bXq2Osd2ZvImmciSJEmSJEmSpN4nE1hSp/myXBcQUAbBf2QcUaNybB1VnMQK4z0mKo/evG9q0RlBVlxAMJsFknp8nN6twPoATC9Eb9w3vmhAIMmS30JcBMbpMTu2id5IPX7RjIQAAISasx8CgO1ZWdZhNDiN2T8bwFm9Xs10HEM3VB0E4N6fqda2WHk6gWaArRP1KerygIVYgcbyAAAgAElEQVTdpGn7AGyJGD8I4HQ9y3WPUEwtNL2s5zFHV/904XqEEiZrt2dlbRpKgycAuM2E5Q1jirqFhaXCvmL+uyn189/5cnx+E0Chb4p6CUgpdSyv/HuP4u/o/unGdQ1P4WzKUm8UQDkR/V2foj5FgkptK9zPhysorQHzuaBFeYQZq43TRjqNKc7ylGEDtvWoYX0n+3hFsi2v/DeAGxuziy8WwiwD0xqjyX+bPlWdY/u4YfOJTqxJkiRJkiRJ0tdJH19xTeoL9kx2na9Pdd1NxK+B+Cb0naqr3UQ80ZaS/B1HnXtjeOP+TPUUY4paGWRlF4AZQAySV73nI2KoCiePste7Hwlv9BUWJulTXDOCycouIp4PoM9Uz3TAz+AqS6tl1Nn17s/CGzk11aJnqelDafDbDKwE4ax4BhltyGrP5/Y679xAS+soBnkYlGk16X3fFKe3aULJkPB+tmHJXgImgvhihZX/6FnqliOrm+Ljkvr6gL3OU//ZJ8nnEtM0Bl0JxXxLn6qu3ZNdPCq8n63O+0sC3UDAQGLxtD7F+ZQx1Xl5PGMPI4BT6j332+o93wfzzQQMZYWfM6aojzVmuYYDwNCVVQ32Os/1UPBjEHQGbTWa/K/5pqh/jK7SOhFSllW+Yq/z3iCASwG8C8Z64xsjd/imqmM5NbVrC0JIkiRJkiRJktQpMoElHVXTlJnf1bPUrRbi1yE4FQylvXKkOz9hogdjtP34wDR1Hx84z7bcuzp6+k5rIl/IDBcYA3p4nMN/Its293y8T8B8W6IleaSt3uNNqdf8h735X1hXgXkBGGfELP5oPR/zEEBLAhY+21HndQ5bM39/eOiGjILBxmkjdwBYC8bZMTuH6KqZlqOcWxeMXLv4gKPOXYZg60gAS4hpqmk1dzVNLR4BtFU72eo8a/bxgfPAlAPgcgHzTT1LXe+bWHxOtw4aHXP0/dVF52/TWm317ppAS9I5LHgmBK63BMXy8PMEsK3O/ZCtznMxAzeB6QwW9KwxRf2LL6vosh6fQw+vQThGe713W8qw5AsBTGHGb5hwEQCwpiUAgH2Z50V7necaxeSfQfDHxLjXyFJfMaa4ftfjALpxDsPrPNvtdZ7rmXAZGLtIYKNx2og3jSnO0axp8t+vkiRJkiRJkhRD8j+wpSM0ZpV828hybjLZ8gaAW9B37pNGAvKb+zWfa69314Wbm3+cn3+qb4rqindwnfQZAVoLaJS93jvvjFrtC6CtP5Q+ueS88E4EWOMX4nG1glDLSuAce527YGStdx8AsKYp4S/t1oTEgQC+Fdcou8ixatEn9jrPLAjlRgADAwgOBIC9U4u+936Wa9Al9fUBe727rrlf87kEFAC4iizibV+Wa1U42RVvI9dqhxwrvEvAeDpyu5HlnG/kzHAQwI46z322lOSLiGk0M59FUF7Up6gPNWY5fxivuCORpgmYeDRym274bzGmuO7zZbkuAICUld5/2ld4fwGhXAWGn5kf1LOcL/smu66NR8yO5Z6X7fWe30Lgx0S0h5k2643Nb/gmO2+KRzySJEmSJEmS9FUke2BJRxBsrgPo0pgOGr0KYdcm/XwAYjcPCC63tzXiBgB8mKMNbA3485sPoYiA/gDcANoqWXo75db1ao0vwFjCHFhoX7Xok/DG7VlZ1jMxKJ3YfzsYGwHc3oNjHFtHVT9dEyBgLRHNTalz740Yhpqy1BsNw1+ukHkVgI+6OX73dFSZ1QPEZgsztVdEkbBc349Z1Sc7F/YzacmQas/nAJb6CgtX0cGEqcQoNk0er092rqageYdtzUJfp2IOfwZOwP3KTJMQSCg0JrvqA2SZT5rWBGArp6ZuMwaPHANGqQBt901WHwCLMsfKqtePPyh6d3VRRluvLQBgIhb8BwJu1Cer9ygMLWWl5237ysq/Afjb3smuXytABYEf1Serz0NBaaiZ/bHHj37cw3Owr/S8COA3xmTXTwCuAagSwL09G1WSJEmSJEmSJEAmsCQAjZPU70DhpJR676vxjiXKR0TktTSbNaHG2wCAxiwtmbk5pzXgVwGEexX5Ox4i7vxMqLHA9KSsWPBReCOnplqM00aOA2M2gLPjGF9nBMHYZAql4qzVlbsin9AnO683QOVg9InqnV40EKDbWyyYbmS52u7JRVUHEVrV0Eyy5DLDyQkJGb7J6go2MX/4ak9jvIOO8iaDxydwcJI+2bU8wWJW0vKqDwFsYE3b0mgcTANoNkj5tz5ZvceitK1qGO+gIxFRCTNPF4Q39SznZiZUOOq8O4evcD8O4HF9svN6gMoh8KQxSX3GtNDs4XXuZ050nLYV7ud9k51/JdAfw9v0ya41DPGwfYX3Pjpx6V1JkiRJkiRJ+sqQCayvsT2ZxaMsinAJYCKbmAqgLYHVG1+tulb98zkxag9ZaH5kU/AdqVrioEH+DCH8ZQBSunS8WDv++K0A1gaVBG1E/bym9pdpmmL4Dt5kEM2BOMYUu96Ov3OrEAoQ3Usmz7at9vw38onGLNcVLPgOZvzssFf07kqNHevt+7WtKucTMoP/B0tCETNXBPspTt9ktQoDA3eGElmefeOLagL9lTxiuEhBlj5JPeL6HzZ+jHtIHTX+Lx//uZ/AnYcsyCHm4mBQyTImqasSkDCPNO0DAKu3Z2VtGCoGjQaozDQtb+iTXR1e//b7J3y9Y119dZRzSDR52YefJy8eNMifASaNgDH6ZNe9rIjbHHXenfYV3ocBPGxMLrqaobgVk/+hT1KfYyi3O1ZGrbwYXUHW2/cR8wUEymicpO7QwR6bfcDGHq2iKEmSJEmSJElfMzKB9TWkTy45DxycDYjRAPrMillM9D8wL2pVaFF04mrwYP8k5uZZAGxxDLEzWhi8kgXNi6zAYYCMSepNjbpfA9H58QywEwSI7rUEg9qwNYdX4OiZ6i9AqBCCr4hXcPESmho4fd+kosVBKLOJMRefW6cZE9X5/uTmFUOrqw4CcDdkFNQlWPsVAihIEMGxvsnOGgsJb0r9lxV48TJktedzAG49rWQlJQaLGJQXQHCCPtG1xEykhWctq/wUwPqd+fl3JfuTJjO4hBW8qU9SO6zAi4fzt2mtAOobs7SNLPy5zKySSTv0SeoaRaE7Uurde20rqp5kTfu/Rv1gKoPKCOJpfaL6mFCUsuErKv8Vt+AZzzJxEKB1hu4vNCa5tJSV7gdlRVbH9p1ZNKDlEI+NdxzS18/wzxaskJ9LSZIkSep7ZALra6Qpo3iEqYgSCDMToKNf+97+T7Yje2AdJGApc6vHEdUfamhw0GiQv5QFzu5SYL1xDseu1ggA2GqyokV/yTcyi642FMUNxg87HVbX+4R1XUfBED2pmMKVssZz2HRSY7LrJyy4AsBVR31tZ8bvDdGVNLEa8yiPh66sagCQ2ZRRXGEqooQJi5L8SS7fRGfVoeRDy0dWLz4AoMw3sXAJk3UaCSoQsOQaE9WlAoG2e7yj6p9YnkP0/RM1vn39/I8BlDRmzVzApqWIwTMsrTzdmKjWtpqtlaFzWLojVatvq3aCZiExRp+obhUWLoeJ3q0g62jMqMehlTu9+8YX1QYSaRIxzRLME/RMdQ0HAxWkaQaAu1jTthm+gzcBNFcR4mV9kutJIbikwyq4WF+DqPgJeMe20ju5MdN1hSDWGHy/MUl9Q2eeY1vlvUd+YT5cMKCcxmTWxTsO6esodRWwzTz+fpIkSZIknUgygfU1sCezeJSFeLYJMQ5965r7mVCTYFq8w9bM3x/eyJqWYOw9OA4mzQZhVDwD7IQgGBsSFDEnlNho55vk/K3CVM7AJSfB19JHFFLKUlZWvhK50Teh6DIolgoWfE28Auurhq2t3A1gSuMkdbFglBFoYZI/qcCY6JyT4hiwnjTtEwBa04SSmqASVAHKJ1inGpnqIu4jlY+hqrDi3VmzlliDwWImTLdaEifrE9WqxH7J1aFVMuv3jS/aZCZachnsVEy6BcCOOIfeLtQfb8n7Wa61/YNcwIRCslrT9EnqcisSKkPTI7expv25UfePF8yzFcLLAIIATnh/LABIWe1+FsDV+kT1KjA0gO42Jqqv6AproWmQkiRJkiRJkiRF6UvJDCnGGifOPEuwZRYgMsHHudYnspqCuBVM9cGEo/SH2uufA9C3ehRHb5xD5P+LZQiAtsGi3G5fMf/dyN0aM11XCPBcCPy8S2FEV3/0ZtLrywqd55j5Nsca7z8in/ZluC4gBbMB/hOYu1eXciKqcsLbeqMCq5P9nVJWet4GcGvThJkVJlmKGbTC2OufrWeq823Dk1eTpu0H4GyaUOIRZM5kwAVGUq9W/0THfZwV9kKfw+n7xhfdYVqVGQyUth7yz/Rlqkv7AwtCUw/b+nwltvX5inG0R4p8TzrRsy007bh8f6a68BAhhwRKAghmGZnqylbB80nT9gFYsz0ra+PQYFufryOuQW+spBj5e9Q52Fd5ngLwVOhvRgVMekjPVF8H8VxZkSVJkiRJkiRJh5MJrK+gxokzz2K23CYYGQCs8Y4nmm2V947IL2asaYqxt/lP+t7mMgJ9N56xdRaTcoljVeV7kdt8E5w/h0JzBPNP4xVXZykK3iamn4YqQdr5JhVdCKGUE/hG9P4kxq+UUL+wNGNi8SIWZjmIlht7DxYaE13lKY6ku0OJrGJfWmE1JVhnEaEl3jFHG7qh6kMAxY0TZy5jWG4HY1YrMMU30VkZNAfUDV2rHQTgfj/LtTzRxIyLU1L6XIIl3OerMWvmKtNUnGDKtSqUqWe67mRqXeCoX/QJQn2++jf3O3whBQUD4hFz6HP4y70TXL9WwBpAdxuZ6ss+kOZY7X4sHjFJkiRJkiRJUl8jE1hfIY1pruHCImYJQRMAJHZ7oNj3Xwow4+Xwg3DyigHSM4t+b+z1a2BcGLNDBgEosRqsHQdhORR+EJm8Mia4fsLEFWBc1aMKjt6ugot4g22rvM9FPtU0YeZ3TUrQYPJNiNW7dwJ7YLHJl3Fq6t9oWwx6loTvn26uUGdbVflvADfszSj+P4VEOTNvMfb4b/NlOjX7au99tH6RASCXI4/AgAiKGxsytB0j12qHjjp4Z3Vt1c8jpKxasAfA5D2ZxfMtLEqJqcpKzU4jQ5134GDyyrPrtc8AlLW/QAAEXKxnuu5gal0Q2cuu26IrorpYpRaaHun6YNKshQHTdAFcSGzN9WWqi1sTaNHZ1e7PALwOANagpaVFoAmElb4Jrp8lMM0JTRHtvo7+Fhzn78PwNe7HATzuy3RdS4I1In5Un6C+KEBa6DmJ6Q6CuTreYUhfHUw0C6CJ8Y5DkiRJkqTjkwmsrwBjwgwHw1IiwBMB6n7iKvaCYNpoKjTnrDWHNzbXJzivN0DlxPhhvILrJAbwEJjLhq+tfC3yCd9E9VKFUc7Mv+n7E33oJTDNit6qp5WcR4pZagKjwRz7tF8sEd4lpprITa0W3t+f8RdmmmMMHDHWyHCVp4xIups0LdaTwbps+NrKfwH4bTjBSUz3GBPU1wxCWcpqz0PhRK5oVnZa+vF6EM+yojnTyHTNP/B50orQantxFVqQIENPK5lHilnKhOpBA/0uX4Zr7geJn669pL4+AAAwEwpICeoMTD8sSRSxmmi8nLly3gcAZuzNVKuIUUKM4n4BztcznAsSkwfceUat9sWQ1Z7PfamFZ9PAhKkEFJvE4/QJzjUE847Q6pMnVKjq6jF9ous6Eqwp4L/oE9QXFGItZbX3ryc6nr6EiT8ecWBR3FfDlL46dg+eeSDeMUiSJEmS1Dl9+wurdEy+tEKbL8O5lDlhJ5iywUhsX1mrqz/RujtO248gxiaYlvPta90Tolfl82WoLjA9BMYPe3ico59DbMZ7TLBymX2N50b7Wu9hySs9w3UPmXiJBX7TK/GLmL0vr0DQ9fY17h/Z11T+rf0apBXa9Ax1LRTzLQbGgqH0yWvQ9rMLQIZtePL5tjXuByIPcXa9+zPbas+1BLocTAaDtxgN/v/4MtQ/ck/qCCPPReDIc+sC2xr38/bVnquFoJ8T438s8ICR4XypcYLzhwBw1ubKT+1r3OlEOJ8FP8OC7xw0wL/Tl+GavD0rq3tTgKNjFuhRfyf7+vnv2tZ6xllgXgDgRQIvH9o6+B1OTbWEnv/YttZbkhAUo8BYRQJqv1Zu0Cc4b9+fqZ7SrYN2dD/1wPDVnkbHGk8+IXgumLcBpAX8zfPCzzu2LWq2r/EuSgiKUcwohaCbmBN2GhmuO/dmqindOqiI+r2L18C+yv1IyhrPpcR0Axj9hKDH9Qz1WSOz6OpuxSNJkiRJkiRJJzFZgXUS+nhs/qmHLMlzmXgyGP1jMmj0VJ3uj3KPRTHLQ/2A2jVOnHlWaFoSSGBAr3dX6tmX3adIoVLbGvfzUUNSe+8u7oVV+WL7hf11hVA2bK3ngY4bQSdcC0Z6j47Qkc9D/2xGz/+6MPawQnccVulzFKFrdfXedNfPLOA5YNxrpKuvGUSlKWvdD3e5GTYDaI163EPD17mfAfBzPV29CqDHTNA1e9OdnylQSsH8TRaY41jnGbMn3XWHBSgncN2ZLYNL9AxnhW33gI30dy3Y5XOIsdDn+hY93VkI0MJXTjtNAWDuHV/0PcfZA98iTfsQwMzd42ZVWRWzhAm3twDTjXSX1yLMmtCKgccXvn+60MS9s0IVVVP1dPXHAm0LFLyf5RrUr0Vksj+4PBSje3+mWtti8nQGZigmJunpruVWq8Udqug6vuhkVTevBwGMte6HGHi4Mc11AxNrbCpP6OnqswrT2JT17r3dG1mSJEmSJEmSTi6yAusk1JIw4FwmzgdilLzqOWbgfmbxA/s6zy2RyavGDOdP9XTn0yJgWRjPADuDgGdY8JX2dZ6rI5NXe8cXfU9Pd93TlOa6PJ7xdQaD3gLxzbaRyT9IWeu5P5y4CVXr5cc7vs4hgxi5nzUnn+dY614RTl69n+Ua5Esr+kPknnvTnWfr6a579o4v+h7QliSyrfP8nFj8Cgw/Mz9opDtf8qW5ro3HmXTEvs7zFIAAMWcqoLcBTgPht2C84Et3PW5lnGZf5/4TiH9IwBtgWm2c5X/Ll+YaF654ijfm9lQlAEBRyGU0+N/U0103s6YpIzbOa7Ktd09DEOcAuIfBc4KKsktPdxb6UguT4hT2USV9HrQCtJCSre8ZaWrezvz8fkNWez63r/PODVDrKAZ5GZgYCATf96U73Y2jZ37zRMdIANvWux+wrfP8kIgnArhCEJ97ouOQJEmSJEmSpHiRCayTVeymZ/V06tfDismXONZ5/uBYX/V6eAg9Q/2Rnq7+VQh6BkxX9nr8PTuHF4jFr2zrPD93bPD+IzxEY0bJt/V0dYtCyn/AfBOEoG6O39vxA4x3mWmsfWTSBfa13m3hHlANGc6hepprMcH6HglK7+ExevUciLGPmQsClHSObb2nNtwDan+meoqe7ry93yFuIFKyIw9BpoXAfJNCyn98aermxoySbwOAbX3Vk/b1nsuZ6bdtDcb5UT1Nfa6t+qkTIs8lht209mQWj9LTXWvASALjXDCsh78HfI0A/1NPU//GsAy2r/PcKAQuBWMngTcYSSPfMNKct7CmHftvd0fXItZdwTjqd8Y5YL7L2OV/zZdW9AcGyL7Jo9vXebItpHyLgYfA5KEk63u+NGf+zvz8fscd34x6HOv4jzyHjxhYkvRZ0k49zTVle1aWdeTaxQcc69xlSGgdCYE7iSlHWC279HR17p4xxacd9xhHO143EcAiaHkm5u+HJEmSJEmSJPVxMoEldQsBjzOLH9nXe36XstH7anh7Y3rxxXqa+ggEXgDjV/GM8XgI2M6g39rXe35iW1/1ZHi7b1zxOXqaul4I800wbkVf/pyE+0M1N3zXsd69OZy4appQMsSX5vRaBb0P8HT0nWq9juwHo4j6J5/tWO9dEl6Fb9/4ogHGeJfaEsQuMM0BcNRkAYPWEnCFEOab+njXOt+44nMAwLHe/Zhtg/cyYroBQBIYTxpp6j/2prt+dmJOrU3jmJlnGWlqvSUo3gFzBo4/Ie4XJMTTvnT1GQuJwfb1nusA8ROADAZtNXb5X/ON72GfrxhjwosK6KcAPiIo9xnp6nY9zXk9AAxbW7nbsc4zSRB/G0xPEmhR0mdJO/Xx6tQdqVpfWnhijsU0LwDRiwDXDj00+F0jzZnJV2oJjlWLPrFv8MyyWCyjGFwHRqElQTQYaWrZ+1muQfEOXJIkSZIkSZK+6mQPrJNVb1QjdG7spxWi0pT17mcjN+rjXBcxiXIhxA043pdqcdw9eu5Y58B4jYCylI1frgQHAE0ZxSOCJs8miDTwcT4bvVH9EF31c+z3aA8zz/0g+bN1kf2hfBMLv0Gt1iIzaOYTaOBRXx3va9DmYwALEg8lV5+xTfsivNGXWphE/ROmBkHFAJ9x3HuTAYV5q/+05pz+n/XPIqCEiMf4xqvrEizKXFpbuRsb2noI6ePVPwAoV5j/oaepT5GgUtvGw3uddXicblYv+dIKbSSsswRhEhgdJWoOEWiFIP6EGNMQlaQjxk8ZyhP6ePUFBs1xrHf/am+662eK4AoC7jXGq/82QGW2De6Hjog38vrG+n6NHj/0OGWD+1kAv9TT1F9AoAKgh/TxrpcEUDZ8g/vx4eu87wNIN8ap84SCMgJqBvX3u4w055yUvQPWH9bnq6MqslhiHPkeETBs04K3ANzsSyu6EKyUA7TScPhL9PFqhe1Qw2ZaM38/AGdDhnOBVSjFzFzcr5mn6eOcCxJbBtzZfi931AMrlp+56Ao1SZIkSZIkSfqKkwksqbOeh0CpfZPnqciNjePV7wigBOCxBOq7lUoAGPQWsXDbzhmwMVypBAD6WNVOCpymKaYQcOxpTfH3ITMWBhOS2yuVgLZpdodakUOtKAYwOI7xdcbnRKhtVVorR65d3L58+Y5ULXFQf38GCGVgdHnVt3Orq1sAVO9I1eoG9fdnEKCZpkjTx6tbTVPRaHPlLmzw3MfAnxvHu65n5jlM/Jw+3vUkE9/mWO95OVYn2DShZIgwzZnMmAZCRz2fWgGsZQpU2NcvMgDgw1StqqXfwYlEVALgzKj9f0zMj+rj1f9AiDtsG7y/aEpzXS5YzGHgQX28+jrAc+0bvNtidQ49YV/veRrATxvTXFcI5rkK8Bd9vPoCgebbNrgfsm30/BfAmKaxM+eaiqWYmVYYDv9sfbw63+ZLXm3AH+9TQGhK9B98Y10XkILZAK8z+o+YpY9zzre17N5Ea737ABTsG180zyRlBoNmt/b3z/ClqUuTzeaF8T8DSZIkSZIkSfpqkQmsk1EAvT+p7ctqhxcV5rKUTd6/Rj5tjFO/BeJS0dkpdr1dTREpiOhKh/8SuNx2TvJdkYmr3eNmDbOSWcLMWcxdTFz1RvzR1Rl82FP7BGF+0JJcH524agnw9JZWzCDgtGPGdYzxe8WR438OYHEgoXVhB4mrTMA/CwxHl+OK2j/UO6t+3/iiTQFW8ggosijiZmO8qz7Alvm0cV4TNrgf4tTUR/XEUaOJuJQYL+rjnA9DoLT9/unGCnhNE0qGmEHTZQbMbADJHexyiIhWmAGuHL7V0xj5RKhyZ8n+THX1oVbkEDATwJCo118E0N3GOPXfbJpz7JuqfqmPc/6agAqA7tbHqc+DUXrE+xKj/kuH6cRnOlSpeaU+znUdiMuZ+UF9nPPviqLMTlnvfjZU7ZSmj3EuhELlAJYbjoOFAOrB1CurEB4Wb/R71EGlnWOT+w0AN/vGF12mCKWcCeuMfiOdvvFqmX2D58+0oepDAMWNY2YuY4vlNgjMaqakqcQwjhgsln3IZA8sSZIkSZIk6WtGJrCkjhFeAVOZfaP7kcjNe8YUj7IoopSBcWDqEyuiHcP7AFfYWnZvom3b2ifb7BtfdEaQLcVAcCpzh9Uxfcl+MNw0IHmZo15rL+rYN75oQICVvJZWOAE6PZ4BdsJBIq5mSqiyr5//cXgjX6klNNoOpjH8s8EYEeuDDt1QdRCAe3+mWtsS4OnMmJGA4CR9nLosgYQ7lHjYyFdqWxvt/vECNJsUvArgla4eS08rOZ04WGQGzDwAHU3dPESMetOEe/hWd2MHz7cbstrzOQD3vvFFS4NsmUJgJwNDo3b7AZFynzFOfZ2I59rOHvCjxvebr2PmchCeRFuF1z+OHD0+7BvdjzDwaNM49UYBKheC/+kb5/orMZfZN3letG/2vgbgxr3j1UsUpnIAfW7VUseGqpcA/MYY67ycCRXEdK8xTn3NICpN2eB+mDYv2AMga8+Y4kqLIkoBjAWwO65BS5IkSZIkSdJXiExgnaxi/X/fI6obBJDr2OB5JbI/VOOYmWcxLLcziXQwrD06Vi/3XyKFPoGJSSmNyesie+roaSWnkzCdQYE8gAd0feCI33u7BxbwCRizEls76A9lTZgaFFRMwBk9GP9EVGA1g7EswSLcQ9uSRW2bU1MtRr8RYw32zwbonC7FcpQeWMe6n0IJobkNGQVLEwL9CgEUBFmZYoxTl7Ji8dJ67WMAa7ZnZW0c+sXgCUy4DUCnrndDRsFga2viDDbFdIBO7WCXQ4Rw4spzzMRVtFACbqEvtXAZrNbJRKQCbIva7UIw3a3vbH4LwB12I/lSPcV/AxHKu9DXrnu6OD4BjI2e+xl4wBjj/BOINAAv6GPVRxRWylI2V74yfINnO4Dr9NFFP4ZiqejVVQiBwyuiOjm+bZP3OQBX+cYVXwkWFWB+0Bjr/JcPSpljk/uxszZX7gKQoaeVzENQfLnyp+j8MTpFVmBJkiRJkiRJXzMygSUBAEigPdET+hIJINSE2rTOEsAkoMMm1H1OygbP2wDeDj/eM6b4NAvxDJjmdAZOiWNonWbb6JkamUDceW1+v/7f6J9FoBIAw+IYWqdwa+Bjs1/S2SM2zWtq36ZpSuN7B28xmMrA+NaJjik0bbHMl1q4BInWImbkwzYvmNkAACAASURBVDRz9DHq4kBi68KR9YsPAKjfeW3+uuRvJE9KMPnzo4318dj8Uw+hfwEHqBCEwXRkNqHbiatojm2LmgHcufPa/LrkbyRNZMAFYHjkPgT+LoBNhs1fSsTzPmsZcPFp1kMXRA3V9aRtLyCAsdm7jTXtXn1n860ELhUk/uUboz4AFmWOLVWv27dUvQDgV9uzsg5LlgdacRWA++MT+eEcGyv/DuBnxjj1V8xUQeBH9bHq80Bbr0D7+vnvAqFkaAgTXauPVdNtRvKmwxrWS5IkSZIkSZJ0XDKBdbKK0f99Z9BbBKHZNnvvidzekOocarUqxQjyFAD9Y3O0ww4cS01EdEf0xo/H5p96SPQvYIhCcAwam/diBRaD/kfEr0UcioFQf6hEfyYYbf2hYqU3egoBrS39zCDQnnRpBgAGyBir3tT4rl9j0PkxP+pRehcdjWPbok8AzGpKLVkUtAZVAs20tibmG6Odi/orhxafvqn6fwBqvhyfGcAQfYxrDRMWEvj6ZsZMAB1N3WxLXImeJ66inftYdQuA2h2p2spBVn8GA8UEjIza7VtgWjfI6i9l4nnbs7Jev6S+PkCM3QyU6GOc3yNhKbNtrfx3j4Lp6P7pYn+nUD+6zZyaepeROHIcAbNBymv6GNc9FgpqwzYteCu8wiYFlZdhMZ8VjD/rY9QXiVFq2+J5okfnEKNVAm0bPU8AeMI3xvlbBVTOwJPGGPUZEzR7+Gb3M+3DC5GpwKIxYY2R4p/lG6NW2M9L3hLZl69LYr2qoSRJkiRJkiT1cX161TipV73LRGPt5yVdYN/s3RZZ7aOPVUusVnof4OnojeRV7HwIppkcCJxt2+RuTzg0ZmnJ+li1pJmTGpioHH17Vb6DRFxJCcoo+yZPexKRr9QSjLHOzEFW/3/BWAbEMHkVewECViowz4tszs4AGePUG4zR6r/B2MZA7JNXPTBs2/z9js1eZyDAZwO0jolKmjlpl2+0q/jDVK29j5VlYHJ1W2N0TiPm18GYhyOTV80ALRECZ9s2e6bHOnkV6fxtWqt9s6f+g4EHvkWMTADvdbDb2cy0augXg9/9eGz+qSmBhh8BSAPoO6yIV/Qx6r2+sa7oCq24oG3bTPsmz7p9Aw98h5mzAL7UZMsbxhjnpoZU51AAsN81/137Zs9PFeJfg4iY8FffaPUZ37jiK+McfjvHZu+jKZs9lxLo98wYpID/oY9V72p/fkvV67Yt7j8qCl8C4F0CNurvNr+hj3bdzJom/10sSZIkSZIkScchK7BOQgEEoHC3v+/sIlCFLdiwMbKxeSQW/Ht0vIJa93FEyZIAmHpUwvQxiLxWi1ga6hN0+KEOHvwBC8zryQE6EoyY8MPc4xKsZgJqExLYE9kfKsw37IuVJCg9lqVeFFWuEYNzCDJ4E1NCRajvT7udY/NP1UX/p2DyJW0H6+mh2nRUcMLMMHtQijJym3cfgAJfaqEX1oQSgMtbEg7OaLi1+NIR+/rr+hdfjCbQJOYOE/7NAOpNS8A9YuPipg6e7zWh6qQ1fKW2wRj2RT2DJnSw24iApV9/2rbtfwA28JXaFt/Qg2kKYTaYX9PHOLcFTSofcZfn7Q5ee0yR9w8LoKcXOXQ+K3ekautPSfDnE1CVmMBbATzEABHAodVQ/6rfWnQdkVLOpvm0b7Tzb4qC0lBvqq7FH3kOzCDRs5KmtumR7gcYeNA3umgNCVwefq7h1uIRI7dW7k7Z6H0VwO98Y9RLwWYFg+7S/3vwdd+tRZp9a9X91Mk3MhbxSpIkSZIkSdLJRCawTlZd/664B4S5H5zy2brwtBwA8KUWfoMtliIwXh9+V9XWbo7ddd07xqcMLEzy05IhD3ra+xM1ZGj9Lc0HJwy/y7sMABDAiakt7N45HAKo3kxorYxMeLCmKU07mu0p29x7AYD4BPQr6v51FiBsIWFWOO5a+G7UkEQAJyHpVOZQ8qo3tQCwICZTqRzbFhkA8nyjnQ+D8VgCmVP0oQdTIejsDt6qZlB8EleR9o5x/donDs4mpsuPtg8fsrI+Wi1RYK6gLdpHAFZvz8raMPTzUzNZ0G0W4jd8tzq3QEGFY7N3Z6cP3ktN4s/fprXqY9W72ERV+Lr6bim6RVdwTTCIOSO2VTXYt1Y9wsCjvtHqjcRcLkw867ul6HEQyhxbq17qcvwxPgcC2CfoA0Qk6q0Q9+y9xdloIbPMtnXhvx2bPS8D+I1xs/NyoaACoPt8tzpf1Rll9ru8Dx/zAOH7XpIkSZIkSZK+RmQC66tPZ8a8z8WAVedv01rDGxsyCgYntFgLwSgg4FQomBzPII/jfyAsDvYLLIqcorYjVUs8JcE/iQ4dnAXCaQCWxTHG42klYBUsNM++yaOHNzJAxq3qTfo7BzVKoPsB3B7HGI9HgHCvCArtrG0L3op8Qr9Z/QUUUdFE/AdsWfBRvALsKb5SSzDg/wGDAUZxB7v0icSVfmvRdQyaDSEu68z+zDzDJKVEv9W5xFQsC8+qr/wUQN3Oa/PX9j81aTKISyBwq36rc2PQ5IoR26oaevkUuoQUJDDTBIsF43y3OtdYTOUO2ubeiy2e+1nTHjTePngTK6SB8aLvVufDFkZZyl3eV+MddzQiXC9gud53a9GfYbFojk3uN2x3h1Y1HO38OTHmMOEh363Ol0Eoc2zx/iXeMUuSJEmSJElSXyETWCejzlUY7QPx/GD/gfUj12qHwhv336Ce0tyfp1MzZgA4rX3vXqxGOIJAJytm+AsmVJNpVoUabwMAtmdlWc88cGoG6ODtEO2rsfkPf2nMov1SZMydb7scAGi9xWLOSdm8YE94IwPku6XoBh0oB/NFoY1frq7W6feoC7oXP9D2bj4AhcscW6pej3xiT6rrCkURFQz+BZgQWXHSK9egozFj0MyaNU3R3/aP1uEvheDzOtilmUF1wtrqiVfiKnzPKKTMZuaLj7LbJwQEGDiz/XUJrQyhAAwfA0WKaeb5bnH+P3tnHt9UmfXx37lJSmmBFhVF2rRUh3feGbcZl/GdcaECouyyFMRx1HGBUQelbW66AO1tWdu0LKKoKCruWjZBxYVtVHQccRkVZ0Ftm5sigiDQprRN7nPeP5pCmqbQJW1afb6fD5o8997nnntzk+b+cs7vLKkx1ywdVG9Y/6CekrqKFNN0gDJNCv1Rv9H+lMmgeQ0ZgU0Idv2E+vX2N+c/YRq/EIR7DUXcqk9WH2eFFpCm7QVQ39XwX9VTAeQY4F36FDXoNdtsvB1his6BT/lpCHpHIZrDXvGZa4pa4kV9Caf1BcffAFxdMdk2TCiUD4HN+hTb+0RKTvyLhVuDzi0rCCUSiUQikUgkPyOkgPXT4wcQFZncUcsHbNKOizr7/mSL9tTRnbXgLPK7ue2iVIPpcS9joc+fCEC9yFDxL/dEPoL5IAwKZ4AtQABYCxNmWZ8vbFSWVTHZNsxFtICAy8IUW4thYAuIshJeLNzlP67faLscTLMBMTpcsYUCBmjvZNto17/c+QB+E2SVWgCrmSivI43ZT8bxGIlyCLi0Ge+yH0D0kLembqklwvIyCNc2LDC8QkBRwODnIyLwmKcWaSDKivRG3q/faF9eZ9ASa0nBEQBL947RVhpR7rvAnGkofJs+RX0SwpvvK68MO5HHqIh7RDlqTdX3ApxBzHfpU9SnDItHI037DsBzrGkvVPzLPZGB+RD0mT5FfY0E5sSXOD475Q46GGLyWF921JdwHomZykCuCfylPkVdqwiaE1dS+J+4l4u2ANjiE7LmM/MW5xR1p6JwTvwLRdvCfQwSiUQikUgkEkm4kAJWd6XpPewhgJbXWI4t9mVVAKgvs4tB9W2eWmgAn91skkTbs3NaRssyvOpAeIqJ8hJeOiEWNAhXrq/ccwH8sk37CwX+56j5+QWAtQrX34z6LyhPybhSITFPAIODbh+YTdERGS0tnJ+BnYDITni5+B3/cT0l4wKQmAOBSThZ/scxdN6nCwPwnnKtJlRMtg3TQQUEXBzkXNSCwixcaZqy96uqUTpIayZGADgA0Ar/971rstrotRWWHqx4DYABX8OAzIob0x4SwmwDc2YE8V/1yfYHI2tQ3G+jVglg2b4/2R731NCdIGSDzLfpU9SnmpwL/3gEQnu9Brt+fPOfWaJVASg4MNa+oiYS9wCcaaqz3KxPtj/uZV5ImrYPQMmuadM29D8SM5UZOUz4WJ+sNn5fCjTOZPXP+AoFgefDb26fD+HTu1O0F2NQfRsT5wjir/TJ6loYmGVd69jjL2QxlEVsYKtzsrqTFJ4NAy6ZgSWRSCQSiUQi+bkhBazuz2EwltREHC8HAgDsGTGjR2SfyGng6iwGnx3OAFtAHYEfZzYWWF8+kenBmqZUfFU1yfWVOxfAr8MYX0tggNcKk0lLfKFgt/8CPUUdDGAuSFwVpthaw3bBSk5iScF7/oP6VNuFMCgPEOPQzW+bXSm2UYIoXwAXBzmQYwx61GAuSHr5RPZfZ8IpKSaXknRjxVfuWQz6VfCTTd8RiUKlutdK/0zLlhL34mIdwP1lKbalZsIcBmbVRGK6nqIu8kZHP9r/Kc0NYNk3KRlPRZAxE0ypxHyzPlldYWZzobctimGI8TVyKNBTUh9jMtkIPMNMuN05WX2A2FtsXbnkEHwiUW+47yBCtiD+0jnZ9hwb5vz6usTw4vMlXKmnpD5Dimk6mDLZhN36ZPtTJq4v4Yx7uWgLA5e5JqsTCNAgaDtgtMyoXiKRSCQSiUQi+QkhBazuCqOSmJYaEcqSxOcX/dgwvDtFi4ih6tuZORsC1hanRfhnHnR0F8IT/k4eMD1lEsb8AesC/KEm28e5drvzALqwTfvoiGPwv2fnRo82kqLkxr9U8E//1Ssmq1cIRj6AIS2KqYO6ugXlhKcQAIDA74GUnPiXC7f7r1aekv5rYlMuvDwJre3t2BndLFuxH+fkjOuIRR4Dl1PTbY4x4xGDUJhUUhge4SpZM1ecWf1HFyMbgv+nmcNygVHo7RX1mL+3XeOJWjgGwGfWfrs+UV0IQg4IxWa3W3VOsi+opKjHzy3RjgDIK78p8wGTR6Qz+D4vPH9hQf9sJKx1hGdbYIZRM8fg88fL/i4la4mXvXYizATM9+qT7UvrmJb4juHh0tu0J83VVdOIKYsU4yYABgTeOdX87T4G/8fNnCNryZJjAJbu+5PtMU+Ncg/AdgN8qz5JfQzkXUglSyrwsmMta9p6/cuqyUSU29bMQ4lEIpFIJBKJpLsiBazuiMXyLR2jpPj1Cw82DHGyZnb1q7qV4J7NjIFhjO6UMITBjNXM5vzEtYu+9V/mSrGN0kH5xHxxuOJrBa+zoNyEtQH+UCn23wGcJxjXhyuwVvAhM3Ksa4re8h90TUn7H2ZTDhhTQdw64aqL4ZpsvwYs8pnFlUEWVzPjUYNQmLQmPBlXu6ZNs5x5OOZPLnZng3FuM6uVM1BQW1XzxKDNy2tbM7+ormHFYjnpOta1jj0A/lQ2xb7ALDgXxMv7wG3XJ6nzvj/tyGpf18LZe6emLzUMRSXGva2JoTM4u2ThAQBqaYpabAYywZwRAb7PmWIr7lmrPNDvKa0SwAN7x2iPe3tU303EGeGOOZD+zxS5ATj2p2gP15H7PgbSAfMdeor6qBdY5CuPfJFTUkpclDiVBR8Id8wSiUQikUgkEklnIQWsboh/xhWnpJgqeOAfXaiaA6ZfhCSJoIMzZ74/7egCnwfMcZyT1OEE5DPj8nYncnjR2lyhVmMykDxgneMT/7GKiWm/NRRTHpjHtGnSTszAIkHfwCRGx5cUveY/Xj4x8xwTjDls4Ga09/OhMzOwglw05SkZVyos5rLg5CArVDPCK1ztTtEiYrjqzzhImUzNis6lABYcpeinfeVmpybgvAtLDwaLFmVIDXyp8F8AbnSOt80jE/IAWnnWoZgs10R7fpxS+iy9UPwDgIx9423FdSbKvOS/AxrnIoaS4F0IT4mv8cNMPSXVQWzKBiinJoJn6in2QkukWNH/Gc0NoHh/ivZoLapPlCYzIJhPrvS1hkA/LUaLz5HP52vBNykZD0WwMROgVDNwlz5JXWEmcyHVi3XPhixWiUQikUgkEomkGyAFrG4Ka5qif+Ge4mLkAPjfLm5LJMD0ZcMTf/HKNcF+DRSRz0Cw7JguhUJ8vGDHX7zSUzIuABuaAI0n7tovRAPx6xqXCu5NyUgwmGcDxm0MhO4mvpMwsTgPwNsA4Jpg/z9WOA8shgdZ9YRwVRIe4WrPiBk9ekRF3knCncFE1uBXDH/NRPP39z3yXKDY21pERDWjNrJV2ySsL/oSwMTjoiz4SZdIytZTbHnx5/V6kTRtP4C0gM0u0iepdktPfsiXSRRWfJ0T792bklFgMM8G83zvMUp3TbItYjIe9YlE/wCAY16zJwLiCBFWuSbaLzULUdB/fdH+8B4BcG59d8j6Es5akc7E93nZ8xfnJNtyIqPIVz4pkUgkEolEIpH8LJACVjdET0mNc33hfoOA80OW9RDYhTA0MgyDsAGk5FrXFHzhv6A8JeNKRYh8Bl8D7gDNJ6TZIPQOFM6JLyn6wH+0bLz9V2aFc1mIFIBCn/MV2oyWr3x+XI3QU1LjyDBlG0LcCSAipHsMfQZWBROt9h8QFhxUavABEy3RJ6pTABxi8Mgg+64m0CN1HnPhORsXfB/yyFqAnpLaE8J0F0B2AHEAgp2j/xDT/LhD0S/QDq3tDkd+88ZW9uQaM7fpPR23dvGnAMY6J6RfRmTKg6DnXF+4Z7kmqVrc+dFrSdMEAJhImWUIUQ1gnqea0l0T1UWseB/xeTu1+xiCPm8hA0oKnACmlaXYFpoF5TDIAZhVfaJ9YU31sccGbV5ee25JwZHymzKTTHVGGoPv9yg0XZ9oe5CExeFfqt2uY2hFBlYgvqzb+hJOj6IS4z6w+V59ou0q69qiz9scn0QikUgkEolE0o2QAlY3REDprwDnhzuOU/CqiZE7YG3jMjsA0Ceq90OIpeEIqlUwPlCIc+LWOrYELnJNsD3BxLcwYApHaC2H/gsWefEX9nqxQWwAgO9Ssvp5hXcWBKYzoXXpOZ3PPgCLvL2jHw00Lk98ftGPrvEZdzOJtQD+L8i2YReu9v3JFl1XjekQpALo38xquxmYb70g+iX/16mrkLCu+CMAIysmZfxBsMhnxsuuL9yfc0rKxVRSYvhEoullKbZF9SIRCsFmmz5BXVRzrGZla327OgKfYf2f9YnqAjByAF7WI7rnuQBSgeMi0Zy9U9OXGR5FBdNfWfHe45pgX2pENm6WES4G+Eo4KyamvShg+oRI6RfumCQSiUQikUgkks5CCljdEQ9C7/EUomwHgN8EIde6tqhRm/fvUrL6+UyWQUync0cbJLVv+l0g5FrXOV5vfnqaBA6xeOUfc/sljG+JqN63qKTEwLrGC72GdxyA+9u9l0Cq/B63/yU+wIxCszd6xYBNWnXgwvKJGecpbGgMMRFNSzeriemROiN8wtX+FK1XreG+x+NGOgFnNrPa58SYF3eRL5tpbQh2HHDtcI8ohhGair64NQXvAxjmmqBmMzD/4759FQBG+cTMcxLXLvq2kUhkIAeEpZE9I1XXBNv8I6ZeT7bYxwtocRfC1tJgWK9PUC8kFmYAODDW3vuYhVOsB6Ofphe0Ez5fCmUCbFNqjBn6RHVJTWTN0kHPLT/aoh11oAwplIhKGEYXrxyXSCQSiUQikUhCixSwuiuh1n/af6O4TSHkxK0r2uk/qE+0XQhB+V6vxwAwEUAoSxSbp23H8BkT5VrXFW4ivxn2pmQkGF6eTYQn4tcV/r0d87ects9fDsK87884strfO0lPST2NvZZxCesLnwzBPlpG2+c/RExFEZao5T6fIgBA6W1aZERl1ZXwKLowcS6EmBKkdLM+4yqMwtWeETP69OwZ+ddarzsVwBlBV2L6FIqYG7+uaAMBjPUhDCDQxP1IFSOaQvp6M7Dffz5FGHn6ePV/WFFyEtYWvHm8q+F4+wIF0ACsiPG6M53j1bnWH6OfblF5JKPevB1olYl7aw6iYU4PGz1IKKtcp1VluSbY8+NMpc9TSdF+AGnOsfYiMossCMqOrI6833WDvcm12SJCKWjVoj73s+1FphKJRCKRSCQSSbdDCliS9vIumHOsG4p2+A+Wj0v/taIoGgQmof42cV3QrbsGu8HIjd/gWOd/m6+npMaRx5RteOv9oYSBZ8IY46lwMWNBpSV6lX+WS+kNM2PNZEmFFzMVYA+AJ08yR7g5DGBJTU3N0kGbT2S57E7RInob1XfSEXe2AGJg4p5oWrpZTYyH64TFES7hyneu7wMwkxl9m1ntI0Xw3AGvOF4NraTUPKJHLwY6xVP9MhLiDed4dacCzolfX7Rt4PrCfwGYoo/LuIAVkUfA441FohLjlLN2Msz8tMs7MNs53pZnvajXy6RpewHMqBiXVmgoplkg1mq97lTneLXZ7ECJRCKRSCQSiUQSeqSA1V0J9a2vf3ZAy+b+UGGeH/dK0Sb/wbIxtiSTiTIB3HHSEruukf1TSqBFcZbSVf430t+lZPXzej3p8NB9DPQMOldHxN+2Ms4DYCpGhOeBBD/D7P0pWq/auup7Ac5AMDGlIzJaAmnxOeIqEB4SdeaCxNdO+AztmjbN0v/7mKnscecAOLd+tEnQ1WB63DDVLRq4ful3IYi61ewZMaNPZETPu5s91/V8oDAvHPBKUccLVwGzG5FHGB5zaF/vwOunfp/vKcz5TMoiBrY6x6k7FaVeyLK+UvAFgAn6uIwLQGIOg1e7xMA81w32Ju+/5o6jQ85awOceCSWLIXQQzSbQC67P3HNc49SCuN9GP0uapgP4y94xGQsMk5hFwELD5Lbr4+zFiPA80MSwPjDjKrAksr10ivzZ9SBgdGnftLPCHYekKSTw0cAji0NRCN1plMdk9mV4bgh3HBKJRCKRSFqGFLAkreULIsyNW+9Y06jMbkJ6oiGUbAC3o4tfVwSUAbQw7nDUE/6lTK7xWaczGzO8Hm8aQL3DGGJL+AFMRSYRtdw/A2TfcFu0J4rurPO4s0Do6jd5bjCt8rBlgX/WFGuaUvFP90Tej/lMGNTMtieEq3XhEa4arheA7wc4Ntg6zNhpAhcECr2diTc6hs2HOyUDC3GvFG1h4LK942yjBSl5zPVCFimYZV3v+JtPyJrsGp9xEbOYxeBHXZ6B9/uJRGE3sLe+UvQhgDGu8bbfC6Z8EFa7PnOrrvFqftx6xxraVG9YX3pD5kIzjCwQz4PHnKaPsy/29o1aFthoQBJyhhDTkHAHIQmAsU+xmB4IdxitgaEp5ah6Fsd/IDnOEeA8BkrCEZZEIpFIJJKT0KWFBslJ6Mhf34PPvZsYeXEbA4SrMRkJhsLphsHTAfRodk7/zIOO9sDyNju/k4jmBwpXekrqafBY7mPhnQkgpkX76Ojsh+Zv4w+BaHlN7bHFgWV2MZ7q2zwMDcxntyi88GXB1YKx2jB7NH/xiTVNqfjEPdH1qXsugF82s201EF7hau+Y9DMMk+mvJ7teGGEWrvzOvff7g2yOiAz96x3YdMD3niOA8UrRJgZe3TvONlow5kLQDuc4dQuEyE7YVPxR/PqCfwKY7Bpv+z0blM2E1a5P3aprrJoft9GxpiJw/mDP20vg51DA/PHriz4AcG35+IwrFeHrvDhO/dzFmBe/0VGStGFRGYDpZWNsi0xEmSCeb/7Rfa8+Vi2u8dQ8EnT+UB5DqDO6JJK24yEFKQk/FO4NdyCtoTy2SgN4ZMCwIKI/EcIvpkskEolEImmKFLAkpyKocOWaYI+Hl7MNEncAiAhjfC3BRUzzj/SIesLfH+qblIyYCA+noo5TAe4TzgBbQL0/VF1jf6g9I2b0iOwROQ111VkMPjuM8bWEWgArDZNnYRPh6rOqSa5P3bkg/LqZbd0AHrYo7Oi/3rG/U6INoGzCzLMVw6IawHQwRwVbhwhvC8bchFcc73Z2fF2N40JWSsrrFZ6km8AiB4ryoX6DupFIyY1fX/BPn0g0Rr/BlgymfCa87Bqn7oLBj4Y7/gYS1xe8B2CI8wZ1ODHymfCyPs72PpGSE7+hcOvATUWlAKY7x9uWkyANhCWREZH3A9gX5tAlks6BKC3xx6L3wh1GayjvaxvDzLMCxxk0d+CP4cuYlUgkEolEcnKkgNVd6cguhPWZA/X+UD0C/KFGZPXzRnjS2cv3oTl/qGB0hp9N0/nr/aEiPQ/EB/pD1VTfi1qRATTrWdSU9ndqPDkc7LHPH8rbjD8UIxcC57QpoM7LwPKA+EVDINd3s3+cinG2Yfon7gICXdzMLG4wrTIs4cu4+nZs9lkWqkuFl+qv+SAwsFMBzYl/pXB7J4fXlIC8gbpep3Nkrbtjuvid7LkP3+fHM6xpz1V84p7IzAsY4lN9rPoaKZgTv8Hxma8JxNXlYzKuVEjMA/BY/ca+SToiFyIwI+oUGU0JGxxvAXirYpxtmGBawMxbnGPVnQpzTvymom0J64u+BDDJOcp2PpkoB8AkAN80u79QxN/lLPAlP0OeG/hj0YPhDqI1fNNHHcQsngbQqIstA28PPFw+N0xhSSQSiUQiaQFSwJI0xcQZ8ZbydwOFK8PizfDCezeYgmafdBUEKUeZjXTqYTzsb6y8b7gt2hNJ99bWulUQzghnjKeCATcxFpHZUhS/fuHB4+PJmtnVu+pW2kezGRgYxhBbggegp01eY+6A14vL/Re4xqijBSFPMC5uRjNwA7zCYkJRuDKu9o7JSBCKkcHsuQNMwcpjmRmvAmJuwqbijzo9wG6Gz9+qZNe0aRv6f9/ndmaaxQIf62PUFxWi/LiNhf9J3FTwHoBk11jbKEDJ64pO5T6fr636GPs4Is5joq3OseoWRXBO/KtFHyS8VvQlgMnOMemXKQrdFu54uzPxhwpdkIWSYUfvk3qaoSi7ACQFLPpnRFTvaTgcUw/3DAAAIABJREFUjqjaxv5+9/Sq9oh1AAJ9C8ssRsRUQtfrjCqRSCQSieQEUsDqjngQ8LthCGA+fqfoy4YAUG9ULTyedC95ZoCpV2j2FZJZmsVnFP1Fw3M9JbUn1Zj/4gEywTizzRP7f63t6GM42utOf58uTkkxVRwb+EcXuXMAOpfbsv/ALLsOxFwlfqyLol8lbCj8xn9cH6teD0YeA7+j4MfgBjUIV0XhKRUcY0sykZJlsLgVgoKVxzKAVxQy8uM2Lf60s+M7JQHn9VjfvdznuxgQBz2WttGODnuXrlzpAfDonhEznoq09LwL4CzBPMU5xvYsTDQ3YYPjm/iNRa8x8Pp3Y7QTGW8M1EJcBmBbSI4hWAZWC98XBDA2FW5gTdtY8Yl7IhgaE72vj1FfZ6LchI2Fu3yi5kcB2w3Tx6gT4zc51rW7G2XX0/YkP0EYmuI0VT4PbiJeHSIWEwbsPdFEpKvDAJV5e64i4PyARcfAysT4yhM/FkkkEolEIumaSAFL4gTzvO8HHH3af7D0hpmxZsOSyl7vTCLq6v5QPxKRI3Bwz4gZPSItPe9CDWcxMCAcgbWCGibx74YnDeIVa5qif+ye4qpBLqhZY/OugvAIiwEA/d8qcsOvfMo1xjZEgPLBuKKZbd0gXmH2WBxnb154oDOCDUQfm/kLYm82g24GsyXIKgLAWhDPs24s+ryz42srl/x3ALt6u/cDmKWPUc8BI9/6qmNPuOMatHl5LYAH9ZTUVVRjmk6gTDZwkz5GXW0yxDx6vbgcvg6bbOAzUvAFg7bqY21vgpDr6xYYVhqyyljT1ro+rroRoBxi/odrtLoJUHLiXy34Z8O6BtNMBTwPwBrXWPUzJyjXurFwU7uFLImkAynvW7kIjOsChgUINyceXvJtWIJqI+UxNhsxTw4cZ+DupCOOT8IRk0QikUgkktYR6jweSWfB7f5XwaB7j0ZGD7K+WvSYLysCAKCPUmeYvZZvwcgBo08I9tUR8QOMoxDI95o858RvLFzYMPWuS6ZZXGNs0yNNkXsgeDkYA0J+DKGJH2DUEfAweWmQdWPRs37Tk2u0fZJrl/tzYjwPxi/bva9gWTOh+SdY0MtCERf4+3QBgHOUepU+Wt3BTFuJcUWQbd1gdpi95iTrxiJ7OMSrirH2X+qjbU9DGP9ipj+DYQk8Pgi8IKBcaN3kmNzlxSuBxue4326u8dZcDKaZYAwB8JVrlPpk2RhbYEZF62AAHwfstw1YS5Yci99UtNRcy+eCMRuMGwxF+a9rjLpi75j0MwAg4bWiL+Mvif4NgaeQoAQY9Hd9tLpp7xi1Oe+0lsV/suetgDRNWDcVPR8fWXYeCfozE85jiE/10epjDeskbip4z7rJkUxMwyC4mgS/4hqj/kMfrQZ2QWtb/BJJiCmNTb8BDFvgOBNmDfyxeHM4YmorZbFp14B4QZBFS5IOF6/u9IAkEolEIpG0CZmB9fNjH4BF3qroR5N2aDVB1yDcjNaYm3c6XMXAcvIYRdY3lxwKXHp2XMzvhMAj4YisxRA8YKw2CTEv0B8KAFxj1EfAPC0cobUCBvAKFM5N2OhoJOocGGvvfUzwOgKGNbOtG8BDZsNcFK6Mq/Jx6b9WDGWWEDwFIFOQVQyAnzcRLxjwavG/gyzvHpx3Hg/SNL9sJ/NfGMg0gf6oj7Y/ZSKaN2BTgTPcYfqy9goPjLU/XCvYzozZDNoMYBNwPNvpZda0Na5d1VMB5BjMu/TR6itQOLcrCIs+38DVuy6Z9nz/s2OfZojkhmX7xtvO7L++aH/8q4VbAWzVR6rXQ0EegNf00eoHQqHcxI2Fb4crdonEn9LT0/+XDKxGQHEwgV9J/HFxQZjCahNfn5ZmhVBeAjjwO+/77sO9M8MSlEQikUgkkjYhBazuSut/fT/AQKFZiV4xYNMJz4q9Y7Qor3DfQ8TfWF8tWt/GuU+N/5xt91+qBrDCLCyF/qIHJ2tmPcqdkvC64wUAHeMRFkjbz5HBjOfAyE/Y7GjkD7VvuO3M/m/5fJ8En9ah3sUG2jk9vWZSOGfApqZlF3tGzOhRI/hu4mDiFVeBaYWZwydc6SMzLmDi2eTlSQh+pXgIeI5NpvnWjYu+7uz4QkLA9ekcqd4bGR29+swSrQrAkn3DbSs9EXQvmFWD+db6TCHvQuurSypaNH/g9RNCT7V+GwsrXSPsj0Lh2Q370EfZJxDjCrNXFJCm7QfwHCdrL+lR7puJMAcGfeocZV/DwshL3Fz8VYt2JNC0s2iI3nKXfrzSo49UnSBc2jDmqaNN+ij1v6D6Ek7r6443ALzhGlnf0EAx+C19lPouiHOsr57wIWyWEMYrkfjz7zPsvckj1oG4sX0A4T9eWG7tTmWvezCjh0nQWoD7BSz6TjGbUs6DVheWwCQSiUQikbQJKWB1V1r+9fEQgYoiqqOWn7lDq2oYLE3WIs1R7umG4c4koD+Y7mrD3G2ndfuoAfCoF1iU9Lpj3/EpNE1xfVg91UXVOQTEA3ihjfO3jMCb3dYhALykCMqLe6PwP/4Lykfar1XA+V6mrQBmt2MfraNt878FcI71dUcj/6HyUemXKGzKA/g9APdAwNpoK2oQrixhE65cI9XfMCMHEDcQB731rwPwtGHiBQM3FZV2dnwhI/B11TSmkapW63bnOkephWYlekX/TdrxbKdjXr6fGGmA+Q59pNrkfdai/XSU6H1cGBNRDErzmGm6PlJdTj3MRbReOwjgqV2XTHvurDP73EaE2UTKF/oo9QViIz/+9cX/bfv+Qg8xmRh8Mxg3ukbanvGaMHfgpqLS+NcdrzLwmmu07QYIygPTdn2kuk1h5MRtduwMOlktABMaN5aQSEIAA1TuNZ4C4VcBiyqJMOHcQwVHwhJYG7HERjwI4LKAYQ8RJif8ULg3HDFJJBKJRCJpO1LA+ulyGIQlNaJm6aDNy482DO5O0SJ6V1ffSezOBhAXxvhaQh2BH2fFWOCfGcKaplR85J7o+odbA+HXvuGu2gmJQbxWeE1a4psFu/0X6KNtyRCUD/BVvqGtYYivpWwXQslJfKPgPf9B/XrbhVAoD4xxABOAUY22Iq6CwENmthSHS7hyjrRfqjDPYWAMKKhwVUuEJxQWBcHKObs7BLBe/7CSGAsNw52uj1QXeaujH+23UasEMK/0hpkPmmstqSDMNAN36SPUFWaYC8P1mp2ExwHM4FrvPa5R9mUeS93ipA1LDwN4bHeKtrr+s42zGaYpzhG251gx5ye+tqgrGU0/z4RPwWQ3GbhZH6E+aTIr82lTgROvFq1nTXul4h9VkxiUKwjv6SN8hvWvh9+wXvLzwBmbPgfAhIBhJsbtiYdamN3YRSiNSZsO4M7AcWaeMfDw4veCbCKRSCQSiaSLIwWs7kqzGQ9cBeAhoZgL/A21d10yzdL/zJipXOXOAXBuk80Cb+tDnVHRunIjD5hfZKI86+aiRmV2FdfZhukfugsIOLl5c0dkhPhnO7RgfiZsYRKZia8V+1tdw3W97fdMlA0Do5vduAMzQY7TsnP0gSI4J+7Noi3+g2Wj7L8yGSILRDeBEcw/yg2iVV7GwqTNLcjm6QBcI9XfMJAN5kkMUJDjrQPwFIHmxr9e6Or8CDsIDvKMAQY/YbD5OTMZWQCKzD3d2foI+2LvsahlSRu0wwBy9etSl8FkuQ/gmV5479ZH2ldZvGL+8dLW5vfTscfhK1mMtNAcDxvzDC/ZmJFurrXM1EfYVnh7eBcllWiHAazYnaI9HlNVfRuAXBLGTfr1theZKC+wZLdJc4ZQH0+w+RnVCW84ivYNtz3sMdOdBGQZXvFnfYT6JEzefNK0Cvh8vir+7p7IRHPB+LtzpLoFoKyE1wt3dVi8kp895THp1zKQE2TR/MQjxWs6PaB2UNrHdjkRLwuy6JmkI4sf7fSAJBKJRCKRhAQpYHVHgns8uQFa5fFYFpyzdcH3DYOsaUr9jRDmM2NQs3OKZh6HipZ1/BIA1sLALOvbRXv8F1RcZxsmiBYK4FJqyY1bGMvvGNgCiOyEzcUf+Y/rI22Xg2k2M0YH3b6jS7L8RcRTeWAxPlQUnh+3uWiT/3DZcFuSSaFMGHwHQKYgcboBWuVVeGHS64VhEa4qhmf8QZhEFotmBcJaAKth9ua32POpu8EBj3x+SUlvLCoDMH3v8PQlhkLZAOabI9336tepxTVKzSPWzUsOAdBcQ7OWs8WYAeY0j4Lb9etsDwmznyjegR5YjSIPUrY7YFPxDwAyvxuRVewVnnQQ3WeusdylX29fXkPHFg8q0Y4CWLlnxIzVPdHzVgbyiHGjfr36JBHNjd/sEyuDzR9qT6lm3sc+w/pl+5O1VbU9q+8Fcwa85tv069Wn2KA80rS9AEpY09ZW/N09EcB8MH/kvF7dYmZkGMBRKWBJQklp7MyBXF+GH/iDxJbEw04tDCG1mW+j7z+LFF4DoEfAos9MvcR0HA5HVN0LRoqpNDYh3kSwMuNMEJ/NrPQjxpmAiGGiXgT0AhCD+vMc1cxU1aj/mwsARwBUE3CQQQeZ8AMJPgCig0IYFZGsfDugsviHTjg8ieQ4e3rN6Bdh6nERwOcIogEEtoJxNghn+lapb2rFiAKhmgE3wIcJdISBbUmHi5eEL/qfL9/0zUgwwXM+oJwDwWczUTyB4wDEov7vWB/U3y1HoN6K5ihARwjiMJie7W4/ykgaIwWs7s8xBh6JELyo/1uO41kSx/2h/l6dA+B/uvjNjgDwAilNfWucI9ThJJAvCJeHKbYWQ4S3wZxrfaPoA//xvdepFxsK8tC8oNJlIKKPIURu/JtFr/mPl4/KPIcMbw6B/oignxtcBcZDpggu8gkMnY5+vS0ZoDkCYkgz17sbwMMej6XIX+T9KaGnpPbkSvziVOsNeKv43wBu0UdmOCAMDURLIjnyPuf16lxrTfSztFU7CEArHak+YmbKBHC/YhjTnNeri3tG0LKa2vB/oPjKGzNdI+wPQnA2E2dFcuTdzuvshdTHs8JasuQYgJX7k7Xn6yKrZzA4nZlv0a+3r/QqvLBTshxPgc+XsKD0hpmPWmoj0ph5Jpn4Zv16dYWZzIWkaQcAlOy6ZNqGs86IuZUIsw3CR4CxI8yhS35C6PGpPY0qWgvg9IBF5REGphJKuo3bGkMzl1uqXgI4PmDRITBNsLqWHAtLYF2Ub/pmxJjIcx4buICILiDiQcx0TjmQqAAWbvioZ6pPYyYAzdTit5SGX1Xo+I8GDEVRUAegLDa9EsC3AH8L0LcMfMHgzw4drvrqUqz0tGO3EgkYKaayPomXkiKGg+n3IFwEYAD7rsrjqfrBLnDy/9/x/9YAkAJWB7MHM3pExFiuFAoNJ8ZlAC4Ce33Nruo/l4KVWTSFwSAw0WcApIDVjZECVneFUQvCSjZoUcLbJ4xIWdOUig+qJrk+cOcCx/2hWjt3x3LixlEwaA0rTTuHua6zXwOIfBa4stUxedG5XQgZf2PCHOsbjnf9V9FHZlwAr8gzgBsg2vB9ryNKmpp//jkz5ca/VfiKf4epvSPTEw3DNAte4zaALEEmrQLRgyYLF4dLuKq4zjZMQJkD5qubWaWSmR809+DF4YqxJbCmKaRp7ZNVjlgWgTjJb6T+s6EZg3Lr6wVfAJhYMSLttwab8ojxpKtHdZY+3J4f/4eoF0jT9gGYqY9OdVCdKRtEc2pq+X4GPmuUCRnY0S8UBMbczPvBl1F1z96R6QWGocwm8EIctaTr19sWeWt6rfSJRAv3jJjxUKSInAlwqtnAnaj/JvNOs/trL4FznWRun49Xjmto1jK2eG1gzPCy5y/O4bblREaR9c0lhwA8vjtFe7r3EfcdRMgGILsQSkKCt8r0CIEbl+UzagBlwoBKR5f9zAyGM/aoA6DBAcMGC9yUdLQbN+cIAQxNKY09egER/kBMvwfwe7D3F2AC+T5LmMP+odIbwEUAXQTUf8QRCGfE9q4tQ/qXIP6EBT6Gmf6WdLD43+ENVdId2IMZPSwxltFQlCnlzEMJvi7fYb/UJSfjm74ZMSbhTQEwAcSDGRTVogocyc8CKWB1Qyx1KOcIY1Dcm4v1hjEGSB9uH+d6350H0IWtnrQzOoo1fr4BCucmvOH43H+4fFjGlYoi8pn5mnb9demULoT8PrGSE/92YSPz9bJh9l+ZFc5lr0gBoLQplo7ODmkQHBhfEaDFXRG91l880YekxpHZlG146U6AI5pOwFUAPWiq4+IBO4rCk3F1nXo9mOcIpj8084IfIaIHGJ6lCW8tOdTZ8bWU0uSZseYelvv2flD1PoAtp9ygGVzDbUMY/Ff/8kEWShMD42DEbV78KYCxzuvTLyNhygP4WddOd7brOlte3O97rfF5M927d2R6oeE1zSLwbU0m6UjB9VQlrwB8Bvx3lQ/LXEiKN4eYFpsj3KpzuLqgMiZ6la+0ML80eeYDlh712U7H91GJ+iTzUBP4uXqKY4jfuvAggKx9w21LvKRkADwTbL5Xv1Zd6vV4lvh8vh4uTdaeNEdUTVOAH08+o0Rycspi09IAviVwnInvTjrs+CQcMbWV0r7pU5kxs8kCpqyko0VvhiGksOM8wz7A8IrrFOLryrlymAI6vYtn5DdHDwCXgOkSItwFAyiLTf8OzNsB2m5iscN6dMnX4Q6yq+GMSb2UYYoNdxyBCPLuSjq8tEOLecti034LpjtBuBHAaeDuc+GXxqYOVtgU5Efj8HLgyNG/dXQmZHmMbRhD/BnsHQ9Cz/pRqTZKGiMFrG7IgB2Ns0hcw9XROpDX5BfULooSEbVowCatUddAfbjtcoDyATE8XHG1BiIaF/+mY7v/mH6tOgiEHICnclMfkS4Fs6IT8c3xV0S9QJom8Hb9eOlItb/ZQCYY0xmIDLJlWIUrBqhiuDqKgTlg/K6ZP2o/ArzMW+ddlrSjY78gtQfX0KzTYfLOZGAGgNfj3izKb+tc3wzLiGGIJ+GXe0jEO61bClp105bwRvFHAEZWDM/4g1BEPjO95Hrf/blzuD3X+lbhK1QvEk0rH5a5iBRvziW9B3S5b4SJWxZ9C+A219C0BWwy5RDwYJ/D7gx9uG3u9wePPu27JnJcQ7OWCVPdeY027gLpBwDgM81PL7tuZpGJIzJBbDdHWGY4h6uLe0bSMl/3yAfCHaeke1PeV72CWSwKHGdgWdLhxU+FIaQ2o/dNvcBgPNZ0Ca9PPFJc1PkRhY+9vdPP8CiYwMS3CK/xBwKoG927t4azQXQTgJsMUlAWm17K4E0KUUnCj8U7qWN+yuxWGESL6USn6y6DiSxXA3j3lCu2gbLT0v4AQVkARrWz2jVsEJR1THxauOMI5Kw+0afjKEL+gzAD5OxrGw3m2Qxu7ru9RHIcKWB1Y5zDMq4jEnnMuDykb/UOyV6i463s/cWr8uHplyhsygPzqJDurwOOgYVyfNb4NwuPi1dlw21JZqYcBm4Gt+M9FcSwuqNIaBA23qp//t2IrH5ew2uHB/cgmBkro5KJHzR7eHG4hCt9mG1sBSlzmPmSZlY7yMxLai21ywdtXn60UwNsBd8OzT7LQnXpTJ67wdQLQIWwmO5tz5wWMpaBKcF/jJlqjz8RaNU1FfdWwfsAhjmHp19NbJpL4PUV19o/drHIjd9S9FqDSHRiZwCA813X2qYfie315HklWl07DufEnO14T8RvXfxfADeXD01foCiKBqaVZ50ek+UapubH9S17jkoWHgTqSwhrYXjNrBxj4BHnMNv/9IxSHui3sbCyXfEHZlEGdiVsAQPfXPodgPtdI+wOGJwNxpyaYzxTv9busJB40GcGL5G0mrIzZp7NXlECIPBX/verD/e2hyOmtlIek9nXYM86ANGNFjD+7TF5bvs5CBm7oUX0ijk6ThDdVQcMBaD8DG8Ckwh0HzPuK49Nc5YCG0jBSwMPLX4/3IFJOh5nX9v5gnkpBIaGOxZJyymPSRtaRrSEmC8IdyyS7oMUsLoh3w7NPstMnrUEcUXIvpYFfs8J1byMbYqCnLi3HDv9h/WhtgtBlAeBcUAHZD2E9uvqFyDOTdhS0OgY9g7LSDAgZkHgz9z0JqD1tKxTY1spZ25qNKlfl3oaC5PN6/HMAKhXkO0qmfhBhS3F1i0LD4Y0ohbAmqa43nOPdzHPIdBFHPxn5AMgKu7hiXrI53fUJdGHpMaBzCrIcxdAUQ1OtgzljuPd/dqAc6j9BmK+1W/IC6Cx10sbr6WEt4rfATDYda19KEPkA/SqPkz9kAk5CW873mpYz0RivhCKhUErYg65M53D1LlWb/TTtEPztmnHx1D/1ylQwGrDFZi4tfgrAJMbPnMYeMr148BsfZgtP/7KXi+SpomkHUsPO6+1/4KYMwk0p6aaZ+pDVYfFxA+1SyQKLCFs4+tw3OdrSHqBQcpsEM/1MKWVX5MxJHF7we42xyf5WbIHM3qQ17SBgbMDFn2nmE0p5yEEAnQnwdCUcqp8BmjSvKISZmPCoINd98eMUPB1L9uZZhPfD6q8g0Fn/ewkq2ahBALug8B9ZbHpXzHweA8Dz8guhz899g7Qomqrq+yCOQsdYwYg6QBK+6n9ySMKGbhZOpJJWosUsLohJlNtPAnlinDHcQreBTjHurVoR+AC11DbdCZagY63Wm8XBPwLYC3uyl5rAs219aHqUgPiL2japrtrQXAxY0Fl3+hV/lkx3wzLiIlgkQYDM6m+1Wwg9cKVCJ9wpb/rTnG9554N4PzjDrON2cfMjggTHu3/lqPLZqLsHZKeKBQlg4HbEXC9EPBIa8v8/Nk33HamR/CjjeekAibxSzD1beu8gfh83rbqQ9JHQFHyiPGma5jtvbi+5clUUmL4uhreqA/LmM8QeQQ87jJXZbmutefHxZY+TyXh72Jm3Vr0OYDx5cPTL1GEKQ/Ac673qn4DwA4AvmYY91UMT3MYbJpFwFyvoDTXMLWA3d5HrB+Ev3vZgG31Pl8VQzKeFIrYaTJzfwBSwJK0CktsxIMM/C5g2EOEyQk/nGgK0x0oi63MJSAwg5sB3Dbw4NJ/hSOmzuCbvhkJJvaoAN8BNPjESJrh1wQsrjNhYXnf9A3M/OjAw4u3n3ozSVenvG/6lXXVR58jNM5Al3RtSvvabiSPeARATLhjkXRPpIDVHfEg9NKPaOZx6/m7AOUkbi1823/wwBX23v12NpTkKHFg7ljxqn3ZS3sAzo+7qtfzpGmiGVvt28EhFq/8NZr2m7jvA3ih19trZdIOrSZwoYX5TgA5Qc5TJQPLFZgXh0W4SkkxuQ4l3VjxrnsWAb9q5nXcC6AQ1d6VCV1AVGgO5xD1XCJkG8CfwEEy9Ii/NitQ27MPj0GPADjTb9JPj5wWld/nUNVzocr+8ce6rXgzA29UDFHzmWj2x9/2VQAYpclq/6Qdjn3WLQVfAJhQMSztt4JN+cz8tOvgwGznEDXfenX0S63qssiozyUDQtrUIPGt4o8BjNaHqp83GITuT9Z61Zrd18VvcayjtxbrAP5Smpy5yGwy5gAoRJTZpg+xL6zpceyxQZuX1550Bw10RGfGhqkF7fe155JIWkV5TPo0Bpo0d2DmGQMPL34vHDG1lfK+aaOZMTtwnIG5SYeL14Ujpo6mPCazr1DqMkh47wdREJ9KyUnowYwpAE0pi03/jMBLEg7rzxHC/wOLpHUwQM7Y9PuY4QjeIVvSFdmDGT3MsZZCYr4v3LFIujdSwOqudKSjQ1vmJuyCQK51u+N1/2HnEPVcMM+pIY4CMLld+2gpXrTtxo5RyoR8q4h+lnZoXvh6C353VVY/r8VrZ0EvJewo3OVbN/SEphPkASYqMEdFPezvNbZvuC3a66WRTPwfMOWBeVzAdpXMWK4o5sXWrWEQrpI1c4Wp+o+ugzwL4EFBD5+hs4ICw4heFUyU6yrsTU7/X0OhbABTT+KJZihsurX/loI2Z465rlFvYcZ4v6FaFuKW80q0On2IrfHKIbxeCWAdKPef06zAoQ9RzyRBufE7Cv8et2XxpwDG6EPsvwOJfGJ63vWOO1u/RtXitzvWtciTpmNLagEGN8zpRWUkhLLGNVT9zCko17q9cBPtWFQG4A49OXMhFG8OgKWRNZF211Db/COntcDnK1DACnVnUX+BTyJpAaV9bJczcTDz/2eSjix+NMh4l+WbPuogZvEMAn7OY+DtgYedbW6I0VVhpJicsQn3MDy5xHS6FK/bzW8YtLq8b0J2mbA53Ed6PdOdSmd/zuw7yxZdXsvPArgh3LFIWo7zDPsA4RWvAHxpuGORdH+kgCVpJ/xPZuRatxVt9L8p3TskPdGAMhvArSCyANyVfw11Ajzv+6NHn7r04xPtYfXrUk9jr8nmZZ8/lIk3hjPIU3CQmIojOGq5vw+U/vvUnhxlutvjpQwAMWCyoPEX/hPC1bbOF652XTLNclZsn1tc7M4G45xg6xBQBuJFR04PkTl4B6EPtV3IrMwywJNwihxJJi6M21rQZmPZvcMyEgwhGt+IMs1J2OH4sq1zhoDhrPBwfaj9NSGM3MTtxR9btxX+A8D1FdeoVwhCPgiNRaKuZq7M6E/Er7iGqB/pELnWbcWbrTsWfQ3glr3J6QuEYsplxoqYg+5M5zXqXCu3w+dLIulEvu5lO5MUXoOmZe+fmnqJ6eiy/Vqbsu8sW3RNrVgHIDZgUZnFiJj6U8uo0fuk/qJcMT0O8OBwx/KTg/FLED8eHVuplXP63IQjzlU/tevnp0RpP7V/TS1vAiBFkG5E+Wmp5wmv93XIUk9JiJACVjcl1C2RyW++Fs79FQMFCYN7PetfFuRKtsczQfUyTwMQNL1dhDoTIQAvGh9PcxCwXzAtFoha5p/Rc+AKe+9qC+7hOs4EEMt+GzQgOPTVO4FW9i15HRioVIhXeIV3UdKOpcdvQXanaBG9fqi+jcG5EBjQdCquIihPeBTzgnO2Lfi+3cG3kvr43DcSeA4LCjTfbaCMGUvretY80uKyrTBMFvSWAAAgAElEQVSgD7VdCAEbC/ojwEoLUov+WXl6L62t+2OAdMNYCZC/d8BO6xmliwNXPP4wRCWExxGNr1cBgBg7mbCMBOYRlF3Oa9QtgpAxcJvjk7jtjp0AhpZfo16hMPIBfkW/Rv28nDAvYZtjTTAhixnwNuzDCH2rh8Bzwgww0wxAHCbQApDyuvMa9e9MvCBxW9GmATuK/w1gavnQ9LmKoEyAHtPJPaf8GvvCBI56IlDI8p2TE885tMfAHPqkLslPE4ZmLjdXvgQgPmDRQTBNtLq6bil2MGrreBWA8wOGj4GVifGVnf9DTEfBADlj0lWDkA9w1/bb7P7EM+HR8tjEu8qQNm3g4cWfhjsgSWO+jb7/LPKIrQB+He5YJC3n29i0i1jQVgCnhzsWyU8HKWB1Vzoyb+Ek3i0M/Echzo8fXN+9Cz4bzLKrZp5tUiIyBXgaOIhw1fHlQK2Z/3sGLzLQ65FA4eqYhe8/Bk4joG+TOfxvTzu6hPAUd6YMVBKwDF7TYut7JzrY7U7RInofqL4dB9yz0PRmxbcdPaCYzEviw1AqWJqsRZrgvgMH3BkArEEvNKb/MmFBAqKe68rZLa7Btt8boNlsYGQzq9QCOAqgn/8YmXBLezLJXIPVv4Jx3YkRrmKz+ZZGRumB10/nXK8icbujhJO19Tq5bwFjjsLYpV+jrhFQ8hK3F+xObBCyBtuvJeJ8YrzsTFY/KGfKTfxbY988cMBxhPoYAj/nfPMn7ijawsBW/Rr7GGbOI6aNzsH2d2Ay5iRsK37H19XwFleyulgA+QR+xAV3qjPZlmdN7vXycUE/2PyhPAaG9MCStAhn7FEHQMkBw4Zg5aZzjjhKg23TVSmLSbPV+xg1hoG7k444PglHTB3B3t7pZ5QrtBrEzf19kXQIfClA/yiLSS90H+mdJ8sKuwbfRt9/lmK2bAf4V+GORdJy9L6pFxhMWyDFK0mIkQJWdyXUN3OBN0LcZHG5AC1IoKgnaLvmbRCu9iann2GAbMw0g8FRLYqrM9IGgsdxkIkejPKguN9OR2XD4L7htujaGrrzGHEWGGe1Y/72EeRmOghuAq3yms0Lztl6InNq1yXTLP2iY6bSfncOgHObblafcRW4XWexZ8SMHhHVPW8lducAiGtmtW8ZVJBATbNZuhLlyRlXKiwyBDCagGCvVR0BTwnQGgK/4r+AgBxfN7w2UXGN/ZeG4ILG+6RoxWMscyWrc+J3OD5DQ0wdYOLeiGY823yv3RO7Lpn2TL/omKkg5BLE5/pgda2i0Jy47YX/8YlVb5cn24YR0wKA39IH294XipKTuL1wa5P5gz0PBYECme89SABje+FGBjY5B9tGK6A8NpS/Oa9Wd5LCs607inb4zvVY/SrbhVBoNkAv6Nvdc8qvVgsS3ol+1gl3qHztgiMFLEkLKO2bPpUZM4MsyjjniOOtTg+oHZTFpl0D0MLAcQIvHXh48epwxNQRlMWoF3tIbADYGu5YfqaYQciOjqkc8rUpbfIvDi3Wwx3Qz5lSaJFkrtwAkuJVd6K0n9pfeMRrAM4IdyySnx5SwJKcFALKQZj3feWR1f7+UK6hWaezx2vzMv8VoF7hjLEFHAJQHEnRDzTxh4ow/6WuFhlELRSuwscxgB6u84iCX7zv2N8wyCkpJuf3A/9IhGaEKxwF0XKq9S62flB0qPPCrWffcFt0XY3yF1SzDeD+zaz2JRjzrO9ElxBa0aWukykfbL+WwHPA4qpmtAg3CI8YQNFARP+gs/t9+Lc3Z+yMP6usuK3752TNrBvu1Q2d83y8DaJ1zJzNjI+dg9UXTQrli46u020Bvs+Lp/eMmPFS5LGedzFzliF4tzPZ9iwUmpuwzfHNiWwn21gWyCPBW/TB6jYheGVXEGcIYPytaBNDe01PrppMoFxm2u4cbN8MGLkJfyv+yPpu0ecAJpddnfEHE0Q+CKudg92pAH481fwSSUfybV/bhcT8WJBF6xIPFy8OMt5l+fq0NCsEvYim31vfrzrcJyMcMXUEZX3TR4DFywx09e9VP30I/2cW9El5X/WGxB8dO8Mdzs8RBqg85ugqEP1fuGORtBw9PrWn4RYbGJAivKRDkAJWd8SDU1hEt4GmpTouEBYc/SF61Xm7T6RQlybPjFUMS6rweGcC6NNmU5fO6UJ4hMBL6iJMS8/dUnCkYfGeETN6RFb1vIvrM64GtHjelmVItZ3gGSe1zFjJ8Cwc+O7S704s0hR9sHuKcz9yCfhlkHiOAniAPN4l1g+WdLpwtT9Z63VMVN9bV8PpAPcLer6I/0mC5sa/G72+qwpXDJDzSnUUKZgN5subWe0oGA+aTWLJgB3FPwCAPljNAeMyv5mqYKZbG5X5tRJduDMBXO53Lg8rCt0ev6PQtWfEjCcjqyOnMVOWYfAUgI4ScKKcJtTXq4FTZm024PMve1D/feoqYTZNJ6JMCNxUPlhdbZjEPNpWXI7tRa8wsNF5lX0iFNYAvNgowyjY/tpLsPdbM1chQRPYgRc5JaXEuT/pJmKRAygfOq9WNykKcuN3OD4b+E7B+wCG6Vepg0GUD/A1AL4OcdSN4+2yeYqScFMek9mX2bMOQHSjBYx/11hMt3W5BgonYQ9m9LAIWsPAmY0WMPYpFlPKT6XMqzQ27TYwHoP8bt6VOINZvO2MTbsx4fDirtzI5ydJWawtl8A3hTsOScthgMorlVUgNPedWSJpN/KPZHelA796ssBcYY7e0sQfShEzYVAagNhW778V/k7thcmoJpjns1CKE/z8oerL7PrcTlU0i8HWVh9DRwtYfvOzIA+AR0xkLIh790T6OgPkvMo+UYdbg8B5zd7TM54xzJ7ipA+WdmpvqT2Xz+jTw9JjRo3hTqVma97pY0DMtb7TuHNlV4IBcl1pu8FFyhwC/7aZKH9kogcglGWJftdZ2VXqxSwwu9F8BFviNsc3bY2n7Cr1YjByAoZJGOLPB66wL+23ubASwHL996mPs8l0NxE1zkjo6BJCcer5rR8sOQZg6b7htsc8x+heMFSzUG5xXqWuUky0gHYUuvBu4RqGts51ddWNgimnQz2w2lCi6BMgn+Fk7QXd674FhDnCwCflV6nryMRawo6iL63vOv4GYHD5lbZhCuGW4xuH+nOvS75zJF0BhqaUo+pZNM3KrWQzxv/vD4WVwbbrqlhiIx5k4HcBwx5SkJLwQ+HesAQVYkpj024j0CqE/udJSfvpKUBry2LTpww8XNyVO2r/pCiPSZ/E4MDvPZIuTnmsLQ/gqeGOQ/LTRgpYkiYkvud4teGxzx9qxjFmG0DdwoRv4DuLPwVwvIMMJ2tm3Vv9JxDPASMpjKG1GPJ67/Dd8APwdZ67yjZWB/IIfNGpJ8C9JsPyR+fVanFPg5b129mxNyylyTNjzV7z/Ux0P4C+zaz2oQDPHfiu47WOjKU9MDRFv6pqss40C4Tzm1EJDjBoSV3dsYcGfbj8qP+C0mQtUjHcTwOwHB8k2pzwjuP/2TvzuCbu/P+/3jMBVECxrT1JAp5YvPHWWvfXY3e72+9227rdbbe3tdvDCmSCR6sEtR4kgbp2e9hua093a+/72t12663Uq3giMAlt3dp6AQok83n//gAkhKAQEgJ2no9HHg/ymZn35zVHQuY972NFsJoC2gTeZsBNoIdPSjxDnWR1xHTh5Rd+6qgEkHfwauXp6hP0i0aGJOoASXlAncbcQxOynjxJ4iEQWYTGd7onZa3QuGYJfWX7Hv/Fqzxlyj+Lj/RulEZz0qClANgcGeUN1Nf5Kky1vRx3bsWdxPQwNNruuizrNU3WcpK/cO4xr3F8DuBz3+0kxkTXJMsk03+d/42Mcp2fA2pCeQ7QpLmEIOKbk37K2xMJTcGi9rBMY2Cq/zgTHko64lwTCU2hRu2Z+Wdm3XnVwTEAWFXS3fJ/ycedn0RazNlOaQ/rCCbxIvRKj50KtUfmFAY/cuY1dXTahu7A6qyE6uk74Sdmskd3E6t8h93jMrqyLN/nOUEzyT9sPxSENnrgBIGXN5liyhS57KD5T25v5TwA/do8Z3i7EGoELq1/4+u8ck+wXuMm5IAxspU2E8BYcJJ4hvsyqz2qK/+tznkQMtzjMs5h2ZABL6Yz0KOZ47IWJC0wfbW0w/7o48k2g8tbebMLlXOIaUDtYJPVDgLkiO4mnrrwU3vA4yhrlQvASPUZOgyBqW2JNGtqk76XauSpiZsW//TtpEy7xvIcEsjxnKAM18SsXMPJbk9e+KmtEsApRzQYx8F42D0xq5dGNUt801GDxj8Cq5U/M+ucqo8euHLm44YqzgBzuoSoqa6J1idrBOfSascPAI4BgAbaJTNU1qQNrsusqwVRTtJ/c3e3Wb9/VGUr96Euvfrp/b+evrLL8dq0ZNkrfeOeqLwKzTDfuH7JqRRCYn4ETIsgpC/dE63/0iRpXl3aYeupBiC3Xq/O2Y/aU7mWmef4jxN4vvlI3vuBtumoFHfPGM2EvwZY9FLyEedT7S4oDBQnWCYxQ3dedQ6iScLrrp7KONMRxzeRFnO2cvACJbaqSrwCNKr3qdPBKTsnK9ErtKeg/zLRaQf0f5idFW7z6wiAuV0FJZvX5C71dWy4xmfdyVLUATA5mXF+COYKnG7U9lcVCSzTDOhjXOOY1XBobJJrgvUm9/dJO1nQS+A651Wo9Ifm+Ne/BARWyUypxq/sz/pOoU7IukqdYF3HwAdgjGyBrV1g+ijA+HkssLSmkg6oE5R097iMNv8o+P6y2b3cE6yLhWQoBeMRcJ3zqtGL/stEV5rW2Cd2VOdVYaot2j3BOtXtqdxLjBeI6+qJNT7vZSTwEGne3qY1uc7mnICuCdbLIJDpt/39prXBp7gEsMnEPDVx0+KfAOCS/+a5TV/Z79O88gBmeg/Mi71dThSp45WHSibbutTb6co0DMCjzHyrJKIOuCZmOYvGK8E7pgOlDAbpouvz+dJj5jW5NtK8vQHKB/O90YQD7gnWxQfSZvYAgKSv7F8fPxLbH0wPgDFB0ninOsH6knuStV/Q+8BoWvsvyApl/T5aXm1cm/s4ad6+zKww09UsabtdE6ynCmUb19g/Tlybm0ZMNzBwvqSJta4JWR+6xltGnc72afXr6PhwID6zPzO/hKa/7d43He2+IBKagqUoTjlfkqQ3AMT4Ldomx4l7I6Ep1BTHZw2QgLcBREdai06LidOY3yxJSE+ItJCzlapqfgyElEjr0Gk5DJvkFdpLAM6JtBadnwe6A+vnx3EG5mtRnt6mNfaFAVPLJP4LwBdFQFtLqQHzEyS8fY3r7OnJX9gP+i50XVY5DrVFoDtyy10m4tcZ0hDTOvvNl6zN3eu70D3e+hiBPyVgXCtslpnW5l4jhDSBGP8KsPwCAuWzZNjvmmh9oDDV1uofzcVj5lzgmmC1e4S3hIFZBMT7r0PAv0nCZNPa3MvNX+UG0hFxSibburgmZt0fn1C5n4FnAPQOtBqD/1J+JLaPcZ19uW9UnD8/TLbFAVgJ3+9Uon+Y1tr/GazGQxOy4gG84GuTiZ41rrV/6L9u8oYlpaa1uVNrr3nxKRHlyZ7K1+qX91qbW25aY1+oRXl6M2AH89RoomL3BOvistGzO0RqsHF9/mHTmtxHDFGcTEx/Z2CWoas2qX55aqGtxrQ296nq+Kq+xMgg0BWsYZdrgvX50klKh0gNNq7PP2le63gsOpb7gPE+wNfWLzs0ISueADauzX3TuCZ2GIA/gjgJJG1yTbC+Wzouc3gEpet0cn7odX+cLNObAHr4jjOwn6Hd2lEbZQSCYTMYDPxPAIl+iw6D6XpjWfPfxZ2FgxcosZJBewfNp9zrdFAI6Ecs/S3SOs5GShOU3yNAyrBOx8aVUP4IgMmR1qHz80FPIeystPrpO1eAsZygOUw+Xem2pE2LuiCm+x0a8F3SOkdtbaJw/MwNTbSGh0EroyRaePHapS4fU6SOV645pT8cXRqBUBVxZwDvSpKUnbhm6XbfBfvHTO/eUFOJLwm2w2PS+rpuaOOslzNhAYDL/Fa5BIzH43tUZrnHKwv/V3185ciCFZ7T2Sy9LP0iSURngT3TwOjWzK59woIWmDZ03HbT36XZunmiK6ZRTaUVaLYD5X4Ai36oPvbKmY5LPdU1lU40doJ9R8LzQFu0nmA4CT412xgl3SRYTreNaZ39AIA71PHWOAk49YRYHZ91a8Wxbv9M/sJ2FEC2e1zGMoasMGG6MHgfcE3IekyLqslL/qIVRf+5mb/byMVfOH8sG5PlYJln1H/m1InKtRLT8Cpv1WP9Plp+HPUF60m+j0AzJS/d4h5vfV6WpEcvXtPw3XBGwlQk/sJPHZXqeOs+YgyqHzsJ/sg9PqtAk+vqfK3FPxm21WXjK25m0DyJ5ALXOOUtgmwzrl+684yTMPQuhDoAav8Hlnq7/p3QKH0ZACploutNR9q3mUdbURMqlqLpzZBggZuTjztKIiAp5FTViHzUp6vrdD6IblZ7ZL5tPpa3OtJSzhbc52Zcomn8TKR16LQOV3fLKAHoda902hXdgdUZaZ2D5gQxPevVsDh5c0OkEsMmucZV3kDAo8zoJzPuQcPC8NJ6B5kg4A0IPGzamLvfd4E6VrnSTbRYYlwK33bh4diHtjuwPgeJOaZ1zkZFqMsmzhzKmniYifah/p9AUPa50VbG9fYvAUxSx8ycSJJYCOByvw1MDFpxQXSPh9XxWYtM0d2eqytOfYriMXMuiKKaDPbSQwA3l3r4uSTR3MS19g3BqG4PfphsiztZXXm3FydmEuiiZo7vLgaWmmJiX/U/DqdDHZN1FTPf4zPEJOEe47oGR3FrcY23Xg1m36eQgoA7W1qMX2Jm3wuWwHnxPSofVcdZnTUJVU8ZP8o/DGBO2ejZTs2gTWfBmVJ1VLp7rPKEt4t3yRkdWRoafx6CqIF1RnwcNJJAD2bkxEhdZqjjs5bXaCfzjOvzjwPIOzhEebo6lqYCmO3VxJ3ucdbnAe984/r8b09r3/d7qBy1STzh2IdTf1MXZn5I8kbd6x5nfUEzeGz0le17rMPLDNurtd/H9ChDbHePs35AsvSIv5O7Wds6P2tcPZQsYv6D/zgz32066uxUtXpKeip/BHOm/zgxZiedJcWzSxIs18H3N5dOp4SJlu05L+vjztbVsyPCsEmqVv4imu1erdMR+aHX/XGVHrxCjZsM6eiEHd2BdfZSRcDTXi+WJG/ObeS4Kht74k9uqswmIPj6Me2DYMIq2avNT9yUt893gWvczF8CIgfAmLqhE+0vr4UQPpPA2YnrHOt9h0vHZQ6XIOcITdSnGT3axokC3tKaNy5dA2CyOs76WwJyAIzwXc6AmZifdlVXZrrGWXOM62P/WTK+3GiANBPsuYtB/jVIajcjvMeamG/e6Cxom+7wUTI5PUGuNkyvqq5MJ+CcgHf9zNtZkhaa1nV7s7VpNu5xGecweCUauz5WBErzayllo2efK1hbCd8QPEa+cYP9y2Bt1tmQCciPOdrlIXVs1nxTl26v0Be2nwDYSkZZnzIYMIuJZsjVUfeo47IcXWO6LT//C1tFm+YMMQT+AIw5MVKX+13js5Yaqrs9eWGBrRLAskMTsp47KUQ6gzIBw23ucda677/GKcaRhMCvM6TdApwueaNucY+zLifN4KBNtp+wHqu3pE17+4KY7ncw0yOsiQJ1rHWVxJhv3Gjff2brOj9H1B6ZVzBx0/8dRI7ko86gU5gjgbtnxmCN+dkAi942HXPa211QGCiKU84n6FEmZwkXdfFoswA8HGkhnR01oTwDwP+LtA6d1nHC0/WvneBeUucsRHdgdVaaf/peA/CzRNoi3wgEhk1yja240Y1KG4CBp3163x5P9k8/hwDodWYtx7zRuct3QdmYrF8IEvPBYmIb7AeHbzJZy+x/CYG5pk32r3wH3eNmDmbWbGD6PXwdH21OswzswKrHvN7+PgMflI1TrmOmHACDG20NDADwqntc5UKDkBIRuLCsAPhtSaIFievs21qrsL0oGz37XCF501GF6fCrCePDZoAWGjfY3wu2SyALw+OgRqmIB7p0iVWCsVWPkLQnwD416AiFWpfY1odn++6RAAB+QoA+koEcgFe6q07McY/Nmp+4odsq2mw7CCDdPS7DzizPIcBWVVWZ4RpjzTV4Y5+4uMDW1EEc7u8JX/t1EV9dZOmBSo/IliTMBWOJN/qERR2rLBFd4lb0+sJWDmBByeT05XJ1dCYzz5Bl3OMaZ30iymDIveirxYdOq9+/qHtb8bclAAE6at6QO69s9OxlLHsVZkwXkvcB17isx7SYUymczxSm2l6IjzsxlYjnMOGPrrHKS0JgQdImn/Qpht7r52fOgZ4zTczaKoBlv0X/MR+Jmx0RUUFSkpCeoLH0JnwjqQGAsNdDNbe3pZNrR8JgEIsAOi/SOnRCRqbrvKy/mX4MvlnLz53iBIsZgC3SOnRaR0mCMhngOyKtQ+fnie7A6qw0/SnnIfA/WKYc0zrHAd8F6ljlSjdXLiWmEU22qic09Z1axulvEj8XhJlJG3K/9h0sHTdzvMxivmC+okW1odrz5rrpovUgXmze4HjPd7xknCXFIGgOC3EzQP43HAEcDq2VxGfcawIY6x1vMfC2a6zyW2IsAGion6FABc0FET7UgOykDY6vAyzvEHx/2exeNR7tAcHedHBgxxUxrxMSlpg2ON5vy02Re7Tyewb+5GNBQIi72hK15B6t3MyNU4G80MSdyettVa0y5J/SV+fsSNpg/xrAtWWjZw5lSTzMjJfdYyofVtm6xGQufYVW538L4IFvR2UuEZJBYeaFXrkySx2b5ZTI89dGhez9a2CF+jPn76Cps1/nxLmrZOys+QahzQbIKZ+stKpjrA7RNfbpujpf89zjMh4THPUQCc7w1Hjvc4/J+nu1LB7tu87xw+nsh3wffP+ue1/XRXL2d2kWpyaTwgSLdDIq3T1aecJb412SvM12FMATham2Z+PiTtxBQLZE+LN7jPIPlinnlK0guybqdH5KYOtCXPEGwL18xwlw13hrbiK0PA060jBAKqTnAPT1W1ROhOv7Ha6vDdm5UXtY0hi4M9I6dEIIoYvwapkA2vTg6ueMTLyCmeIirUOn5bgTM7pqFfwM9MdoOhFCd2B1Wk7dGXlBeIU1bb5pc36x7xrqaOtviTgHjBFnvjvz956E8zupqXeGgA8EONs/Ha1sTOZYASkHQru6dfeXkSiCxZtIkrJN6+0f+466x1j7CfA8EvgTA3Lz2kJT6b4lEMDY4HiPp0z50OUy3UxM2SD0CbCqxkz/YIkeTdqQuztsgtqIe1zGJRAGq6fGcw8hcJF5Bv+HmRYmbXL8u63zlYyyXsjEK3zPETHsxs3O/wZr0z0u4xIWWN7IJniBcXPjmmnB0fhaSty0dDuAP6hjrRMk5vkgvOB2mS2u0ZZs4ybnO7Q5zw1ghjoqYxnJ8jxiXsgsT3eNsSwqr4h/trZoVHt6f+rfN8yZvGFJKYB7S8dmPSaxlk2gPMPJigz3aGXB/7TjLxprm1XYvr9s9t88Nd6ZDHFftIY71DHWx0S1J799QrBOXyjs4gLnjwBmlaalL5MNhllMmCHHGO5RxyiOrl1P1Kdwrvguzfay11B+HzPNhMY3Ad53ay3oHqyfK5RQ/jcAIxsNMqqIcUO/iuWHAm/VMSlNULIJ/Hu/YQbznebDebsCbtTJqHXS4XHo3b/PRu51d89YZDwefN3LnytqguVWZlwdaR06rcNbSdnU9IGDjk67oTuwOisMwaBVMrT5iRv96kONtvwSoByAx7T4vjLcvhN/f1iD/U9JwjzjBsdG38XqGEuaxJQjGL9p9VxehP8nos/xIWCrYGSbNzsbRVyVjlaSJcZcZr6VWvtZC+L4S8EkHa5erQF4iSfbVrlPViwD436fxR9LEDP86491JIrHW8wGL81kDXcBHKhWFwB8wsQLzRuda0I1r4HEM8yN0kB2VB2uzg7WHgPk1uRnAZzjM7w5sVv8omANtiRCylzbMfIK9yjr5Uy8AKC33KOVglIgO2mT4wNzrVP8jrLRmYs0yPMIWB4fWzGTNWlbk4zVcERg1fuTTuNTr3Os/tE9LuNRFrINwDPny91nq6Ot82ujyhYfAqCUpqU7ZYNhFpiz5GjDdDBkMBocjqFOyfP3hZ3m+CQVPPY9gBllY7LsgkVtCueJbv4pnM4fJt//9MnK2AdBrD/t/xlT2jPzATDuarqEHjQdd4TA4d1+FPewXk0QgVKkH006lvdGuwsKE64elhtAGBtpHTphIU5I0q0AlkVaSGeiLH72uV7UOCKtQ6d1FPdUhlCARhs6Ou2J7sDqhGjwlslkGGze6Gj0ZLJ0tPL/JMZ8MCa02qh/oECo8QvwYub/gDHPXNDYqeAeowxhjXIg+HfcltvJdgnAop0EYUvc7HzLNxXt21GZRo2kh+tuMKLaz4l45hTC5qAvbF73SGW3b3YmAW8mbu6YzitXmrUPiGfDg9twuu4nRPmmTfaQ/qN1j1buZsZvfYZqJBK39StaXh28Tcu9YPzKZ+ikJvi21nRDbIK/A+s0nybj5rqOlSMtV4EoRwLed41WNoJonmmj/dM6J+af1TGWRSQoG+Ab25ry2ir9gd77YVyfvxPADaUjM4dLJOUQ+AVXqXmOa6Qlx7gl/p9UYGtwEgkxB8DdTT7ToQ7A8nWkt+DTmbgxtwzA/cXDLUtlg/QIMS/yShUWdZRliYiNf7ouImvJ/jHTn4gRMTMkNujdr35mlJ6jjIPgPP9xYjxlPub4eyQ0BUtJQnoSQbwKoFFKPQOfJR112SKjKjwwYVakNeiEDwamQndgtQqv7HkMwPmR1qHTcmSWJE3wUyC966BOZNEdWJ2Q3huX/Q/A/+rfu0ZbLwPzfDAmR05Vy+EYQ755zZJ5vmPqGMulkiAbC9wIakmRq8hCjFuNW2Lf8+1a5xqedTGixGyNcYnNMzcAACAASURBVA8YzUUDdVwkokY+MAreIRYuStIsKQaZ5jDzn3DG7y8u1LrFzQnp/GNnJbHmbXTzyKDsxE1524O16Uqz9gFzo6eQDJ6dXODcE6zNYDFvcX4G4DP3SOs1DM4B8yeu0coaiaR5iRtz/1PXVOGmU47mDkjSlrytAP7PNcoyikA5IHrVPar8YZUtNtMW5xvk4ySKkqXUSOsNRO+tThXAPa406xJIPJdATrmywuoaaV1cfjL2mX4bbccBLIi0Tp32pTh2xgUQvBr+DTYYG2qO1aRHRlVw1NZQkd4EcK7fIjVGw82E1WdNfmxpz8xrwEiLtA6dsDKoNCFzeNLRvK2RFtIZYBa/AHBLpHXotI4aGTMAjIu0Dh0d3YHViSkbkTlWSPJ8CL6qzcZ8Iw/CE710yuFmXrPkSP3fZaMz+wuWsqHhjxzKxL9w7IPPz2nTFsc79X8Xj5lxgUGLmgWIeyHQNSRzBVXE/fRdCM84pcZE4Y7ECxJ3WsZgJulhgKawaNF1UiPAtyZ/0cri56eBYZPc3ornAXSvHyNgnTG51I4gk3Z4yhTZXcIvgBs6bzH4P6Yt8cvbJDZQ+lorrg7jFvuHDHzkHpl5LbOUIyD+rY60nIqaNG507ADQULOm1naKa5T1JuPm2NW+jt2gaWORdVNt7bBrSkdljpdZng/waneast1FYp5xS957VOskUgHAUxOlUYzXS6Bl7pHKhVVHq59pS0TdKdp4FEwF9gOoS+EULGUD/Nf4rhVZ7lHKwv+J4ytHFqzwnNGIzlnBFkyLkqMMrzFwid+i/xlkeUoSQnC9tiPeCvkpAg9vNMioAqTrLy63/xghWeGBEdIHKTodEwZdB0B3YLUABh6GXgC8M5IVaQE6OoBeTLJT8l2a5Tx3mvK+IGk9mK86dXPalpcvobDX8CoQjN+aNjt8aytBHZXR25WmrBSatAsCN4Mhddx9oGIIutPYPXa9/3lQR1iWGrxRB8BIB6Nrm+bxdyK2evu2ObAApkb2qK322o46wpLmSrO+xZC3g+mmANeJB4zvmx4LzqmLxAkZrhEVD4Ex2WeeSgjt9ro6YsHZLDYrYEzw1U7AM212AAX6PLQSAti0Je9d0xbHCALdSEy9CPSVK035xJ2mjGlknikfjK8h+B/utIrt7hGW67mtP04ZDU5jLbh9AICkzXnrjFvsV0Ljy0E4BpbecY9UNrlHWq+pX8e8c8kREtpAMD5nxmMxPWL2qyOVe7ekTQs+TF74aRYI2qGVuClvn2mz4xbWeDAxNrLAU+ej+96y0Zn9g9an06k4LyE+n4FJfsNehrgp8XBuWUREBUlpgsVC4Nv8x5n4vqRj9g7b5TYYinsqQwBqfVkHnU4HAddFWkMnIvrMq+h0QPTzptMh0B1YnRAPw8wIorh5+7ID4N8bCxyjkgocH/gucI2w3kFC3gPgdvjVvuhguIgx7QccSzF9bV/pW49ITbPmeEDFRJQFNETPnE20NaKrLZSNyByrpikfENEWgK9DU2dINYAnSaNUAD/4LiDGOmMf19JQ6ilJs6QQwa+gOlmNX+cXBWvTPUIZQoB/Gl4ZmF51jVA+dI2yjArWdighgI1b7G8YC+KGgvhmAkwMbHCnKe8zbBIAJBXYvzYVOH7FRBMJ+IGJ3ihLUwrUEcq1bXZkhQjTVud/TVscl7MQV5JADTN/4EpT5tcvN36dX2QqcNyugQcBtIYYT5yP+H2ukda7eLKtQ0Qrm7c6dxkLHH9gCb8EkKx5YIy0Jp3wU9rTcguAB/zHCWRJPpr/ZQQkBY3a0zoBwGL/cQaWJR/NW9n+isKLxDw10hpCyHEAa8B4AmALiG6RSJoEltKIRR9i0YejpIuIRR/I2qXEGCmRNImYrgJwAwOZAJYDeB9AIYDKSO5MGBhS0st6YaRF6Ojo6JztdIgf5TpBEGrXwum7vbeGXUxkMxXYX/ctbL6/7/SYUyk5zL1xusLboaBtx+dbEC8qr4p/NrXQVhPYPmcQEN+mWc5Ea/ehrTWrmBqfdW7/Gliu4ZZJIJorgCubcZ+dINAz0Lx24/b8b91pyhIwhvosr2Ci29oSFeUPT7YZ3MfKXwA1Sg/9xPi1/algbRam2qIZFS/Cp1YaAR8kfh33f+7h5TcxUTZptNE1QnlfSCI7qGiyQBF9bYBgE9iCVTxlymvuYnMuMzIL0r6TUQBRMiw9IXnbY0fNW+q6Go5UJrPAfALedY9QNruZs41bnR+1eLKTaPrfKURXo3lr3r8A/Ms1QikE0BMADg5RYr1R0ujEgtz/1NUeu9k1UlnEgmzE/Kz7eMVsdbhlvqmv69VWXVvs93eI9kHStFLu0L5/nVBRnJA5FMwrmvxTZn7VfMz518ioCo7S89IvYq9Yjab//9edOBp/1qWm7Mf0GHTuOj8CoK+I+UNJEh8lHsn/hkL465Nhk9Rzjw5gTR4N0P8j8K/QyYt6SzU8CcBrkdaho6OjczajO7A6K6F2LbSi5Xsz7CNGTuK2uH/4pj+VpqVfREKeDZLOAfDnNthvOV4E64A7yMxLREL80761kw4NyIo/GSseEpr4MGm7jyMh1Pvgn27UatoWMUVggl8bwvZCHWa5iogeATCpmeNaAcJT0Ogz43b7pwCgplkmsoDiuxITW8wFjgOh1OY+VjEboNE+uo6Q0O5uyw/5+OgKm5/jTWhCzCXYBLbWOolcRUm3EHiepEkFruHKWyRpNmNB/s4WTRDo8xyi80mrV2vuYZbdTHTKpoEMf3WPULoITc4xb19aaNzi+ALApNrzKs1n4EP3cGWdgJhX50A6M/6aGUAoK+MwTkVUiijuKoT4tzrC8h9QbZ0v0xbHNwBuLBtmHSYIOQS8UFZknuMaruQYt8a9dsY0T/8HAeH8vtA5K3F3zzhHA70JoJvfoh3Rsd3vwbFIqAqOLZgWBa+0GsBFjRYwDkpR8pRUNPOwqBNj6BF1HYBzIq0jCH4ixjMMWpF0zFESrkkINoGfsBvAbgAvMGxSSUL5RAm4A+CbAPK/7js8TLoDS0dHRyfc6CmEOm2DqZiZ7zD2VS81bnO8Wn9TVzREOd81zJonCcMBAk2XmDtyV75DYLIapLg+5m3OZfXOq4NDlFj3CGvWyW6iGIyFkizHRVroaREhjsBqc02tM0wHUOkw5Teu4db1RPQpmtZ3AYBjYDwKwkPMuBJSrcPq0ICseNKkF+CTgkqED0xfO58JpcbSNOsIAHP9lD9g3J7/bbA2y4Yr49C0EKYkSdIa13Cr4/vhs3vR6tWaeav9RWOPuBQC7gF4BAt5m2u45R+lI7IGBjt3uBAMYsYUkrQdruHKK98OyRoAAOZtzs9MW+3jBOO3DMQQpM9dw5UvXcMtgc51xCGm4SToK9eIhjpfidvs20xb7b8D8xgGSgCsco+o2O4ebr2ho6RH6px9MGySRvIrAHr7LToisXT9xd/ZTkRCV7Cc1zPubwFqQXkkSfqD6cfc7yIiKswQSVMiraGVVIPIwdD6mo85Z4fTeRUIgk30Pur8b9JR511er5TMxEvBCFkjlnZB7zapo6OjE3b0CKzOSjhdCy2wTYAK8ML/ycdfGFmwwoNtteNlo2efyx6PlRkPAhwb0FbbUhRbRsuOz2GAnV08J/96fuETFfWD7nEZXfmE9JcaopkQfMGptX0Th8LdoS8S0RV+54UhwqKCASobqlznlvCIxBiBwH63w0S8jIH9AGVAYFSdtM8A4ERXziNwb5/j9KPXQFNDmd6wv+/0GEnjF9A43eU10zbnqmBtHhyixNYwGjneQLQTzIMZ9BaB7/HAc69rmLJcio5y0he2nwD8vTDV9lJ8dPldYHpYYrFTHaaskkDzjdvs+wNO5J+uFsL0tUY2G73nTUTSy8w8W5PETa5hysuQaYGpwH4gaZvjAwY+dA9T/g9ADkBfuoda/6WRNi9pW966Zu37FnEP9XdGgAgvZtxLEsuk0TwmbHAPUz4QEmebv3YWmLbVdTUcljleYimHwa+7hinbXCSyjVvz3gt47fmfg3Dq1zmrKO15fBEx/cpvWIBwi+moPaRRpuFGTci8jZnu8R9n4hmmI/avIqEp3NSmD/LVkdbRYgh7ZYgpxiMtjPINM30rHD8AmFUcn/W8JGkrQRgbaU0tgjCIYZNC0olXR0dHRycgegRWZ8SD4Dvdtb0D3rcQdP9xT1x/4zbns/Vt3NXBs3q6hloXaNWeEhaYCUZso+38CbX+QF3Xmn8dIwFbdUx1smmbc1G982p/3+kx7qHKg3xCLgIoD8wXBGm/7efgzHNUg/E4GBU+Y228RfbrQiikkN5yM2ySa6j1JvdQ63YG3oTACP/9IsYPzJhFjKkQ9EsIehWMUb7rqEOUa4l5auPt+N7kzfaDodQb3S1mARiDfOb5XoqOuv9M252OGiAXjH6+nycGZ4IBaCKfPFoygOVgTBfVnmJ1qDWnZFh6Qmqhrca01flUdUV1X2LKIMYVzLzLNVR5rnSIknzGiUPtPPHvsMcAmKqNW+3LqavWB4wsYvwaXt6tDrM+UzzcYiaATdsc7xi3OYaz4CkMcaHE0lrXMOVD17AABesDfeZCTZPvPRamrc5Vif3VQcx8GzMGkEabXUOtb7kHKUMAIGlb3jrTNsdV0PhyAo5DSO+4hyib3MMauho22AuDZl/7Iav0ptORKElQfkdMTWtCEeYmHWlFLbkOQGlC5nAGBagXSC8nH8l7sv0VtQ+G7tGTEe46maHjgypZHtVRnFe+9C7P3cvH4n8B0BuR1tJC4tw9Ks/8P1lHR0dHJ2h0B5ZOSznIjBnasbi+ph32J+uLm+8fM727e6hlHkneYoAfCXth8zbAQDlAC1kYko07HDn9Ni4/DgBb0qZFqUOVe2NiY/ZzbYeciyMs9XR4ADwta6KfabtjOoBTdUO4rbfLLIUlnoMn2wzqEOttZUMrCgH+B8CDA6z2HcCZEHwHEa5h4E0GxjexBe5FRM/4Db5g3O58M5Sa1aGWiUSw+M5CRFMTNy3+KVibrqHWq0G4r5FNpqnw8pH6AWNh/mHTNsecKCmqNwgrCKzIbChxDVXmHhqQFd+vaHm1cbt9OXXT+gCYScBvJMJe91Dr09+lzTQFqy2UGNfnnzRtd+RFMXozMJeYrzMI2ucapjxRNiQrkQA273C+btweP4QItzCjN5g2uYYq75YOzRweaf1AbZ0v83bnS8aecQMBmgqIYSxjq2uo8k91uOVSADDtdP7XtM1xOUu4iqi2q6E6RFmnDrNcFWn9Op2X4visAQR+EX7xdQy8az7ibNK9ryNTFj/7XNTW8Orqt2hbdLe4eyOhqb0gwv9FWkNLIOJP+Wj8jSk/5pZHWktzJMNW9ePR438C0LL6iRHGC/SJtAYdHR2dsxk9hbCzEu4n+w0cAvFSgyH+yYsLGmpu/JB6f9xJudt0OgmFW1Kk1Ndm+6cQVjLx36IMsF9c4DhVBpon2wzunypuhQdzAbTuiVk4jz8QKEXRC+YXBdHCpB0+dSl8dBAjvs2h6777RW1LISxMtUV3l8tvcx+umEVAn2YqdLnAlCuId8uQ5jBx3unSMwkY5iuSALWqa/VDbdHpzw+p98dVMa2Ej4OfiJ4xbrN/GKxNdfCsnmDv3+F75RO/YNzh+FgdbEnzv54u2rr4EABrSarVaZAxi8FzTsaIGepgxR5DePzC9Y5KAHkHhyhPVzMeBLHV69Fudw21PAtJXgTN7yCGIxroDJ/pC3c4KgEsPTQg64mT0doMEGUKiDvdQ5QVXo0WU6HtILbhVZ4y5Z+uvXUF6yEVuIYobzFrzzbtuhZi/S0osk5f2LwAnitMtb0cZ6i4kxgPk0Y71aHWVTK0+Ynb8/aZtzo+B/C5e7Dl1wDlQNCnriHKV2BUNunuGiqqAb0J4dnHnvOy4iWv9iaA7n6L9gky3BbKFOlww5giuwzVr4IpyW/RYTB1uhperUbCFR3+bDH2RHXr/vuLj9g6fJ2pkVjh2e+d/qcoQ/QedPDC+DJEUqQ16Ojo6JzN6A6szkqofxj532gRDjPD0ZVPLPetD/Vdmq2bt7r8viqimcToFfR84fxh50G96+EkQE95uWZp72+W/e/U1FOmyK7dppvdP1XMA9C3xVrC2VHM32bD3xoRXoWmzTcW5hf5ru4aavklRKPuVFe7B1dsdVHmXOOOZmrynAYCk6+TSQqyiPv+vtNjYrpF3w2umMlMzUQFUTGBlwhBu0jihyXG40FkQAow7qiPpAsVVVI3B9j3CSoVx2iVlua3aAnacjASfUeIpd2n3jSz68mF9oMA0t1DM+wspNkEmu9hZLoGK0spTnuyzpFV5yQS6WDKgBB3AzgOoCEdRCD08bYtTPHrtTe3HMDCkmHpj0taVAbA6bLEU11DrE9GyYaltHrxIQAvbkmbtuqC6u63QcJcBl0PRsNnLlw1sPw/c83MURdx+vT+vtNXdukacw+YZwtIN7kGW15miAXmnfnFxp3Ojxj42D0k81qGlEOMy8AoamQ/lN8bp9Gr0/lggFSveB7ApX6LKkgS1/c5vLQT9RwE1ATTUjD8a0AJlsQtyYfzSwJudJZQFj/7XC/X9I+0jjPgkSBu7UyOxH4Vyw+V9rTMBeNvkdZyOhgwR1qDzmlgVIFwgIFiIqoCxFEwqplQSUwVxOQBiS6C0JWYDEyIJ0YsEfdipgsA9AJwHoDoCO/Jz41yAEUAVCJUi9omTydBXAVIxyQBwYRYJhEtMWIEUTcJ6MGMC1B7vurPm/747yxAd2B1UsIRjHAKCY9Vn6j+oF9Rg2OgJMnWRYqrmOapqZgNogtba789ytnUQxA1AD0Og7TYtLWhuxHDJrmHVPzBtQfZIKS0VoP/vWKYA1oEg1YxxPzkHc49vuupQzKvAKQcFvDv6AQAQ8DSO67BymaXxHNN252ftHR+wdTI59Xa/fsuzdbN46mYBoaVudk0zL0gWkSa2C2I5kLiFcEeRyLKN+60fxHk5gFxD7H+SjBP8xkSkMTt5+9scOK2FnWI5UYw3+KznxrQnL8yMHVdDx88kDoz1yBpjwBYwhWyog6yLq6pqlpR5yRaUDIsfbmkRWUwON13+1D7OgL5k860D8nbHjsKINudmrFMyLIC5uk1Xs+96hBluVwT5UwsWNxQsF6uvJuZ59RvW//9FHT+ZgD8fXotuQ77FS2vBvC4e1zG37lC+gtDmgnQLepgZaVXyAupcKkLO/LeZeA9dYj1ejD+3Br7raGjB3fotA41wfIwwDf4DTMx32U+nF8YEVFBUpqg/B7gTP9xYpqTdDj/40hoak+8Bs9YcMd2LxOw0HQsf0ukdbQWPhL/HCWU56D2RrRjQj7Nf3QiiQbgGzCtA/hrEB/wSijqczivLBTRrAd6zuxBNVVdQqBTpzHVAAoA2kAQ21lCkbdGKqpr7NBm9sdN7xUtx3pDYUsncugOrM5KGD1Yph0NXdYKU23R8VR5N6NiDoDEoOdtGuEVNkyFzs0ANte/Z4DUQZbfu1CRA4FBQRsOdwSWD0L23lt3w38K12DLJME0HwKXt8DEKNboY3WQskYiesS40/7lmTepK+J+6l0zSX9+7BmQFd/VwPd5qissAM5vZrVviPGoF2K3gaR5TLQSALXhOH5TfbLq4aC3DoA6eFZPIbzPovGZdpq3O9cEa7Mk1XohBDcqVMygpQSe3tLoH1/6FC51AZhWOkRZTBrPAyEvuktMlmuQ5dFyjn8ueZvtlJOIydC4FlMoU9j8PVitiC4yFuYfBjDn++Gz8z0eTxYzZmgGzwNqqvUxEeXJr9uHJ0uSbM9HdamO9Z2jq0EzAtgVkn3w1VyO2mepLTxGxvX5JwHkHxyirKjW6AEQWw2k3V46SHlWlrVFtD3/W+ywvwGgofBw7Vxj1MGWNPNOZ0FI9HfoW2SdlqL2sFzFgK3JAsZi87G81e2vKHhKzrWkQOOV8Ls6CfyO6ZgzNzKq2hmBcR38s/mdOBrfKc9FMmxVJbC8QsCMSGs5DR06xfEs5ziAd4jpfcDwmfnYkiNn3CJI+hxZegxAp4qM7bAwDoLwBggfyLHiC2NZ/slwTdWvYvmhcNnWaT90B1ZnJXQOlAoQlpMU1ajDy5a0aVHnVcXfTqh4hDkE4dDhDcHyAvRyoAVqqnKtC8ghRtuLQ/v660PvwGIAp7ro+TqvSgdljqfaiKsrg/hNPFEwf6EOUj4XmpibvDtvQ7NrNumCePoUwpJh6QnkMUwniBkAzm3mmGxl4oXE2MPAPBnSK8xtTmarEaBb66JhQgYJ7+MMXOIzsrOmumpuW2xK4BXgRk+Kt1UiNicOFdMbrdhKZ0RdHbQ73QOtiwTxPCZ6PA4Vs0oHKQt+jDn+orEg/zCAf/rYr2JgpitVidGivHn+ztGgaGNdO986XxIwC+AsyWOYXppqyavyysuS99rKAVQBgNBEkSRJPwC0TU21Pu+F9GidMy80+gO9bwF1db5y9wzIerJblHgIDIvwynepqdanBbCkLgW0FkFLQbwITJtLB1nfkcHZxm8cO9qkX3+G2OkpSUhPYuBVNE1r+Jf5mGteJDQFy57zsuLJI94EceMaXoS9NeTpVDW82gTxmEhLOB0Msiej49e9ahZJfAwhdWAHlqQ7sNoZBn8FoicNseLtcDo/dEKKAPAuS+LppMNlnxFW1/ZVDpvLUedsQu9C+PPlBDEc0dFRvc3fOOaYdzY8pVAHKX/oVdV9N4GeQcfO5dcAvCRBG2gutDfqaOROtf5KTVU2AXgXCIHzKpwQPiSSRicVOh73HXalWka5UpUPiaW1YFzZpjkYV0qStF5NtbxXemlznd6okQtCQuAIrLKU2ee6Uq0LJI+hlID5AM5tOh02guhaWRN/JEG/B2gHQDchJN85lJ1caN/WdjsNqKmWGxm42WeoRgC3tcVJVjpIuRvAtT5D1ZKk3VbfwTMUGHfb95t3OW5lkgYDvIEYK3pVdd+tplpv4ylTTt0QR0dHjSDG0wxYJI+hRE21zNvfd7p/oeiIkFxoP2gutKdLBq0vgV8l0NyuBlGipiozv0uzdQOA5N15G2Jk9AYwF+AbDND2u1Itj7uHZlxyBvPtQsre3HLTN45HvV3kZBCWAnyHBD6gXqpk169j3mVfbeoVN5AYdxPzUMHYqg5SXlNTLf41j3R+JrgTM7oSpDfQNB1Kjdbwx1M/6DsBDFAXr7YSxAP9FpUT4fp+h0Nbq7CD05E/0/+L6Ra3ItIi2kKsXL0GHdoZKjpsN+6zkPclFqOSj+ZNSj7iXKU7rzoFXoD/LrHUP+mo8/fJh/M/7kz/63Q6BroDqzPiQUP6S+tfVQAtE6A+pl0Oa10URGMYWWD0acMcgV/1iDbbEgz8Q0g8yFzouM2/uHlpijJOMH8Exqiw6Eeo7NFnQohx5m8cvzF9k9uoFoV6qbKImTYy49ehPQ/0W4JUoF6qvK5eOjO18T7VpRAG2l8ARUOU89VUy1JN8pQw8yNg9Agwx1dE9Ev5mPYLFny9JkmFAP4MhhyifVhjKiy1N1UXPCWp1gvB9KTvPMSc0xYnWUnKrCQSyPc7ntnGnfm1hdUZDRFv9Z9nT/D7kPRN7m5zofOPkqYNI4HtYF7pKjT/o375RVsXHzLtclgFqA9AL4BpdnR0TLF6qTL7h9T741o9Yf1n2JcA10xrMG7P/9ZU6HzQC7kfM94FY4mnquKK+uUX7nBUmgsdS096pWQWvICZbhYeuUhNVfJLUq2trsvXZB/aqB8A+hQsPWb+xmGToPUmxpdAQw2skiRbF/rC5jXtcjx/qMvxAWDcD4GxYNrpulR5pXhA1oBWTRYCvTqRRVRITwI0otEgo4oYN1xc7vyxmc06JK6EzHkArvcbZmLcZT7sDE3abydg/znTuwPN1oCMPEzPdqbC7YE4/9ATFQC+jbSO5iG9uHf42UYkTUw66ry2M9Zy+7lChE+EJg9KOpo31XTMfiDSenQ6L7oDq7PS+hv/GmY8IXm1vuZCe3p9agvDJqmXWqeoAy0N9XLa7mBq+mqSnhbUiwG8QYyhSYWOPyXvbChuXpqSOb7+b2KSQq4/0M16kC9ifEGgSeZC+9W+KX0lSbaGYpAC/cCgNmsO/CIwbgBrO9QU68vugdZ+QG0XwsbnrDaF0DUg62J1oJIf5UEJBGWBEd/UJv1LEjTZvMsxyfSN/VM6J+pcYtwJhiGEusvh1W4P9ZMaievS/BrmWW/c5VoarD2GTSLyrmx0nIC1pkLV4bOS/0Yhwbgnf6dpt+MGYrwNpp7142qK9bcMm3Qq2smr9WXGP8GwnRDdiksvtSr10U4thv3+DtE+9Clc6jIYpHlg1JW7r4uovFR5qCTJ1iVlb2550m7nQhHt7Q1QLgTukgQfcKUo9u/7zu4QnVGNhfmHmXmnr025a8VHpQOVhergWT1HFqzwmHc5nq6pqe7HAjOYMVmWRKE6UFnpGmTt07zl8OjVaX9KEpR0Bm73H2ei+83HQlAjrR2preFFTdOtmRaZjzlfj4CkiBHjjW6dI7qdERJei7SGUMDgkkhraBZCVKQlnMXUENMs89H4UeYj9rWRFqPTYo6C8GfzEeevepfn7o20GJ3Oj+7A6qy0/KbfA8YzXknul7Tb8YBxX/63dZuTa6DlOjWlYisEv8a+qYLhdv603kHGYHpXSDTCvMtxo2m345t6U6UpmePVAdbPCdJnQR6f4PYhOBtrWeAK027HL0y77F+d2od+WQPVAZZ/yF0rHw7BHK15SQDfIph3uQZa/s6CTL7LGWQqHaD8jUkUg5EORjd/GwR8xCwmkKDbGHyjOnhWrdPkROj1MpBh3pdfjBBSOsB6FwSu9ZmnUgK1yUnmTqlIJ8blvjapxs9moOsphDBDa+w05uddKRXbS1Ms1zNAxn353ybtdjyggfuToHdI8CJPZcUBdYBlRiNH6mkn8XsfyiLx9ddPvWkvnweBZVKXiv2uAdb7ClNtKRCrbAAAIABJREFU0cnbHjtq3mXPliQtGYxlDPylxuApLk2xPupOzThzDRL208wIbU0pvwgvZsQT42F4vCVqipJ9oPfMHv2Kllcn7XE8LpVrfQEoYPoVe3m3a4DybPFAi/mM+nU6JaXnZI4ncCAn+fLko47n211QGyhJSE9iwio0reH1ufmYmh0JTZGEZe64DizC3t5H2lB3rwNBLJVHWkOzsO7AChMqC5pkPuZYSrDpFSA7DbQFTCOSjjhfibQSnbMH3YF19uIFeCWElmLe45jmW/C4dKDyG1eKspmZ3iJgSCRFngkifEQsjTbvsf/ON6XL1d8yyjVQ+ZAgrQXxFaezEXGINxH4V+Y9jolJex3/rh92D7T2UwcqL5EsdoLoJgEOb98ihpuBQC3MDcx0F4B7G6/PS4lwP4CYJpYI7xBLo2pqcAcg38gkihh4MKra438TEyLo3aTdjr+H0mLxQIuZiPMbzUKcZdxt3x+sTTXVcikDjzayyayYijpEqPQlBHrDNUD5Wk1RrmWAeu92qua99nsgtBQAn4DIIXWpKHINtNxfmGrrcGkQBGxm4sfjtIp9pQMtU7ekTYsyFuYfNu9xzIn2RvUm4CkCpwtNLlFTrDkHes/sEWnNjaF3AX4RwGxDtFbsSrHM+SH1/jhjWf5J827HY1Gxsb2Z8TATficz7VMHWp8s65uVGGnVOqGj9Lz0iyDoddT2vWyAsb7yaLwSGVXB4VPDy78Oohqt4U8/y7omTL0jLaFZGJ2qo+VpIXTkWkcduwdlJ4SBnbIsJiQfd2yMtBadlsPAu9Hd4i5POuYoibQWnbML3YHVWWk+UkWA6RUZItW8x3mnb8SKK8V6dWmKsoEE3gcjrdF2Wotst18EE/A5A+NNux3XmPY21Icq6Wcdpg5Q3mWijSz86kO1xn4wL/8uhGfeh60AXWve7Rxj2uP8pH7T0gFKcukA5TkheBeET30o/2iQ0B//H5L2OH4taRgLxldB2BBgvCYxhkVpPJWhTYkyoJiYM8DoGsZz8INmqJmGEMKwSbLA82B095nnU+Nu55PB2tySNi0KXnoRjC71NpnxsXGv8+kAApqe71AS4FwQw8mMKwBUgvGua4CysbS/5dcAYN6XX2ze47hDhkglxpcsaHmct2Kf2l+5Z0vatKZPkzW/OUIZfXWafTjB0u2Q5CFgbCZBK3pVdN+tplhuZ0yRLypafMi0x2EVMvUB0/NgzjJEaSWlAyyP7BmQ1bSobrjPAQLYZ/xg3uN8yOAR/cD0GjNln/R2KykdoFgPDlFiLy6wnUja67B3lU8kEzgHgv+gyaJI7W/5a+nA9Iua6NefQXcqtmBaFLzSagD+5/KgFCXfmIrQNXhoD86mGl4hg/3ObYeC/33mdToL3MEeTuiED15bbZAnGH/K78B1z3SaQi8nHXVd39lr7ul0THQHVmelGecCNB5s3mv/c+KevH31q5YOyPqF2l/5igV/QgJjmnFunM5221++N3KnSSFk4EsSfLl5j+OqpD2O9fWbuAYqg9QByusS8ddgXAv/+lBnPj6hcAC10D7tZMb1pj2ONPMe+/v1mxzoPdOk9rc+TYy9AetD+RKOOmR1cxj3OzYy84ut2E4D42UW0iBEG/7CoCkeUDGYssCIDfd1RMC03t8s+x9CiGtA+XQw/cJnniOyJt3dljbvvcp7PAI/xzAxLlT7Kdc0WTnQsQolgQqUCyBpr+Pf5r2OiUT8K2YIAn2o9lfWqv0zrwCAxD15+0x7HbdA48FgbALwVK/yHntc/ax38GSboVnNzX0O2wKjqdMYgHnX0kLzXscUjcVwML6BoOdd/c2Fpf2Um0/V+dprT5dY60vMrxLT3K4sitUBysyDQ5TYgPoDvW8rzdX9A3DJgTy3ea/9PkGGAST4XWIsqq6iA+oAJd2dmNH1/MInKkx7nItqtOpkMBYDdBtphgOl/RVnUR/lfFSFQa9O2Dm3Z/zjAE3wG/ZIkvQH04+530VEVJCUJFgy+Cyp4RVKmHB+pDU0g/BInrPpvLS+cYdOZ6RAo6jfpPyY23FTRnUCQG+Yj8bd+bOMwtVpF3QHVueHGfS2RBhu3ue4yVzU0O1H7W+ZqPa3/JtY/BvAxAhqbAnrAHFl0l7HZNN+53/rB0v6W1JK+yurWMN2MG5Axw7N3k2gP5r2xQ5L2ud4q94Z4hqQdbGrv+Vxg0HbB/A0oNPUR/AQ83OSpqXUiOoHiMQfUO2t7UAItEubaGJ+zrTX8U4obZb0t6SAabHvGBNPTyzKLQvWpqu/ZRTAc/yGFwOoJML7pf2VDa4Uyy+DtR9qTHucnyTtc4wF07UgdAGkz9X+ypeufpZJAGAucu4y73P8QSIMZ2AHEz+nfldRWDrAcgvD1iH+b/Tel7fdvM9xHSQeBeAAEV5x9S/foQ6w3Mh1db5M+5wPer1yPwBvgbGgugrFrv6WDHdiRtdI6weA5D1LSk37nXdLmjYQ4E/AcIhuclFpf+XB/X2nx/QrWn7cvM+RgxhDMhE5CbgnSkaxkOWmBbN1OjRqQuZtxGgSScrEM0xHGmoidgZqa3hhSYBFna6GVxjoqI6VPf0OLz8eaRGhoK7T48BI69AJM4yDsix+1+fI0mORlqLTKrZGd4u7Ta9TphNODGdeRafD4UGd65HfZ5ayk4rsX/sudvdTxghgPhhXt9imv1so3E/3T9nnTZKQso0H7I1qM7n7ZPQVsjwPjJvRtDjsaew18z4U+B6jxvb3gzHfVKSu8n3aUJw84wLZEDWLhfgLQGcujB3ufTjdOSYchMBjRBjDwK8BWilkeWmsfPzHKk/Xh6I5xgLGmQtjN3+MgqHkhCSnt9mKDzzZZnB9W/4CgAYHBmF10t7gi0u6EzO6CqYX4fN9SsCbpv2OOQDg6mv5JQjzWaOP1b7KWpYxr1GEVP3n2ROsgmbwj5AKgHm//X0GPnD3t/xOMOUA9KXaT/mchchOOpC3zrjXsQPA79U+ljSSKAdML7v6VcwhgZ1h/87wtaeh9toK4L4273EWAPhNSd/MsRLJ88G82t1P2e5iZBuLHO9S8VIXgGmlA5TFJHgeg3K5q2wloEuTFL9Qp0IGiqwMgPFAfhGA24sHZC2SBGcTeFk0xWSp/ZRHK6LjnjfvtB0BMPe7/pZlHpACxoMAOrY7X+cUpQmZwxn0VIBFLyUfyQs6bTkSlJ6XfhG8zdTwOta5aniFiQ4ZgUXA5khrCBUGjrkG4DDV29TpIHgh8w162mCn47BX4t8l6WmDOmFGd2B1Qsggf09CjDXudzYqZqj2saQBlCMYv2m1Ud8brXDUs/FFACBsBZBtLnK+57uoJGVWkuz1zBWg2yCCvD69CM+NXVPnTAkRFhgviXuJvmh40vBdf8t5Ho2yQHgAjG5tsB9aApxjBg6BKTf6ZOwT9Xnq7sSMrrLoQTVdK+8/4e2WRUCvFs8Run0QJNHtKXtDGzaufls+i5hG+wwdjCK+vy02RYxhMZhTGg0y4Opr7WMqsh8wFTk/AfCJ2s/6W4Dnk4Z/AQjv+eYA9puZgwDGPufbDNu7rr4VNwLIJpLWuvoqH0FwtqnYudl8wFkA4LclfTPHSpByALqpyfUUTgdWoPd+JBflbQBwtau/9TIIns/A266+ypZSQdlJxfYPk/Y6SgDc6e5tXSQkngfGn1pjv9XUfs81fn8Geu/N3QvgZrXvzEcBzQbgybiq8lmlfa0LzImxL9IXth8BzCrqo+QZCDMhOnQhYx0AZfGzz/Wi5k34Os1r2SbHiXtxNBKqgqO2hpf8Gs6SGl7hQCPDSIOgDhGl6osUX13Vma6100HM0yOtQSfc0OKkw851kVah0zqY+f6+h/Pckdahc/ajO7A6Iaa9ud8BOFUvw52sDNFkygH4d+gMz+QN0lOmvbnZvvWGvu2TafRCehhe710M6vgpdkwPHko4tmpkwQoP6nrWuVMzztFq5EyPwAwQ4iIr8AyQdATMc7rFnFh+fuETFfXDJUm2LiKqfJrgilkUyVQIZodpnyOkaTWlfTOHE9O8RtMQpl68L/hiw6V9sn4BEo1+TBPwOAM3ALzH1Vd5wavxgt4lTrU+2knto1xHRDnBzhkuCDaBIrzGsL2u9i3/E4PmkUQb1b7W9wQhO3m/fVudk+iXam/LRJJoQaQ1B8K0z/4VgF+U9lH+HxHmk8QfuPpaNzCJeeb9zs+Mxfb9AG4t7Ze1iIVIOZO9SGAuWloIYEpx/8yhspByCPysq6xittrXMt9U5HqVDjh+AGCJtM7/z96Zh7VVpX/8+94b6AYlUCgtLVmgdZnqjI7O7uzj7M5SrcuotW5VO6IludBWu4Rq7UICXbRqrVbrOu7rrI46OovOtP6sWq2y5N5Qu1EgECiF5J739wdQQggthNCAvZ/n4XnIuTfv+Z57s93vPed9DY4OY5bsM7U9BiZbxKZ6MM3M3V0+ogzIrPTxG5g5Mh3BiMzhNVQM2+VOw1PVgPGmKxeD+ZuJ1mEwhDB2tTSm3J5oGQYDg4EX7Y1lf0i0DoMTA8PAGsFo05xfAJNLAOcT8+Du+A3x7B/i7p9PnQYcgI78UAiJRSHgWgCj4tb3UMxgClviZa0q3dr1f1XegjQT9PniMAoJiL0yTuSMliG0Im0Vpc+EP945w5Wc2ha4hrn5FgiaEpdOYjwHDLwfpPalx96z/1RMKxhFLG1Fj/xjtNlWWfrKIGKOJxZbwN25BIn4AUulp6BmamExj5ZvYMYCWaLL1WnK/SZId1Dlmt2ocj/HcL2g2lq6l5owwCzZAMQnyW7k62cA56LTyHqUv+f6g68mcClASyXmd7VpyrPEcFmq3B9aqz3/BPD9iP6maXbnuVav529xGUO0WWQDwFblfg3Aa75pzp8IgRIi+quWr7wlCEvtle43bBVrPgbwMQAIKZmhBxmgldo05xhLpe+xuCQf7ccyzqOR92nZDgC/8eUVn80kSgDa6ptmvcXHSkluVcqTBNdQz5c1GASa2boGzJFL+XUW+J29aWSVFdfMzsuZ+bpeGwjzR1oOL4ORiS+tKF8wr0+0DoMhRoLDmM054mgXQjKWkBscN4bdNGeDY6NZFqZreUWPQNAHYMwCQxp0tbfwS7U4VY/r/PuEGZfmVqf0SF5bbb85W80rKuOgqGTGjeBO82owf+HEdwz7wDy/TT783/AuDsyYl+KzO28xQa8G4AIjLW764z+GAAt+PLKLbWfNTdLsyrWprc0VLOguMKYk+By0yQKXT6/c0BbliMRMskheDsZpYf14W03kGGTMdWBYu2Oy2ob2QgDI3V3eaql0l41qRh4YS0nHhboQFZpdWada508muIRdLd0HACbwATAqCfyUlqe8qE5znDnY8QLoeT4YA14aTG+4QtYqz0O15sZTWPBcCJzNjB1qnvK41+bsOXOJ6B4CaSD6q5anvOmdpnxvsPIR/rmkI/p7pB9YKj1/sVV3JqxnjJMEXtfylL9r+UVHqsFN3bWyjonOBvMuCNrqy7N+6MtXLh5UwvrI90SM+gHAUr1mm7XK/Quhi29AUA0zHvflNe/QTirMiz2qwVDiTVcuBrj3ZwzTInuT5y8JkBQzXnPRGQzc23sLPWJr8Gw8/ooMTjQqMxy5gsSfAe5/SgODEQeD37I1eP6UaB0GA4Tp/vym0opEyzA4cTAMrJFIUjAP4EsxvM9fFYjnWKq1GbZq92PhMwU0u3KhTElVBC5E77wgwwYGapmpKOlwSr612rMu3FRR7U5na+tYLxOtAPqR3DxxtABYLScn2W1ej6erkb/nMvnyi+Zk1aftAmETA5YEajwCE5bket3vxzNmh1FB4cutBDHPGUx+Ld805dcAzQmPKSS6cnplzypPk/a7W6zV7tWtyZKdCXeAMJtkU6Uvv8i9d9qiLACYUlVWY7GknMqgawA+nYS03ZenPOPLV06LVV88OXv7pqDN69ncPCblJALdSMA5kkQfavnK1i6Dx1pV+i9LVek3GPQLAGM7TCLna1qec9hUP7VWl75sqXafTcS/ZSATzP/02Z1HKkfaKkvftVZ7zpMEvg6C1mUSqXlF5/MwWZptV8vetlaX/piIfwvgNITInmhNBr2pSS88nZg3R9n0vLXR7T7uggbB7tRFEwgiWg6vHcljU3rPyDIwiDNqhvINk6B3AExLtBaDoUUirEm0BoMBo8uslyVahMGJxXA2QAyORnxn58QztsaMa2rTm061Vnke6lqGw5h1pGIMAaeBMW4Yj6GemG8dO+ZQns1b6s6JUk2DQMvAyIyr/siKaIP7a2VGWZCQZ612L5y6a2VduH7N1zKbBW8BOG8YnYM3rVUpHsSRfdnKOOj8EBhyVz/EKLN4PW/GGnPvtEVZrNO9EeNeb690v9HXc075ZE3AVuW+TYiQHSA3C57fHgpd2bWd3nCFbNWlDzSPST2ZBM9jxldYYIdmdz6hWosHXi488nxEnpsYmLHT1W6pLr1biJTpAN0Hgcu3n7VHBjoS/wOArbr0j5Zq91dI4DfElAGmtzS78ucam/K1mMZwtMcxQABbqjzPW6tTzgRjF0CTu/Sr1qIvA0Cu6n7HWuX+KcDfBriWmJ/22ZV3fXbHr3igRlbkOYjTgj+C+DAex8Mg/njN8806S88CGNdjA2NXUGq/guLySj4+MGbJuqntMQCRRmk9sZgZ7bvRwCBeHMial6KaFQ8Ev4nIwgEGn0c+tTSUxZzWwSBR8Iu5TeWViVZhcGJh5MAaiQQRf+sx8rJsoD+xGbuJ6I7AuHH3z9jpaoe3o9lrm2+WkFToA1uhYg6AIc/vNIjj0wigvN3UVh4+k6ZiWsGoJH3UtTLp/8itLv8AwNBcgkRWLIvtGLWBeRNDX2nT1u7tamS4JF9e4JuduYsAFhJ4iCeVDOwYNQmYroh3Tp+2MeQGOP+IFsaHOqUsGUzMYCh4D4DssKaPpaB+S1/7h2NX1/oBLNNsSmFXm2ZxfoFIuoRZLrPudDUAuKdiWsGWZH30XDAWEYkPNKvyuCTT8s4E5MdGoOd7II5H1a66Dqt253YKe/0Ik7TRZ1f0EPg28no0qO4XGHjRZ3eeD4ZLgN7W7MorLGipTSt9t18dMYYsNx/BJVRW2qkzpjxWGifaeZtqK3pBJl6W63W/3/le+YFqLf4+QSxnkl7wWZVtKnipTevHEodolRnj+epm9Fz6bZBwGC5JQ+AR9J4pEoBJnzm9rucMzeGOlm5dFSWHl2BJXGqrL69OiCiDzz1V6QvSJOjzDgVRCGPJ4InEwyPJ4DfogEFbj72XgUF8MQyskUq8P+LD4w3sImsvmFa2Jx/eFL7EbtfJxamjD4v5xHAAbCbg2T77GwoGFj/AwHpik8fqW9XQ1bhzhis5paX5SrTjVhByWZi+E2P8/jG4GSftYHpA1mnF1M/W7A4LQZq1aKYPzS7o1AbgbADxvZAOp6ueYSsG9OlChPl2dZUaTyk+m/MnEUmHgwwx2666DscaU7MUzWbmmWFNIRJ8xYCrifWcITWGwYtBoRs1i7O8Pbl9baeBuqFmauFmluUbGFggdL5YtSoPA7jNpvUjAfRQpveOjM1kYsYcGXS5alXuN4WkO+izNbvh9TzNcD2rWZsvJsZSAm9TrUUvyFKHSdRn/K7XT1c/OuJveoe/v5oBJIEI/GPB+JVmU56G4BKrz/ORTVvzOoBv++xFPxbMywn0R82q/AeMpVaf+9V+9xfP89EGQD7mXgbHGdUcWEbALyKaGcAcW93ajxOhKVZUs/JbMPeqdMmEW+315X9OhCaDzy9euEbL5qYf60SXEofOwzBOL2EwNOhCMirYjTz8IX+7kbPM4LhjGFgjlXgbKAOf6XCAGKuJ9bvDL973ZSvj2kbhRrSKIgATosYc6hlYkf31TQvAdyWFUJqzx3Ow+6kuk2ZtmU2BwBKAbFHjDfUMrP7HDxHjIV023W7Xug0gBqgm13Gej6QSYj6js7lnhbthYiIy0fNWtXRLPLvWLAvTWYTuR9hRZeLlNq3s/2KN+VmOIzcEXhcxrhWWGs//Bhws6uuJ/wnQLcnto2725To9ow+3rp+4u7wZQNm+bOXetlG4kYAiAJdplqItIZO0Ir96ta/f8YfS9O74/10ALxJQqMviSs2ibGIKrSLNtRcaHmPM+oPPYrmMgCVCx/9pFuUZgF1Wn+ejfo8h3kQs2yXma5gohQQWM9EHmqXocVnXl0/9rOxTi7f0rwD+qlqVXxCjBMDfNIvyliRoSe7u0n8cNfZQ6DfuUw8rtHTHL5mxOLKdQcvtfvez0Z4zXPFOcJ4CnR9ExDc1gV+wNpStTowqg88Te3JcY4OtLWcy9O+B6QdA4BsCNIaMz7UTlR1GEvARySvTEd+iSwYG/cEwsAwGSh2AO9uT28oil9kltydf0Qa4MPxzFbQD9CBT0NVrmZ2l5XyNmm8nxknDJG9zXwgAz0iCbs3d3fNLX7MoP/IBdwD4SmKk9R8m1Aqp/fp4xyUO3cmEKWFN2w9mBlZDiy0eA6QlSZuIYQ5r/r/arKYViG4hxYJL1qUbdFkUMdGS1jFjHZpFubM9ua1sUqW7CcDqA1nz7modM/b3AC8whfQ5mqXoQUmElufuLv8sbipip8Xqc5fsOrm4bEyrmAdgEbHpOs1S9BBT0EXa2r3w4aFtZ819LKs27RKAlwL0gWZRntFlaUmed80niR4AE4JWn/u+bWfNfTCrNvVKAEt1WbpEsyhH3ms2zf0KgFc0i/IjAKuFxG9oFuVfTNKSztlaBicYVeOLpjOLhxGxeJ2Bv9n82m0JkhUTuzKLUykongXx+B4bCJ+EkDSicngZJJ5tmJuUnppil02YRoJOY+AMgM5oPxQ4CYA8zH9nGRwvCH9NtASDgUNg47wZJATDwBqpxPsnZGQC8UgIAQhsDCXLK/OrVzd2Ne+c4UpOCQTmoI2WAcjpd3+Jmf3TDqYHJfS84O8yrnyieTkYp/T7DuBQL+OM/rtOAHhG16UleXt6XvBrFuc5zHQ7GN89Zl9DsSQrkn4cHwKuzvOu2x/Pbn25zt8w8Luw/g/JQvzu7O2bgjHHtCgFJPDTsKY2AmYPJmav9xwBncs/b67KWeAxSeJWEN+a3Dbq95pFcUtC75qRtXpXZvHGMWPFPDAvFCTP0aYWPUhEJZaaNXt6xe6KH0+ivX46++is7rh695RFm3U5WADmQmLTpdpU5X49KXhH3vZ1+wFs3XbW3MezatMuAbNLDomPtFzlGYnDDNnwHFhd74c6xI9ox6izv87zumnnDNeDKYHAHDAtE8Q7tanKEx3HubTK6nO/ysDZPovySwDLSYjXtFzlVYmlW3N3r/lv+DHpNZ54EO94BjFxIGteyqGgeBboYW4DgJqkJ1/SVchkJMAAaSH9QRAiC0c0E2Fmfn33d7+BQReVKcrEZImtTGxjwAqCFSxNA/E0ADYAJjDC0m4aHqhBT0jgb4nWYDBwZMn0WqI1GJyYGAbWSGUov/97xm4CaK2Qg+V231p/V+POGa7kVH/gKm5svhWgqQOKP9RLCEOITOIeBGiLSei3T9lTVtPVyABpUzvzQwmc1tXYJ5FJ1uPN0ZdMMYBnIMkuq2/1zvANNVOLvivAyyHwnQEd1uNnIupgeg3EP0KPo0ibrTWlL8Wzy2r7zdkcpPsiZCyY+lnZp7HG3D3FcZIusDK8jQi3WGrcH8Ya82jmCQDk71ntA3BdzdTCUgF5KRgrBOQCNbdoZXDU4c3TK8NMImpXANzIzJdpU5W7kgSv6eWqDYXZcYy8eVM/W1kHwFWZrWw0JdNCAl8vB5Pm+KYo6/SkUJl9+1o/gK1em+tJKdQ8F8AiAd6pTS16SBf8YK8k5UO9BC9KlcAZO13tADbtyXE90i63zAO4GMwXqVOUzTLpd9Du8s/gc7/EcL2iTQ1cAtBSAfGONtX5MgTpveLHcwxxrGpoEBsMkBoacz+h8/ujm1aAZ04NrIyn5Trk+MzOJQBmRjQzMa601vex1Nfgc4+WtjAdCOYBnAeiHEE8mSDlgTkPwHSAx3d8FIV/vRsmlUG/0UeNpn/DsMdHGtVT67tz7hoYHE8MA2skcnyqEDYD2CCR7s7dXV7f3ewyaTnNV5A/sJhBtpgvyI6PeRJi4GGEcJttf6k3bBP5cpRf+gjLw/JDHZuhvJiOhMP/o5d06EvzPivbEb6LmuP4JpG8XDD/sF8xB1tpcqAwQgAekyFW6CAPmMJ/3Va3tpEj3l3K7cmbAM4M6+dv1s9K74o1HsNl0tC8lRhju9vwD8vulLWDEhpuZnS9n6PM5crdXV4JYLY3x3kHSdJSErx+VOuoYm2qc0VtdmDL1O0r6wAs2jtpUVlQDi1g8O+DRDeA0QSgO2n08ciB1YdBNm2/+wAAhy+32M26vpCJiqWgqUCdopQdbpPW2lVXAMD6PTmuze0UuAHAAiJcNeQ5sAZQ5TBnj+sQAPeBrHn3tCaPLSBAESxfpU0pulckYRWprn3YjUcZrj/UTGm5jEFLAM4D0LO0dLyrEBokFF+as4gYF0a2E/h6qz/2fHuJQEtznsvA0l4bGCutjZ6nEyDJ4DjBcEk1aS12XQ5NJ6Z8Ykxj0HQQpoFhYwRHdezZ8YHZUYHW+AAyiBu7Ju13tyRahMHAYMK2RGswOHExDKyRylBejOq4N5mTnp+8b2Vt9+ZZsm+K7VIfNy8lID9sLnj/iC1BeUwI0nUJ0iMS0fLI/FDqJOfPfDKVgPGVQekY6iqEHRe6fyRIyyx71/T4kqiZWvxVXYgSAn4KHoCQ2CtNDhhTSDRwkn5q7u7ySm2yci0IvwzbrAOYfcrBNYF49unLUa5k5l+FNflloqsGk7OlZkrzAmJ8LawpAB1XElyDO4IDNGfsezy7APxOm7RgBct6CQTdk7V3/EJfjnJb7p6Uh2mfqxaAolrneyhoWghgbq/48ZyBFW30xzgincsbb/osx1EaYvkWIl48JlncrOUUuUdcKGxmAAAgAElEQVTpvGHSHlcLAM+BrHn3tiaNuxFg5ciTh6oK4QCX+E2s3dgMYGVFRsFdyaOT5wMolNpxrS9H2ZgkktbQPlctPsOD286a+2jWnvFzQLj4yJPj/Z4zlhAmFDVN+QETr+i9hcqsfs+IKivuNc+3MfA4ete2/Lu10dfb1DIYsXTMpgqdJYhPJ+A0Bk7XEPgCgHEkOu6MHvlYNDwqg+MAg7Yfey+D4YYk6N1EazA4cTEMLINeWPe6jyzBYrikmpzART7QMjCfnEhd/cX+WdnbAN4Ob9OmOH4IlpYD+OZI+FEmQlRgry3dF96m5jjOJEglQojzhul1ayhoStIBoPNuWqWWXZgHQlnP3bjUusf9r3h2XJWzwMLQy3t2g4Kpe2Kf3qzmOM5k7jUjYYVtv9sb9QnHAeu+1TsBXOCdUnSGxChh8P2+nOZFGivLLXu1x6mjKMHNu6cUl4aYf5wonUejcxnvDd5JC1fLUnAJA7e1ySj0TVFWE+l3d+b5WlWRUbDRJI8eG/7c0bLIBBBX4zMWptdvaAKwXLMs3EBB3cHEN7dLwevVKUXrZQp5creX1wO4j+G6v+cz+czdUxwnDWZJq0HiqUpfYAHrT6DXbyj+10F/YGFCRMVIzdTCMXozPYPwqsEdaMk6Lh5JObwMerINc5MyM8afTYK/ysBXGPgqIzgd6Pa+h+lvCYMTCAK/n2gNBgNHyPqOY+9lYDA0GAbWCIUHMvPm6LSDcJ8IhXrkImKAtMmOmRoCJWDMGOytuHC5IrJh8DAxouZSqp7s/I4M3MYC3xnsGCjsp14cj383jIauf8PNq5rswtN1SXKB8Vse8NS3o3QXvzGEiPCoJInbc33uI2NgzJI1ibaCOSVs3/daMlKXYU+8uu58rSK0hRlp3a30jG2v+5FYY1ZMKxiFFtrK4OSwZgFguTZZsevglXl7PTHWNOw49hSWI4SZB3QhYf+s9D0Av/ZNLjxbQC4B+GFtsvUWLzlKbHvGP0WfuXYDeCAsvs6Mm9TJjlZZ5rtzd5e3xqo9XDM675uyAHiAU4zs+1apAK6umVq4MqTLS4h5DUhStBznyvax7Zs6q5w2AQCBNMGiCRJ/qOY47wqK9tLp+zbUHrWDYyEYAhHnYICzpKy+VQ0AluyesmhtUG8rIqKbdUg3enOUctEql1OD60hWDwHcRYJvDxF9pOU4H4Eullv3l1fHKr/jNRTrsw1ixQvXaHDgaQBZ4e0E1ARD0syzMYjCDglANEt3A/hyj0bGYQLOzwl4DiZGlUEsMGbJvjTLGSCcw0TfAvOPITit61PO+LgwGI4QkXFDZwQi6TDOm0HCiHcmJYPjBQ/6LwjB9+lkmm7b47kx70B3JTh1kvNnWrbzXTA9DcaMOPTVe/lafGIyM15iSfqydZ/n4rAeoE5UvqFOdv5NYvyDGd+Jq/74HP/uP8H/gqAf2vZ5PD3GMHn+qdok5xM6Se+BMRMMitsY9LhoDxHjQTkkTrXu8czpzNfUrT/bUgSmb4Xtf1gSdHlnYuy44ctWCiDwg7B+9iUTXz+YmEnNybeBcVp3TKqVQ+JkCJQw8wUS41NvtvPe6slOa0wdMI5d+bMfWPaWb7Ptdf8COn2TwbtJ0BPqpMB76mTnTA67XmHWvw7Gy2BarYekKi1buclrc42OrVd0v366EIh5DLm7yyvte91XMOE0MN5ggbVJzcmV3snO63fOcCV3jLP0LVkWdgLWQeCGJCRXq5OdK2qmFmbEPIZIYtQPdCSst+8rWxgSlAemzSS4WB4V8qqTHUfyvNn3uLfIJjGNQQoL/JRJ2qVOdt4X02uorVNvKHbNBrFB5qY7CfhKRHObLsQF05rdBxIiKka8ZmU+A1dEtjPRPGujx1jWMwLYl62M09KV87zpzns1s+UzJmxjYC2YZwHhN3UMDIYnLIUqj72XwTAjaGlM8yVahMGJi2FgjVQGYzoIPEgsTrHtL5vbWe2sB8RwATgjriZN/PR3Xfz/SQK+Zt/n+VXnbJQj+CY5vwLif0PgR0M2hjjEI8Z/WeCntv1l59j2u3uUolWznYsh5A+YcREY0jAbQwiMLZKQTrHu81yZW1ve68eHN6voDAJKIs7ZYsv+QVTui0J1TvHJDLGy53GluTl7Yp854Jtc9G0wnD21ixtya8srbfs9dxwOyXZmchFwviTwqZrt2OSdNN82oE6inYtBYDvg/o99r+fHEknfIUYdBJ7Rsh1HZqDZ961Vbfs8V8u6OBXAqwwuo0OBCu9Exw1dJtGAidQ8yBxP9j2eXba9nt8RxBfB/D8SuDvlYPNPurbn7i6vt+4tuyWI9jyA7oHg+XpQ8nonKa6q9AUDv1CLfE8M8hwAHQnrbfvcToT0fDDehaAbusPPknN3l7fa97rXjmbKB+hWCPxGEvhUnaRs3D2leGDVXOOg12BgeNMdNwB0da8NjBvzmsr/mwBJMaNmOL5J4NW9t/Cddr97y/FXZNBfDmTNS9HMjtlauuMvh9u4gZlfJMZcANmJ1mZgMEBEsE6PeSayQcLwElzGLTSDhGEYWCORIGIxHQQYj+o6z7Ae8FwZvnTFO9H5E29m4XePxI+n6dNtXnQzuBlYfwfzt2wHPD+37PP8ryukL1s5UsachZQ8JGMI/6geVCx+l8DnWfd7vmY/4PlLd8hZclj8L4Ehx1V/JAOPEQSwhSBOtu33XGU5UFoVGXJPjjNTy3auJBJvgtF9HgTesB5ILY/cfzAwXCYppD8EprHd/fD91v3uqMtJ+8OBrHkpQhcPoqdp+E/rgbJnu/Y55eCagH2/e+VY0WpjgWVg+i0J+VM1y3mfmq3Y+ym++z3R9X6Ow8Ijy97St2z7Pd+HwMtgOnIxU53l/A4A5NaWV9r2eWZzCKeB8U8C3TmuNvCpmu28ZhvmJg2oszibP11Y95XvNAVNN4XHVLOVH2gTHbMZs+Tp+zbU2va5i1jI+SywhQQvkJNDXjXbuXhXZnFqTPq7Hscp24/t4Nq9zNge3oc20fKSOtHhqJlaOGbSfneLbZ+7dKxotQMogeCLQkG9wpvtWKdmzp8ck36DIcWb4fg6MfX6DGPCJlujZ3MiNMWKN6toEgQ9BaCnec34T4t/vDMxqgyOBgOkpTl+qJqVhw8Fx+xj0EPM9GMAA/vcNjAYTjAOTMeGtkTLMBgwNYkWYHBiYxhYn38EE54kCafbDnguyz/YnTxYneT4vjrR+RYBfyZZmp5IkceCgDcF47u2A54f2Q6U/bur3ZetnKZOdD4jmN8+2vOHAwx8ANBM64Gys637y17uat+dUTxVnahs9E3MXZxIfUchCMIDROIU237PVdHy9lRMKsjyZjtWtYfgZcZCAOFGQqMwYc6gK/dFoGU3LQB6VAhUD7OpcDAxW2iMB0BeRPM52kTnu96Jzt9w2LK8ibUbm+21nlVjudVOTEtA+A2YP1GzHJv7bWQNFYTD4Q8lwjPqROe/tGzHDwHAXufZZav1XCIRfQmgbWBsypyY+rE3y3lFDyN1mEAschj0kDbRslPNVn7HcEn22tJ99lrPfFkX08B4HIwloyW9WpvoLN6XrYxLtOZeECYC5NHbpSoty1lQMa1g1MTajc22/Z479KApj8CriOkKSFKlOtHprsxWJiZaskEH1eNuziZBTwMY1WMD4Z1QQ/tNiVEVG9swN4mC4ikAORGb9ssmMWsG4rvE22BwVKBglGZ2zFbNzh1M9CrAlwEYfp9vBgaxQNh37J0MhiHGeTNIKIaBNVI59mwZBvNzAnSmfb/nIus+z0ddT9WynOeoWc7XoNNrYJwTdebBUMxgii3+f4joXOsBz3fzaj1vdj3dO8F5iprlfFwI3gHGTHBEcvPhox9g+piZL7YdSD3DdsD9HHVGUzPnT/ZmOdaFZL0CzDcwS0mxxe/nX7h91L8cWEEw3w+ik237PVdHM64qs5WJaqZzTZKe7CVBCwAko2OJ4ZE4zLh5MAnPo+HNKjoDTEvD+hEsxJxTDq6JuUKdmuX4OTGuDX8PMdMtYLwHxhnEeE7Lcm73Ziu/jjSyrLXu1WO51U7AYkD6FQR/omY579eyCyPNsA6ivZ7iSeT5ZgDMZ7CgV7Us5z+6ZmRZ9rs/tB1wX8AsfZmBnQRs0bIsO9XMDpOoz/hxzIF11DHoEY8ZeyD4US0z8L6W5byAAcqtK//MdsDzez1omg7wc8y4/bDgam+ms7BmauGYo8aPQx6yPok8JgIA058h8CoD5UmNyZXeic7rd8KVnN+wutF6oKyE2pLsYKkcjLkmwdValnPl7imLIqvDDY1eg6hsw9wkOcn0JIApEZsOmEi+YKTNHshKS10P4JyI5qAALsytK/8sEZoMerMnxzVWS1MWJJmTdzPoIQJOT7QmA4O4w2QYISMT47wZJBTDwBqpHN14eFVi8VVbbdnMvAPuI+VpvROUr6mZzpeY8RYY3+/TnIlfkvXBxH+fwBfaaj3ftO53v3pkDJPm27yZznuJ8AEYFyN8qVf/j8/xMbAEVGJcZ63VTrfXlv2hawbSnhxnpjfLsQqQKonpJjBG97qYHopz0P8xBMF4WIb4gq227Brbfrc34pkdY8hUXCadKwAUgZEExsMQfCsYprBYz9trPQ9FPn8wVEwrGEUsHoIIW6LIVGY/WP6PWGN6zfPNYLoX4YnygY32WvdKW63nTBJ0Lpi2gXEm6fy8OsG5Q8tyzOplZB3wrBktwU4dx+RnrEsVaqbyZFWm46QeHUYzZ+JJ5Fy3jvh3kKBzmTlFYvxDzXT805upfA8A7LWl79kPeH4tiM4A0/sAP6plNn+oTehYthe1j+NhwnXRaZgdZvnXrPM3AHiZ8ZSW6fyg6zzkN6z22Q6UzRVBTGfG8wSs0Q/LmjZBWRDVyBpq/ZExGQDzbttBz2xINJ0ZfySBO8dlNlVoWc6bK6YVjLI2rmqw1boXmw4n25nJzYx5obZ21ZvlWKWlLUzvFdvIQDHkZJpTPQx8J6I5xKCLptav2Z0QUTGimZ2XM6F3gQviwjx/9w0ig8SxDXOT1HTlxvZDgUomXgUgM9GaDAyGCiaMqMIXBh0QG+fNILEYBtZIpQ/jSrD4mu2g51zLwfJtXbvWpBeermYqTxL4P2D8sg+z5VixB/cX7YI6+t+HJPhC60HPGdbasqe6dq9KX2DxZjjvpaBcQYy5ESZJzwvF2HKExdPA0gi4zlqXOt160LOJ8JQOADXjCzO8mYqrvQ1VJGhBj9xN0S6eh3IM0Q2yDuOKxBdsBz2zoyVnr5hUkOWd4FjV3sYaMS9Dh/n2MMniVEBfAKaFYfEOhGS6LsrIBoWpIXk5GF/s7oc+lkfrSwcTUzLJ94AxNez1Wj0WrQu7tlvr3K/aDrq/QtxhZBFwOgt6Up3g3KFl9DSyJu13t1hrPetGyzSdBBxgPkdm+riHkXW8zRMAEB3jsB4sO5tAv4KgFGJ+XZ3g/Fv1hMKvAkDeAff7toPuC1nwN8BcxaCHtAmWXmPsNbso2ns83vo7H9vry962HfScR7p0Dhj7Is9Dnt+j2Q96ruOQPp0FP8fgFXqr9KmW4by5V+XFLs0B9DYV46E/8hh1Ytvv9toPeq4jgS+C6R8sUJbUkPyJlumcy3CZpgZW1tkPul3Jbchn5rtIoIBNQc07wbHKa55vjoxnMDSo6c5LARREtjOoyO53v3H8FcWO11x0BgP3Rtn0qK2h7K7jLsigF1q685xMc+q7YN4AoH+58AwMRjTckGgFBjHhT7QAgxMbw8D6fPAaCekcW53n3Ly67kpI1enKF9UJzud0SdrRWVKZjhIj0XwI5gusdZ4vWuvLnupaZleZ4cjVMpR7ZClUQYS5AEwJ1tknBNQQ4bqDdYFO46qjQofXPN+sZirL9STJS8zLAIxPsNRI2pmxSeiYbquLblypmfMna5mO8qRgskagBQBJAN9pYjnfVueZbdlf7oUwbQbQtdyJQXTVtP3xLSuvpRd9i4DwJMNBEF2Wu7u8NdaY3kzlYmZcFNakA3z5xNqNzZH7Wuvcr1rr3F9l4LdgvEfA6Uz0pDbBsc2X6fhVLyOr3rNutImmg1AM5u/KTDu1Cc4HES3xLuOa3RkDrEQXAwSw9aD7JWu97ywCX86AVYL0tneC8wVvVtEZQKdJVOc5T0j4LjHqOsbo/J+aqfxiqPX1F2tD6b9sdZ4fEehcAgKdGv+tZTjPBQC7f61qr/dcR4wvMuHfTCijQOBjNUO5muEaFp8j1nrPR7Y6z2yWpLMY2MGMe7QJgQ+7lnDmBDwH7XVlCyUyTQfwIIHmkyxX6oJuTrT2zzvVZseXwLyp1wbG43a/e20CJMVMzfjCDIJ4FkDkTMQdyWNT5yZCk0E3FRkF41Wz835mvAngtGM+wcDgcwJ13D4yGGEIiZoSrcHgxGZY/Ig3iAEGGPwWJGmp/WDPO8FahvMLDHIBfD44BpNyqO/s95ypsYuZSmwNKU+GJ/n2ZRbnCD20CETXMvOoAWsaijFEViHsZg+IVrbXtd0Xng9lV2Zx6mgRmg+QA4LNx4zfx2yNIYPRTqAtuuCVef7oOap8mcU5utCLITCXOy5+DoOxQZbE6vB8KWq68zoC/7xLNwP32evcr8RT7r5sZdzhdvEgGGFL2vg2W13pu7HG9GUW5wih95h9QIRSa313oYBICGDUeZ5n4AV1gvPXxFgG0JcF4wUt3fGuT0ZJ7sGyl7pM2En73S0APHtyXHe3H266nkHFAEaDibQM5wVCYCkBYOD6EPSr1QnOJ0FSme1g7OOKNvsq0r4mPKWjDo8wXE+oE5ouI6al0MW7aobyrMRwWRrcH3bmnfuuNsHxQ2ZaDuaX1QznOwA+GvLXaPisri79USx4a537VQCvqunOnzGhBMBfvRmOI5+N1nrPRwAuqk5XviiRcAG4T5sQWASBtCF/z0Wb2RoFe23pewB+7cssPFsIuQTMj2oZgVs1OFyW+vHP0EHXHgA3VWY4SpOIbmGmDtNhON+SGMFoaQvTGcFnAYyN2PT+6NF0LRoToSo2GC7JJwceAyOysEQ9sZiZs8d1KCHCDAAA3vHK10jwIwCmJVqLgcHxhtgwsEYihvFokGgMA2sEEhR8QIL8k7z60r+Gt1dlOk6SdSxjxsUAD8y4Cr8QinKxO2gi4zEqibHc4vc91rXEDgAqU5SJJhMvFLp+PUBjYl6WdDwurhn7GbTKlKLfGz4DaF+2Mq61nQtI1xWAoidgPhZDfA4kpreDkKfnN6z2Rdu1ZkLhFF1IC4SuX0vAaACtTFgnS/Iay8E1e3rsO75oug7hDjvmleNMrXEvxX64HaUApnX1Q4z/WvzjV8YajwHSdH0zgIyw5veb61OX9ef54UaWZlZ+A+IOI0vHC1qGc7vGVGJpcL/cZWR1XiiWHciat+lQaMxLDF4GxpiI05wExqWAuFRNd75O4DJLw/g/DriCo0DP+bVHMU8IrhDq8OA2zH00K2P8HGaxWIB2qOnOJ1lCib3Os8taV/Z3AH9X050/Y0YJEa7s1V+8GeAyS1uD508M/LnG7DhPEJVA59fVDOdrxNJSa0Ppv/Ia3O8DmKmmFX0ZkigB8Mte8eP5not2TI5xnDqXfv/Cm+H4OgQtB9GTWnrgfS87l9n8nheovqwGwA1e8/zVBGmxDgrGUbEBOgwfDYFH0bsaaYPE0sxJ+0tbEqErVtT0wEpi/CSiWYBwmdXfuzCHwfGBAfKlKcVMvALAsKv8amBwPGAJvWa6Gwx/mHXjvBkkFMPAGoFM67iIqel6rKUV5oGkpRzCZYj1h1D0pM/xIywe6fqDlsa05V1L7ABgT6ozs82EImL+PYBxg+5/KAyssItbYtw6ahQ9MGm/u6VrJXjN1MIxejPdcLiNFxAwccDxhzovEtORiJYG94fRdtmdUTw1JEIL9BBdA+owrgi8lk1ijf3g2r29QsJl0iiwFXykrLcOiWZHW343GKrTin4MFmHJh/mQrptmh7+GBoqa5phLjJ+FNbUL8OyBlpEngOF3P8fA85pZ+Q06jKmzGPyiZnZu16jDyAJcpKY1zToUpKUAvtCP0N9n0Pe19MAnXuEoN6Xy1gEtlYyc/XMMc+ZsbAqiHvfthOuhcelN14JpEen4UDU7H5OFWJ7bVF7ZZRL50pVfMnNJj/jxJlJzP/roOBdlLzLwkpbmmAkiF0P8U0t3/kXXxdK8pvL/2hpL3wVwnne88jWSKb9H/KHM4zWA2Pb6srcB/NiXXvRtwWI5Ac9pZud2lWiZrcH9it2/VgVwTXzFGgCAL63pdhD9LKJZgPgyi7+0KiGiYsRrdv6GGEWR7Uy02N7g/lMiNBkAXrhGq+bmewk8O9FaDAwSiqARVcXVoBPJOG8GicUwsEYw1WanVQIWM3AFouXUGV4cufC2Nnbf9dXSFqYzBR3twM3ESE2MtIFj9Xs2dP1fgYJRyeZR1+nNvBDDMfEq4zCIN5skeXVfu1RmOHJNOi0MCf1qgEaB+BAglXESldpqS/ssl6uZAwsBfL27L1plq3f/J57yveb5ZoK4H2F2BkFalBdY80msMX1pRfmChDu8jQnL8hrKdsQaM6qRBZzF3GFkAYHRBJoR7bkMfEDAewAuBDAqYuPJRHSP3ky3q2blbhEM3pXXsm5/rDqPxQy42tGAu7w21/2SP3AdMxbqknSJanZuZei3kX+tigb3Swy8bAuzaCSQzTte+Zq9yf3OUGnrLwQwGsueYbieU9ObL4TgZZIkvaOanS+DpWW2xtJ3O3X20MqExVq60mZtcL+UIOk9sDSUvgXg+2qa8gOQWA7Gy2q68x3Wscze5PlLovV93vCalV8zeGGUTctsDWV/PO6CBkF1avHJBP0hRFjXBH7B2uBZlSBZJzw14wszdAq8gvDvTQODExQiYcwiHoFIujH72yCxGEncRyBV6QvS1DRlowR8io678MPZvNrNxPNa/KlXhTdWZBSM18zOpUzBagCLgWFtXjUS2JWczD1yEu2EK9mb7rw+yZxcyeB1GG7mFeMwgA2ySUyz+csKopV8r0pfYFHTlI0mQRUgzENHpi+PCOp5Nr/baT+aeZXmPAtAWPU/fvdgY1NJX/vHCsG0AUB4cvO/W/zuDX3tfywYs2RB+kMAUsIa/2Nr8JXGrrIbAtjmdz9n9fvOAvNjnc1nAehlXjHwATFm2fypZ9j8ntmcJNkA3A7gYJTQmQAvkZJMmmp2bNYyCqOaYfHCrroOW/2edcnjUvPBvAig8wjyJ1qa8+7KDEcuhZlXxLyVgQBJ/LZqdr6kphV9eSi19ReCS9gb3E9YG32nETAbwCkgsU01O56tSS88vWu/nIDnIMA/ABDoNBzf8WYU/jRxyntia3S/ZvOXncMCPwUAkvBn1ez4Z1X6AkuitX1e6DB8uJfhw8BLVn/qHQmSFRO7MotTJVl/Fr0LhnwaoqQraGjmTBocA29W0aSQJL0BMswrAwMAYJJinkVvkDh0YuO8GSQUw8AagZhEaBoT38BAcldqm8H+ha9uEfGJuZdBN7M5dbq9oezu8GVZ1WbHr0wi2SuAEgbM8RpDOHGKGRBMK4iT7FZ/WUlnMm4AgNesXDnWHPgUjLsZmBrvczCoMTAOM3i9lCTn2/yem8KTrXefA6fVm67cI3GoovO1FAKhNBSiPJvfoxxrhk/N1MIxAvQwA0ldfZJEl5+NTXG9K6OanTMZfFnY+BpDEl85mAswNc3iZNC3wmK26CxdEZ6LbTAwXJI3zXGRarbsYKLf9fFa/VB0GlfWRs/TXTmu7LWl+2x+zxI5RViYcAMTPony/FEMuloI6QNvmvKn6jTnuRxlgWC8VsPl7HEdsjWWuVuSDuUxkUsQLpQFVahm53qGSwIAa6Pnb1Z/6ukgupSBk5jENq/Z+Vx1uvLFWPpsRcdYu06IjsFdcROe0q1+z8Nef+qpDLqaQWeEWHrPa3YWdu1j85e9bvN7vi1Y+okgMIT0J6/Z+S8tzfHDQXR9hMHo78Le5PmLrcHzdQHMZtC3TCI4PQ5hT3gOZM1L6TR80iI2fSrIdPmAc9AlEAZodEhsQe9lys0kiZn5DatHUAr6zw8VKQVZ1C5eJ+D0Y+9tcBQ0JvwO4NiLnBgMG0jAMEJGILJkGFgGicVYQmgQZ6iWwKuTx6benbPHdagrPxQD1GU6SJDOZnDG0aIkmBYQ7moPofTkgDvaTBigY8bVcJs11grwfXKSaXVkovUuvOb5NpC8CIw5YE4moJkJa0PBdvf05g21/e0o1CytBPGpRxqIFlnr3R/FYQxHqB53czaD7gm/9GfwTZ054GKiKr3wdDCWh7cRoTi/qbRiEFI7tbkkNa1plkqBJehjqSCAncy03NaY8vTRLoo7c13dw3Bt8qY3/4KYHQC+F7EbgfinBPxUNTvf94LLD/nHPzbQHF79ZUZHXrOVFRkFd5nEqA0MLtiOPU4A4nW4TARXCA14jDHrD6rZchmApcT8f95059MSoaSzGmBC+T5cIfixZRvmPjLBnLqTwHkA4LW5Rou6Jkt+oOzTvMbSvwL4q5qu/IJZLBdEr3rNyj8YvDTP73kzwUMAAAgh/iNLxv2neMAAacExfRs+9SPL8NHMzlsBPj+imYn5Kmt9+c6EiDrBqcgoGJ8kkv8E4JREaxnBNDPIA3/KKjtch1WzM+6FYgwSAY+YmwMG3TAZ580gsRgG1ogl3iXqIucHDDh+HYjch0wtd86o3djcM7G5fINKOAkN7rAk3ENd5jCm+K0A3cPB9tXhM5AYs2RvuvUSSZK22+rWfDyI+ANgQPFbAdpEpuBqW5RE6wCgpil2EN3C4CvASAIQAHNZm4Dn5ICnD5MuOlqa44cCdFNY02s2f8r6gcToD5SUdC+ArLBj8Vye37M11ng74UqWuHkrwnNMEf5qbXDfPRidHcZVS6dxJfVhXPFOZlpuP4ZxFQnBJdCAlwC8pKYVfVkQHAS+EL2XDX8RoC1jzc13qHFL/I4AACAASURBVOS8E0zmnq8hQrxes9PrNzRVpznfIqIjCYht6S13qVAa20K8hgKeg/DjoW2Y+1hGWuoVBFosGB9Um4seZ11fnh8o+7R/PYXrja9ZczY2Bb1QWrv6aK8LpIySpZ1es/KoxPpya2N5ta3B/QoDf1TNzl8DKCHQP1Sz8iokscxWX/bvgY8hfuegO1485nWd2GjpjlvAuCCimYnp6pFm+Ghpyo8Y7IpsJ+ZV1saypxIg6YSHMUtWRfLT6FhGbjBwPmOiu5JCSZumBlbWJVqMgYGBgUHiMQwsg8HiB7g8JLWvnV6/oamrsQIFo2Tz6LmhZl4EYDIYzyZQ47FoI+A+ySStDJ+5dMSYAC8jxqlC8HcSKTIKrQDuJVNoTV/GlZZWmCdIupWBywFOAhBgptJkYSqL5ceg1zzfLCBtQfeVuF+XxJx4L7HxmovmAPzr7hbaHwqZrhtMzDFpLcsAnBHW5A+RdHWsyxE7lgo2X6BSYGnHjKuo5sRH6Jhx9dRgj1Fn9bzLKjKKF5pYLwDTXADmiN0mM9MKACDwcZvxRMxjGZibLNP11WnKehkmj7VxVQMasXknXFvHprdcLTHfwrL0kdesPNJlEh0vff2BARMBlwqSf6emKw/qkG+nhtU++D3PM1wvetOaLwBhGYT0L2+a8ifBvCy/yfO/ROs2iB0tTflRj2qanRBjtbXR/WQiNMVKtdlpZfDj6F2J+O+WxpolidBkAGjp1lXEfG6idYwwGIy3IdGdBxuanop3agIDAwMDg5GNYWAZxEqAgLWMUJndv9bf1bgTruSx6YGriOlWBk89WoBhQBCEB3QSK8KXpTFAmtn5WxUtLoCHY76KQwDdiySs6SvJui+tKF8n7jSuYALQxIw1ySKpfDB3MRlJdxI498hjQsFglvRFoyp9gQWsr+3Zrz53enNpv5c4RuLNcHwdghf0iEkomB4lsf2xCDeu6GjGFeE2W0PKk/E29zo1L9iZNe+2scGxVwF0MzqXwkUI7d02tOxg0KtEXCgQutFrVsoFyWvzG1yNaMDdXptrC/zNc8FYJEj+nWouekhA3J7n92jHWWefMPgakDSZmRUJ+hXVacrmJJN+B9W5PkMjnmS4ntbSA5cwaKlE9I7XXPQSgGV2f+l7idZuMDCObvj4FidCU6x44RpNCDwDILPnFvYl63RxvPL7GQwMNc1xPpiNpW79oaPozOsMfsFk4pej5e40MDAwMDAADANrRBLE0GbfP8Z0lBYm3DkqlFQaboRsw9ykjLTxs0GBxcxkO9qCxKFeON2P4xMi4GFi3Gbzu73hG6rTlfO8jBIAZx7tSAz1wp0+jtEhAPdQEpX2ZVxVji+cJkny4hD4UgAmBhoBrE8S+trcpvL6wWiqTlMuBPjSI2MnPJXX4H5kMDEjYYC8LB7gsGTKBGzJ85e9GGvMPTmusYcPNW9FzwvVZwaqPXLGFUczrhgfs8S35TWk/mGoEz935qRaXzOh8JmgLv8RQM+E6dT9Mh0KIeHvgc74TXn+UsWbVeTmIC8CYyFBv6k63elpNbWut6uuZgDr9+S4Nh8+FLiBgQUAzfamKfeHZOmOSDMxWmGGeOvniMdgtOT5S1ftyiy+Kzkk5oNQGAzJV1WZi+6VkrCKal370IBHX4frDzZz4FIGLQX4Xa9ZeU4nLJvW4P4w/JhEvkLieR4YMLLfxsjRDJ9gKHjJSDN8JHPgbo5cosY4LIHPzwmUDWiJuEF8UDPnT0aI7sXQ5xsYqTQQ4b+C8Q4RvzM26fCbEzu+0wwMDAwMDI6KYWAZ9Jd2ED0oyUFX+HK1jov6lvNBvALA9GH+W02A8AyHxOK8iDw8VWnKj4h4BRhfTZS4o3AIwGaTSeozObuaptiFRAvBfBU63tcBJmxM1vU1gzWuAMCXWZwTComNYU17k0NJNww2biSqWSkAOKzqG6shqX3+YGIebmkuBSG8WlutCGFef5/PAHnTlV96ubkEwJlRjStQNbFYbWv03X+8Ln4rU5SJlARHUEcBgLFRdklIgqROc/XmyhRlBSXBQYKWjAmOdVSZlTuF1FaWs8fVBMCzL1u5p7WNr2GSFslCXF2dXvSgSaaSvl7jx5NTDq4JALhtV2bx2lFBMQ/ghRzEtdVmZTMl0Up7rWvfkTxf5rRLAF4qMd6vNjtfAXhxnr9sR6LHYNA3RzN8BlLMYjigmZ03MzCn1wbi31v85duOvyIDAEBIvg/AhETLGCY0ErCDgR0E3qbrpnfsgTWfDqaasIGBgYHBiYthYBkcizaAN0kmfWWkcVWdHrjIi+ZlYJycSIH9QID4KUmSS7qTsHdQleb4oUTScga+OQzNtxaA7hEhXjOt2X0g2g7VqcUnQxaLBXAJmGUAfgLWAqF1eQ3dSzsHAwPkDYr7QUd+jLNEfHW8E6pWpTpOYmBlWJMg0JXhudUGSnWa81wQehpthKv7Op7hdM248hKWgHFaHzvtYgm35TWMe2KoZ1x14csszgmGuJjAc8EYczz6jIXOY7yw2uy8G5AWE/gWWYy+3mtWVsGccs8k1dUCYF1FRsEWk0iez4zCUIgvqzYX3S2J0KNiSOeZ9o9OI2t1zfjC+0IkK0wo4CBfVZ1WtD6JQ57cpvJ6+LF1J1xPjE4PXAOmWwi0vdqsPA4gOdH6DXrzeTJ81AzHN1lgTZRNd9n8ZQ8cd0EGADqXDgK/SLSOBLEXwHYm3ikxPoLE2y31aR8fr+9HAwMDA4PPP4aBZdAX7cz0AMv6HZH5obxpzvNVCriIqY+Ka8MGJuA5Qborv6H8g/AN1elF3wbzbQC+OxxvARLwiB7C76c1l0Y1WrwTnKewLi0GxMXoWBrXQOC1gkzr8hriW/a9Ot15AzF+ekQb4x6b3/OnePbBmCV7JfkhgI/MJCLQOru/9I1YY3rN880MegBhziSBH7A3eF46upaOWYVeal4K9GFcET5h8G15ft8Tx2vGVecsuAWhoJhLhNFRdmEGnifg6wAmY5jc3e7McXWtlla4Uid5KQOl7G9WqtOLVrY2jLtver2rCcByr3n+eobJAfB8Aakg0brD6ZzFeEtFyqJyOSlYDPD8IMk3VpmVcpBc3pnna6PX5noA/sB1zLQQwCQAlQmWbhDG58nw8WYVTUJQPIVIo5TxdktjqiMxqgy8cI0GBUoTreM4IMD4FITtDGwHxLuCkt/Lj/PvDwMDAwMDg0gMA2uEEu8r0/C5Rww8IcF0UV7jKjWsjSrNyq+qgRIAXxpo/0Odz6YHpDOz9JKAWDbdX/Z/4ZsqMpRvSALLmflHAw4b9v9Q6A+Pafe7X4i2jzqh+FQ9xEuEzhcBLAGoZ3A5S+3rBzNTqS+qUh0ngak0TFvF2NEoQpx/onrTLQuY+etdj5nx8ajU0K0YxBwyAdMGAGGFBFjVpfbCvvbvMq6qj2FcEXC7vUF7/PgaV/rCYFBcC8LoKBMFGcBzBLE831+2ozJN+YgIkyN3AOPnXnPRK/FKON4rf9Qx6Kw6OKcq1XEHZHkpM68fbW4urmTnCn9jYEtnMYilH6cuWpcstSsgKhjK91y0HFjHmoM5vXllLYAib1aRRwSxEMwLAP2m6nTF0y5L6+2qKwBg3Z4c132HW1rmATyz67kizmMYFu7kCOIohs9/Rprhsw1zkxDUnwQoJ2LTftkkLpgBV3tChBlASgvcxIA90TqGgGYw3gLodUmitw/J9F7nDFUDAwMDA4PjimFgGfQi3+8pD39clV7082rmEgk4O1GaBkJ+fdl/CPhVeFtVWvHZgCiBwM8TpesotBBhowglretrh4qMBTMkXV+s6+JCECQC6kAo16ltw1AYVwDwOlwmmJq3go/kVwpJkpg9aX9ZSzz7qTY7vsRMy8KaggRpdu5ud2usMavSis4H+LKwJiH6WI7YL+MK+JTAt9sbfI8dL+PqkwmFU5J0aUGHcUXRjCsB4DkiLM9rcL8fJQR3/0NOAi8V4HerzEUvSEBJoirn5Xfkn7usIsN5BzEtI9Dd6ebxCytRtLzGP+6RUwOuOgCLKlOUck4Wo8KfO4p4HICEXzR15vma/8mEwlKTLi1ipqVJITG/Mq2oNGU03zVpj6sFgHsb5vZ4TxP4C77M4pzhkOfrRGIb5iZRh3kVzfCZNdIMn8y08esA/nZEc1AAF9qM6m0JY1+2Mu5wG5TPib3MYLxNhD+D8FptQ+Cds7EpmGhRBgYGBgYGhoFlIAB6XMjiL5EbqtOc5wJUwszfSISwgUCMN4/8H/brsdrs+JKAvBwQ52H4JblqBvFGEUx2d87s6EVlunIagCUk9AtAkAAcBKGsXZbuHOq7nxZz4BYwfa3rMQEr7fVlb8ezjwoUjGJIW9FzVsSK/MY1MeeiqR53czYT3xPRvH663/1GeEM/jasKAt9m9x9f40rW5YUUwjUcfcaVAPAsSF8euTS2L6b5S7e+DtdjueaWywi8WADvVpuVF3WIkshZiseL6fWejwBcVJ2ufJGZSgj8gMXcfEs1KcvtDSmPUbPryPJZFmIvIB3mIH9Yla54DpsObZgxDCpWndxhFtxYlb5gDUNfTODbW9rIUWVWViX/P3tnHt5Ume/x7++kLaVbTgqIw4isZauCc6+OOjqLd3RmHPXOuOCu4zKio+MCbZO0lPa00L0FlVEHcUEUFRF1XGbxqoyOu+jI0jUFigujAk3SvU3O+7t/NIU0TQu0oScp7+d5eB7ynpP3fNMkJ+f9nt+SoK+a+NUKPxOWnwRI83hF/Q4148/k6SqZ2nrft4aJP4YYZ068n4GzA4Yj0vDZbVl0LTP3aaBBQNpUV8U7wZ4jGR46Ovk2AOOM1jFE/k2MZ3XC+qnuit1Gi5FIJBKJJBBpYEUsQ/ZiBAgbBQktpbG8yn/DTkvGj5lRwEDgHd4h4H9HUkHo7lDSOwR9yVR37wt3R7ItVRG6xqBLCaDQe1dDmY9bQHhAeKIr+jOudlhsJ4P1HDBdgu4/2F4wVXTExD2Qulc76gv37og1zvYb2tzoci8N9XEUc6wGYK7f0CdfuOILhjInR8esBjD2wOPudMSsnnTEbuOq7ZKd1JoD4OR+3ksHA8umuRrWDZdx5Ui2nqAItkPH7wGMCmpcETYyOH+6s3x7/zP1PLH3d+wcaF64sGYTtKcmqm3XACJbgenTejXjFWbkpbjLPjt8tYEF1gf/ffBFj13sMGf8l0LIY8aTO8ytWTuRrk1xJzxP0MQ09/I3HcnWFEXnLABarCd+4U7VWhIbF/fQhD1a2+COTOj9NyL0fV2HxzRnyRcAFjSY04t0Qg5AZZ0tURk7zRm5U91ljwDANFfFfbvN9rU6iYUMvoejYxbssGQ84PWKspnNFfuO7IijAOiQP+GHZreadh0Dt/XZQLxwqnN5RBk+u9SMU5j1VX02MD89yb18pQGSJD4Y8027wXeF332yw0IH4zmhUHE/0bwSiUQikYQN8ur32IMB/IWIc/u7UGFGOYAfDq+sI4XfBys509ylbwZucZgz/ksR4hOAjG9j1gtuAdOfvIIr+luw+qJRcsDiEoAIwF5mlHfGxD84HMYVAHx5wsLRXc38JIBo31C7yUTXhzp9oD7Z9iMIkeE31K6YxPXnQPMOds4dasZNAC7yG/IS6PqJX61o72tcBYPrGcqyL11x64ai40g4YFwJ7jau+iKY6HlALB3YuAqEEnaoGR+DOG+as/y1nlGfkfXEJmjrJqqtVxOQTYTN9WrGK2CRP91d8enQX9WR4zPQLtqVlH66UGgpg9bvtLRcCCdeA4CUxtKvANy+U00rEVCyAS5qb21N36FmFCtq/KopDVqHEbr9mewu3wXgxh1JGYWk8Bom2AA8AnTXESR3sRMH6nx50wHcGWVS/lBvtt4fDaViUvd2SYjYpWacwhB9DR/QU5OdFQ8Mv6LB82XSwmQd4gWA4gI2bY2JT7ol1HUJJUfGF5ZJvwbziUbrOEKYQU8KQcumNZU5jBYjkUgkEsnhIA2sCGVw8Uv0GljPDVygOpKtZwCCUhrLPwC685OO5j3EIfZS/gQkcqc7e3fB26XaJ09xdRedJwWjmQcZSjEAQygo3UzMf/IKXj6zuTyocVWnZpyiADmC8Vvfob4Do6w1lh+a9215SGtOHYrOlqgSEGYdHGH75P1l1aE8xpbx6fHoFGu4u4MiAICAzCn7K2oGO+cu1T5Zh96rfhuDCqa74z5zmK2X7RjQuMIOgJZ+6YofNuOqPnnRRNIVOwu+mfsxrkDYwKQsTWksqTySuf0+n6eB6dV6NeMTCm5k9aQWXg3QYpDyyQ4141Uw5Q+Uxqmj7zkiVDGVU5rKP3IkW28iwV+yLySq3pJxFoOTU5zlr/R0NXSYM4qJeAlAFbqrNcNhsRZ2OeMeOdx6RsEaS4Sqz/u0pjJHvSXjXfDBIu71asYGB/PfvnInPOFf54uiFBuIF3mg93Q1vPdwOnkdTtH5Y5mvEjPHeNH1AoDRAZu2xMQl3DqUBhHDDUNTdlPLOoADi4M7FVYuGXwUoiRUMPMCozUcIbuI+ZbJ7oo+NwEjAz4KkfUSiUQiiQSkgXUMQITXdZ1zZjSVfeQ/Xm9O+2+QKQ+CL2CmWwB8YJDEQ0LA5wKUO91V+op/jatdqn2yF/oSHfplAMwGSgxGMxgrPSJq+ezmov3BdnCoi35AMOUA+A26r8a+Bagsric1apjvqu80W88T4D/6Db0xzVUe8tSUhA6UMiHFb+itqa74QR+HoSk70Po4gCS/4c+IRM0OtfVzGtC4wrIvXfFPDadxxbopEwI3MfVjXDE9xyZ9qa9O1FB4CcA0AKfxIYwsxvx19eqUqwFkg/hjh5rxmiJE/rSmik+GqGHIMHgKMT3pUDM+JgW50xvL/p7iLtsB4IadidYiXeEcAq8cpbZa6zm9wOVuWhNuBYcJNBmERyaqrZn1yMif5mpYRy3l3wFIaxh7T7nXG2Nnhp0h7nJYMiq6ouLvH66oy5EGY77pi6jOp8EUaPg0EouIM3waLE2FxPSrgGEBwjUnusp2GCJKcoDdZruF4fml0TqOgNc6okxXRXQXQaY46V9JJBLJsYk0sEY2m4iUnGnOknf9B3eqtnkCIg/A/3bfxQprthNDm+oue8HfuKpPXjQRbFqss34jdRcAD6cFSTOY7vcI04r+jKtu81DJQXe6G4HxDRNK4+PiV03Yo7UZER2w22y3eEh/HAdvazpZoRspdME1AHwmGfUqQuwmUm4kaIMOgKlXW+8m4GcBwylgeqY/GQRa9oUr7snhMq52WGwnCiHsELiZqFfR+h4EGOtFFC2dsb80JBFvBH57qivh0npz2yVEnAOfkeVQMz5WCHnTnGV/PbjvBh0uPMmY/3S9ZdJVBMpmRfm4XrW+RkLPCwcji0DREPy3ejX9ffKlEE9tLq0FcI0j2VaoCF1jolWqarbXw5o/nKmgh8lbAFoArNlhmZy1A+n5U50Jz9I+7T8A7nYkW8ugcxYBuaM8rQvrzdbSuPi4ByLNcDGa3ZZJxWD+RcCwYEVcM7lxxU5DRA2SXWr6b4jZ2mcDYcnkgEhkiTEI6voNgaIPvWcYwPTQJPfuO4ertuNRg8LuhqVEIpFIhglpYI1EGB8QOGeau/wN/+G6MdbZii4yBcTV8EvdCkeYUUOEosAi2vUJ6cdxNBZBp7tBiDVSY1+4BVAeUzxRhVNbC4N2F9tpSZ/LoGxmXAZfqiAxLR8dH7fSKOOqBw/EgwC+3/OYCHdM7647FDJ2WGxmweIR9Ir9p7t9RbAHRd0Y62zSOVjh98QgY7vBVOhyux4frgid+uRFEyGi0lmIBRT8MyuIsFFXKDdUxlUPDAiCJuDG8wxsrLekX0hMGgE/ZMZrDjV9C5gKprvLnu8xKgkbdDjxFEN7ut7ceinA+VCUj+vVjDeE4OwZTeUfHeq4RwtvFH4a7eHTmaiIid+oVzPeA3POdHf5W740y/mOZFuqwiKXmR8/UW3NrWdr8TT3rkfDZMG2c7qr7JaD5wF6aoe5NbueMoqnuRrWka/OV33yoiKIqHQQL21ra7XuMFvLYxI99/fuaigJRoOafjGY0wLHiSlrcuOKvxuhabDsTLTOJOhrEZArxcDLk50VRQbJkvSBLjZawWHy5CR3+R2hvillEEmH3kUikUgkIxFpYEUoQa8+CB9BICfFXfa6/3BNonWmSeEc6HwlH2Zh81Bf3Rx+vRyuB5T86e5dT/cxrqLIzsBtYIw+VNzY0bg683c7AuZvIuD+TqGvSG0qbwz23B1JaaexYsrVmS/wDe1hcMnoBH31xK9WtBtdgLfekn4lM195YICwfrqzrL/opUEjWF8JkH+h25dSXKVPDHa+zVgQTTqv5b51bgLZBWCZ2+V+criMq51q2iRBSiYL3AhwTJB0Bx3As8Ikls0cQu2vQLif/xPAcJa/wtBeqze3XorubnnzQHiuXs34eEefiCxNwI0NjPkvOCyTriBB2aTQhw6z9W8g3uk/99GomxesRhUATHOXv8HAmztU628EOI+I3qxXM95ghXNSGss/8BlZl9eb0/6byZTHxKvq1cl3Ozg9b7qvq2EwzUfjnNHfe+FroHG5Izn9TAjKA/BEvTppkQPpudNd5S9T4/IvAdxdZ7bfB/LmEGFZR0vUXfUWaxE721f3zBfu4bPDza4xabOg8xoE/GkI/JcT3RWlxqgaHDVjrYmKV38BfRfqdYKirh8hJkTEw9CidqP5Z0brODT0dqsr4fcj4XPj+5vHG61DIpFIJMYgDawRAX3KJHJn+NW1AQCHOWMaEy8h8LUI84grAhoYWPqVK2Gtf8pPbWLaWFOUksGMOwCE2wWLm0D3R7Oyor/uYXVJ6aeDKEcQfu27bvyagBKTGr96SoPWEQ6FhGvHLPw+6/Sg39DXXbr39lAfp15Nv5hB1/kNfUdevnUoc5pVdTHApw6wyy4wF7jdTWuH07jykpKlM24AB00V1AE8o+u0bFZ3+tuwctCY0jYeNLLwQ8F4rd/UQieeZmjPOiytVxDzEgDnD7dufwhguEpfYmgv15tbLmOiXAh632G2/k1hPXdaU8UnvmYVFzqSrWdAcD6I1jvU1q31SNemucpfCoeWW77GGb+otWT8WGFaCuCletX6aZ3vfD7DXbwTwA07EhcVCpMph5nvgxprFSzWSvOqNzVjrYnkES+AuLfhQ6jtIk9EGT4M0G6v/hiAOQGbWkgRl0xrPHSRf8nw0JDU8t8U/tFArWDceLgNLsKd+oT9luigP60SiUQiORaQBlYEw8BWBZQ7zVX6F/+L851q2iQdSjaA30VAXYYvudtgeMzfYPDVY1rEwN3MQVPBjIVQGCNMq/ozrhzJ1jOgcy4IPYV3vwKhGM6OR6ZjZWc4GFdA90KpXkQ9BsByYIhxU2rTiqCRZIOlPiH9OAb1amdPoFunt5R9N9g5d5itpwrw4mDbCGhgRoHb7X5iuIyratU+2UR6ps64gfo1rvhpRRfLpjUvrxsOTQqo30V7byOr5TIQLUGPkWXJ+Igg8vy7fRI0ASeeYWjrd1haLmemJcPxGgbC9xqeY2jP11vargKQI0j5yKFmvMJA7gxX2ecpjaUf4oBJhHwGvVCvZnxGwHij9fcw01n2LwA/qzen/w8T8onpVYcl40BEre/zcq0jOa0QbMolcKbRmsMJn+GzBoTZAZuaiXBJSuPKJkOEDZLdlkVZ6E4z94eJ+aZJjSuOqCOp5OhChJ8YreEwyJ3sLt9ltIhQMcoUNSlUHWMlEolEEnlIAysC8VD0/ijWL09xx2/0L3ztSLaeAJ2zdNDNwJHengpINgo5gXPSHiIUsbN99Qys7OwZdSTfmQQRe08XxEKA1NAdLxQc/BulOMuKg+1Rn2z7ETPnQOCXIAKAL7uNq/ZHU/xeZ7iww2K9Awy/Ysf8YGAKaijgKGUVgHEHHgNPpLhKXxrsfF+esHB0RzPWAtTrHEZAQ3eNK+ewdaGrVu2To0hkgcUN4KCGsRegpxVdKZjWXDQMxpV/ebFDR530MoHM7ZeBOAeM0xmmvzosto8IyJvuLAk0sp5laM8Ryg6cfxg0ZYfFdnZg04ihvY6ejGcTBgqg8Wlatwna+olq2zUM5BDwmUO1vUCka9Od5dt9JtE59Wb7/zCJfADje58njsY5IzBje+BjTHeXvwXgLUeS7ZcwIQ/E/6hTre8qQM50V+kmX1fKK3Za0ud62aTxAAblsUSDmp5L4EsChhnMN05qXD7UTp7Dym5z+rnMnBc4ToySSe7lG4zQJOkfVvjUMP8WfmdKEA+Gy02zUKCDpskIVIlEIjl2kQZWBDLbVdwAoKHncdXYrO/FeL121rEARGFW2LwvrOjPxsaJIv+CxJXjtIQYb9udEEgHkGygvGA0MnBvRwx/1t8O9ZaMs5gplwWf5xv6gglFHmfcY+Eatl87JnMW63pJz2Mi1MaNjreG+kK3XrX+joHf+g19YSK6eyhzdrREFwZEWziJYe90x60Zrr93jTl9iomULED8Doz+jSshlk1rKjUkY+1IDI7gRhafzkD/RtbBAz0Jwg8E87/qVOubJiItdEbW4XMONC9ceGIzFjxtNpt/B0I2s7Klzmx9jqNMeTP3F9VMdxcfNIlITBxujYdDSlPJPwD8o86ScSEx5THwlkO1blKIcqY5S9711dC6hGUZLOw0Z/yCILL7bqFlk90VG4df0eDZqaZNYvAz6Jvy/+aJ7i+CvEaJ4TB+YLSEASHcN+KaPyjKVHB4u4YSiUQiOXpIAyuCcSRkjkOUbmOv9w8CiBvKUqa/YsOhgokOFGRPaayogi9Bbc8ELa6ltf12eNqs7BehMxS86Bv3MEgaAV5BSsf9M/pJQam1ZPyYmHIF4+cAwMBuYhR6htFIGQyboEWR3rqWQXG+Ia/Qcf2EPVpbKI9Tn7xoohC4z29ICFZuTHEVD7qGi0O1/4wh7vIfI6bbprtLnhu00COgxpw+hUhZTMD1A1B5IwAAIABJREFUjP6MK6xThLJselNx/XBo8meo32V/I6vO3DqfiJb0GFl1FttHDOTN9DOyACDFXfY6Q5vrM76W6D4ji4nzfJFPg3odgy2yfioe9sCNRyqhrY2xtP0eoCzS9e21qvVpk1DypzcV1/tMosD5F9Wptu9muEreGYxmfwJTXAZTdH2Gs+xVBl6rU9N/S1A0nflfdRbb60Scm9JY+mEk1XU6GnyZtHC6TmI9AgwfBv5vsmt3nyimcGYXtFhC80YAY3tv4S88Xs9VYdJFU+LHd+NuT2jzYJrROgaCWX/aaA2hhlhMk969RCKRHLuEaJ0vGU62jE+PrzVnFHGUvpOBNABxh3yScTSCkC1MfLP/4K7JWmydmnF3c2vbDhCXIUTmVYhoBCGblPYpM1xly4LVT6lTbT9xqBlvEtM7AH4OoIGZFjS7XCkz3KUPh7N5BQAT1LZsgE7recxAwcym0o9DeQwGSIjoxwCYD47SylndETCDwpF8Z5KAWAP/cxfjmZRhMK9qzOlTalXrIwoptQTcjL7mlRegNcQ8a4ar9AYjzKtAlCHcpiZoYqa7bH2KK26ur0NlJZhPJ+a/1llsH9YnZ/wqcP8Ud8lzKa64ecR8OQHHEdM7tar1rTrVZkidmFRoXSnO0gej1dHTASwC4zyhiOo61fpYjTl9Ss9+M5or9jNwMQjxAL9dp9r+z5GcfqYRmgMhgGe6yl9MccX9gJiuAOMEFvigTrW+WjPWOsFofUbxzfj0eF1RXgQQmGreMErH1ZFm+JDa/CCA/+41yOhQmC9NaVm51xhVkoFo8cZNRXhfR38+xXVvg9EiQg+dYrQCiUQikRhHOP/wSvohviNqFhHZASQYrWUA3AzkmYimznCWFszaV9rcs8GRZPulx9VeD9C9RDjeSJEB7GfixSIKk2c4SwuCGVcO1f6zOjVjE8BvM+h/AOwkxu+bXK4ZM90lq4er7tJQqE2y/pAA/+LnH+9xxS0L9XHqLNY7AD73wABzzeiEriEVn2Yx+l4CJvkN7fGw549DmfNQ1JntU+tU26MDGFceAI93G1clN6a4y3YcTT1HxtCrs/Q1sqgKzKcLQX+rM1s/CG5klW2Y7oo7hRjzCRgD8Nu1qvUth5rx06HqGQxTGrSOGa7S+xPj46YxYAdwoUJKbZ3Felu3ZvBMV+lL3SYRXw5gAgvlfYfZ+tfaJPtpA88+PBw0CEefTIQ7AFxAnj5Fy48ZOrv4UQAnBQy3g5VLJzRX7DNC02DZrabdCeDGPhuI7zjRvWLz8CuSHA7EmHLovQxlk9ECQs13425PADDPaB0SiUQiMQ6ZQigJNS3EdH8Xd1X018mOFT4LwPeHWddA7Gfi5WyilbP2lTUH26FetZ4jgFyG+KkvdH0HgIIml+upSDCtetgzQYtraW9bCz7w3W8TOq4/B5o3lMepTsycQXywvhYAL7Pp+olflQ26FodDtf4v917ksaLwzamu0HZM7KHObJ8KEtmAuBbBUwU9AD0JpoIZ7uKdR0PDUOEQFgrxpRauZ2gb6iztlxNjCYjP8BlZHyomzpveWPb3gP2fZ2Cjw5xxCRHlMOifdWrGPwmmvBRX8T9Dpe1w8aXIVlSO01ZFe9q2ECMVABy4c5QYEzWW9mtfH+jM6OtqSCQ+qlOtrwCcO8NV9vlwaw6EoIl63f46K8duH64G86J0ZlwROM7AH6a4y/qtVRiONCSnn8mCy/tsYDw42b38MQMkSQ6fsDawGLTNaA2hpr0r9nSQXLtIJBLJsYz8EZCEijYAj0RHc9GUvaXf9AwyNKXe3HopK3TaDGep1UB9wdjPwJ+iiFZMc5YGrclUa7GdTcya6E4TBIAGMIq+dsc9FmrTZzhobm0rI8LMnsdEyJjVXFobymMwNMVhansUfqmt3SmKxZ8Mds7axLSxgrGKehdFWuVvmISKatU+2UQiEyxuQvBzpIeBZ6MELzWqOPthI0LfH8u/C2G9pf0CZs4H4YCRRQoVpjhLXjm4Pxjuso0MvFBvsV3IjFyG2ORQre+BqMR/3+Eida/WUqdaW3oei8SYRNJNO+ss1jXChDzap+2BE+sY2jP15tZLmagAoM/qVOtrBCUnxVX87+HWLOmmQV10DkBFgeMEvneya/kTRmgaLLvGZRwPj9iAwK7BjA897q5FxqiSHC4K83gO51JMAhHVgfOwIJxttASJRCKRGIs0sCIQD45u7ucRrXgZHUT4c5Qnqnhqa+G3B4fnm+rUydfUoW0JQNPBeGHQxzgsGQM/DmAfiCq8UaP/lLpXawm2Q53Zeh4TcsB8tq/4soPBy/a44p+OROMKAKqTbL8E8R96/jZM9PpMZ8lDoT5OnaXNBu51kbm52eUqGMqcbIr6M4GP93tfd3hj4jKGMmcg9Un26brCiwFxLXNw4wrAE8yicJa7fFcojx1K/D/7R3Nt5TOyXmFor9VZ2i+HLyKLmV+uNVs/FEzabL9C6QQwnCWvMPBqnZr+W4aSA+aXa1XrO8xKXmBtNP+i5/pReC2MPgXvY8C4BV5cW2PJeNDkiSqlFm0v3NiwGQteSjRbbmDibILYXGu2PgdfV8NDHcOfUMZMHYvV2+uTF02EUNYDHPj9fL/FlWQzRNQg2YwF0fDozwEUGI38rSlKXDYZKzsNESY5bJh4XDgXE2eFvzn0XpEG/dpoBRKJRCIxFmlgSQZLFwhrYPLkz9i/4uueQYam1JpbL60D8gGaZaTAIOwD8EB3xFVJvxFXYM5n4Bzf0C5iFEdqxFUPu9R71C7wahy82nZFkef3oe5iVqva5oFZ8xvq1EncOJQ0y1o143qAL/UbEgS6qT/z8UipVu2TFRKZ+gARVwCe7eleF4pjDh9Hv9d4YESW8EVkKcR/rzVbP1SCRWS5yl8E8GKdOf1cJqWISLxZq1rfUwyKyDqgjXEbCBPAdI+I0v9Qo1ofjfFEFU5tLfwWbqzejAVrkszqjUyUA12vrLPYNupeJXt2c1GdUZqPFRy4c5RJ0EaAAxt+/EeJMs0P98YZgYxVE1cA+HHAsJchrpjo95sqCWdojNEKBiJaiKAlESKV3eaFUxkIi5qEEolEIjEOaWBJjhQPCI9HgQqmOUu+6BlkgBzmjEsc1KYRKLCwrtHsZaZyPWb0g/2ZHjXJGb+CTjlg7u48xlzDilIw07nzmUjrZhWMLor5MxgTDwww3za9cfmXoTxGJbQYoG0teqXDcOYcZ/n2wc7pSLaeIATu8x8j4vIZztJ3Bi3UR1VSRopJocWAuAbBI666QFijs144x1Wxe6jHGw4qocWA2mJ7HnMIirgfLv4RWQ5L6xUsaAkIZwjml2vM1g+YKc8/IgsAZrjL32DgzVrV9r8A54juiKx3heDVRkQ2CKBxlqv0YUdC5gN6tNcKpts90foNtart3hh0rpjiutcFNx7eNVlb2+lqvRUCdsWkV9ao1ifBYmk4R+ZFOtFqzJ/Qd/HqIVLmn7ivdI8RmgZLgyXtGjDuCBwnUNpk14q3jdAkGRSJRgsYCG+Tuc1oDaFEKKYriMM6aVMikUgkw4A0sCKWUP+G+yclBp1bEGGjolNWYBRKndl+roO4mANbgA94rKO5ro6CL1lnH0APKErs8pRGrU9HQaBbO4OXQuAM38veSUwlX7tjIzriyp8ai/UaMB0oeEygdTPcxetDfZwoc3seQHMPjtC/Zrhi7+v/GQPDANXpWA0i1W+4Ktoclwvn4HXWmNOnkKLYwTRAxBU9q7Cel+IKp46C/VMJLSZKbb8SaM8ByK+w8PAZWAeO2G1kPcPQ1ndHZCGfCGcS4e+1ZtuHioIgEVklfwHwlzqz/VwmLgQoSC0jQmjPG4GJ2AfnT2kp2gsgw5GQWcrRehozZXRh1MI6i/VBE6hoSoPmBnDfngna6qa29luIYQeZrq1V7c8SQ+su6t///KEh1POFL7ssabeB8fvAcWL8cZKr7D0jNA2WneqieWB+uM/vLPPTk9wV9xujSjIYGBxDYZxC2Dm2LRr70GG0jlDAAO1mvtpoHRKJRCIxHmlgRSihXrb0ro3dCx3AM0KI/DlNZb0KVtdabOczI0+ADxnS7T//0e6dxRBNzMjoitUfmvdteWuwfeostgsEI0eAf9j9HFQphKUznKOfI2gjpr2XI9l6gi7oT37v6VedjDtDfZzq5MwzWQj/mlRNAp7rCMWD/lvWWWy3M+NXfkNdCsQ1Uxq0QV2QVydmziATZwN8NTNMQXbpAvNjukJFqc7iL4JsDzu+PGHh6JaWmN8T2m0cpLMnK2zYHXj/iKwaS8cVJHgJCGfojO6ILCjabHfx6/7PmeEufoOBN2sstguJkevvIB+NunkDnPcAHDCy7LVjFq9kr57FwEIB3FxjtpV1xuoPTNijtQK4r3Kc9qjibb+LmNOYcHmtal8tGGbymzWUJ5VOACYYEaM2/OxKSj+dmO8NHGfQ2snu8oeN0DRYvkxamKyDXoBfgwsfW2Pik25B0MR2SbiigEaFs4Vs6miPBTAi0gh3W9J/DeZwi+6XSCQSiQFIA0vSHwLEGxQFeTP2l1b7b6gz288VEPnMONMocQMx21myDcC2wMUAA1RjybiAWMkVjFMBgIBKMC2d6Y7dMJKMK8D3egU9TkBPBBMrTDfOdRcPIX6pL5snaHHU1v4E4G8K8T1DSburTsycwSxKew0S589wln0+mLm6jStxdW+NB+gE47EoU1TR9MaCkKZVHi02T9DiEts6bm1t4QwCvhe4nYE3FBL5s5xl/zJCnz/+EVk1lvYrSSAbRGcS+B81qu19ZsrzN7L8i71/OkEb7R9txzr9DMCw18iaub/gawB3VFpsJQqQTcCyUZ2mtFrVXhyX0PnniV9pLQAKHcnan4RoW8jAQgBmABFWMy282Bl/93hS+HkAowI2/TsqQb8NLiNUDQ6Gpuym5qcATA3Y5FRYuWTCHm1EpXsdC3Dw35OwISYmZhyAvUbrCA28xGgFEolEIgkPpIEl6QMBrwnC72c7S7f5j1erGT8FlHwB/kk43fsn4FsGF/e3nQGqVa0X1YJyiA+kOW4D09IZ7tiNI8246qFWtd5JwLkHR2jlDHfxG6E+TnxbeymAFL/jvDzLVfL4YOdjzDfVKeIJ9otSIMaHe1xxJUcyT02idSZMlA2Iq9CvcUWPRplMxZFiXFWO0xJMXR1/QFt7OgPH9dmB+e9soqWzG0veN0DegPiMrKcZ2rM+I2sJCD8iGsDI8i3qTaR8prPYTL7oLZiU/FmNxX8f7teQ2l33b0Gd2V7MxEsYXNraEpNebbEWRTnbV/tSlfO2mu33xwBpglh2zBokDC1qd3TLeoBPCNi0n6FfMvGre9sNETZIvjA3F4BwfsCwAPG1J0ZIqrIkEO4Ip2uhQATEiQCqjNYxVHYlpf0SjNON1iGRSCSS8EAaWJI+zHSV5Ps/rk62/YgE8gH83CBJwWF8Q0SlzXGxq04Ncve627iy/W8NkEvAD7pHaSsz8me5Y18cqcYVANSNsc4WOh009RjV8Ymd9lBHLHRH4/HtfkN7PR5lwVDmrLFMtRHjDL+hNiGU3x1uTbLaMZmzWOdsgK9EP8YVA49EKVyc0ljy1VC0Dhc1Y62JrOOP5GlfBMLYgM3MwF8Vwfkzm0o/NkTgEXAoI0swa3Pcpf/n/5yUxqIqBn5YY8m4gKDkQPDfas22D6Egf6az5G/D/Rq6a1zhxqqkjEJFUXKI6T5dHW2tZltBq9v5mC/KMXvL+PSi3s9UUiqTFianNq1oHG7NkUaD2lxOwE8Dhr0Az5/iurfBCE2DpUFNv5jBtiCbdjLwk12WRT8ZdlGSARFePDatefmA3UUZ1Ba+9hVAbJputIah8uUJC0frrbgvwsr9hfPHQiKRSCIeaWBJwMBrJuibAsdrk+ynMXEeRJ+7xsbSY1zF+4wrV+BmUJ1q/20tOAfAKb4riS0Mzp/lKnmRRnjl481YEC10ehLAaN+QB+DrJ361IqQRCzssNrOHxWMAHbhYI9CtJ7cWfjvYOevUjFMEI9d/jIlts5uLBlxIAAeNK9ZFcOOK0UFEjyiKKElpLI0I46r7b8x3wUv3EJAcsJkBvMxMS2e7iz81Qt9QOGhkzV9fY5l6RY+RpRC9HszI6k4tLHsVwKt1FtsFAsgF46/VFttHCpBnhJHlqwt4Xd0Ya6EQpBHwYIJqsdfAvvQ/rti1877VDtbgI34RjMUmJWZXtWq7N7anq6GkD74ufXcH2WSf7Fre57cqnNk1Jm0WdF6D4Iva6cQUzNiSGIwSLf4JYMDfHQXcxmHsVTD36doZcegtSgGAmUbrOBIozFNLJRKJJNKRBlaEEhIHhvC60JWc1Kaij/yHK9WMU5TuVMELEaI7SYF6B6n/PwwuTUz0rJr41Yr2YMZVjWq9uAaUA/A8ACDgcwHOm+0q/ctIN656SFCTlzD4QEdIBi+d4y7dHOrjdDHuB2ii39DaWa7iFwc7nwN3jvJCWQsgxm/4jVnO0gcGel7dGOts3UvZotu4Cmz9BjA6QFitREWV+GoZhT1bzXZLNOFuD/PdjF5dGIHueuAvCYilqa4jrwkWbhA26D1GVq1lypUsKLs7Ioter1at7zEjLzAia4az5DUAr1VZMn8NFrkC+GuVavsYpOTNcRb99XCOy+h9Qggs6n4k+OoEXlFtsZ0MRh7AjxyvtmdWsT17jq/j5yxnaUHV2KzHyCvsYLZ20Kg7a1TbckTxfbP2lR5xoWVGd4eNEYmga/s00GQ8O9ldUWGMoMHx3bjbE9o82AggyWgtktDDjNYw9q9A4LOM1jAUdqkLfwoENbLDGmZEG61BIpFIRjLSwDo22aQQcmY6S94NtpGgrALww2HWNBD/IaAkPqHr4eDGlabUmtsuqSHKAXCyb/gzAvJnukpePlaMKwCoSraewYIzDwwwPvzWHVc0wFMGdxzV+lsA1/c8JvCX0UR3DWVO3RKXDz7w/oEAl0eJuqm/96/buMISXacrQP0ZV/QwRYuSWftK9wxF23BRnZg5hhVeSMR3AkgKeOGCCc8DpqVznIXbDRF4FPEZWesY85+ttUy5kkFLwHQWEfo1snxm1V9rLbbzuyOyxGvdRhby53SbXMOKr4HEJZWq/QcKeDURLwOw/oDefYX/AXC3I9la5tEpC4Ql8NI9VWZ7mSfW+6f+uqZK8J/YWPp9JHXpY4B2e0Y/AWCO0VokRwkFrWF+dTFtpyV97lRn+VajhRwpDWPumQ1d2YhgN6XCHZJrK4lEIjmayJPsMQQD7yrgnFmu0l4pGLVjMmfpXm/cHHfZZ0Zp64c9BC6JT/Cs7t+4ar+shtqWANTTXvlTEPJmOUtePZaMKwDYMj49njppLQ5+r1uZxfWHWzvqcKlPSD/OA1rlN8Q648ZZrpJBLy9rLbazBSPNf0wAd58cpLh6ZXLmHEXXs/s1roB2gFZ3G1clEWFcORIyx+nRehqzuIOAhIDNOhjrhUkpSG0siviCvIfi0EaWos0JaEbgSx/8W63Fdr4QyAHwarVq+wQk8md3px0OK6mu4n/XWGxvMuOSnrFq1fY4g16e7Sp+ibpTWG+vUtNKFJiyQVga02laVK3aShISuh4KdbrvCGD/8RFm7u22pGXC7/2XjDyYlT0U5pcZBL4GQEQZWPXJiyaSTv9gYIzRWgaJXFtJJBLJUUSeZCOWI4hbJ3wEcMEcZ0mv9vPVqn0yCJlC55sA0x8A+AwsBaH3fgLnG1D/d8xYnpjYeX9/xlWNpf2CGu7IA+gHvrm2EKNgprv4+WPNuOohuiOqHHSwGyAR0md31+gJKZ4o0wMAHeiAx8D9qe6SNwc735bx6fGikx6DX90IBv4yx1W81n+/yuTMOSbBdhZ8NUgJVmOiC4Q1imLKj5RUQUdC5jhvFN/hBS8EK4FpRgKEjYpCOTP3F9UYItBADhpZ2jO15o5LGcgH0VlE+L9q1f4+iItnB5zT/IysswXTUrDplWrVvpUYyw59biCE/ma//3mOTibghhrVvq2GsXSmu/h5clXsBnBLlbp4GZGeBUZJS8soe5XZXnHg/Dfg3LLUSrgy2VlRCKDQaB2SQ7PbnHYeE14/9J6B8K7QqwktxFhQM9a6bDBpykbQXTMOLzMw8dB7hy1ybSWRSCRHEXmSjVAO06H5FMS5gak0NebsKUyeJQxcBw7+GTiaDtAArf++ZnBJnDp69ZQGrSMwXaTbuOq4opo7ssHkS8ugj0E47Lo3I5VKi+18MG498L4x/jbLVbxqoOcMhirVdj2DLjswQKhtGx2bNZTuhjFd0RUMPmi8Ad9Fe+mWnseVybZUYloCwfNFcIehHeBViDKV+lK0wp6asdYJwqtYPeAFOFhsvwcPgZ/ysig42VW2wwh94QRBE3BjA2P+C1WWqVcRKBuMH4Hp5SrV/i4YeUEist4FcE51ku2XrFAOE56rVu2fVhMfiM4MVgMrlG1JA+fyHetddKeCPletZn5cLUTO7KaSf8xxFewGcGt1YmYFTJwDQmFLy6g/Vllshewc/WgqtK7A+Y9Jl14iCStEQwRkuKmxHmEDkG20kEOx27LoQtaxDpFeM66f62qJRCKRhAZ5kh2ZbAUod7arqFfh8m3JiydGsVgs2HsTQOFUZPJrIhTHmmMfmdKgdfSNuJpvqrJMu7JKdGQTY5Zv8ENWOD/VWTzsncfCjerEzDHM/CgOhnvsR7Ryc6gj0bYlL54I4b3Pb8jLurj+1D1a22DnrLTYzmfmBf5jArwgpaV4b7dxpeRA8GUIvkpoA7CKo/XS1L1l3wxWw3CyLXnxRJMQNuHhm0GIDdjcBeInFBFdNMu9LOzv7A83voispxjzn/Ezss4G4f+qVPu7zIqW6i7sFQk4u6nkHwD+UW22/0IQcsD0crVq+6wSSh7ARpRfrpnjKr6l0pz1cyKRzwr9vVK1vwdGTqq7+C1ft81rK5MzC4lZA9OfSO2wVbF9WZu78YlT8bDHAM0SiSQIgmJ2mTikGfpHB+KMnZb058K1FtaXJywc7W1VNGakIwIcwUMia2BJJBLJUUWeZEcSjGoQF8927VxH2HCgQdWWhPTjoqOjFkHX7+a+i2Yj+RaMFQdSZZy9NzI0pcrccWkVkE+MWSAAjA9I4aLZrt6pQ8cyHIUHwfjegcfMt6eGOBKJAarR9YeZDnbEY6Agtan048HO+W9VUxXueJj98qwI/DgrqK9S7WshcDXAwXKkOpnwhMkk8iKlOHulxXaiwpTGur4AhNiADNouAOt11vNkxNWhOWhkaU9XmTsuJQVLwTibSLxRpdrfpyCphbPdxa8DeL3SYjtbYcoD+C++TW8P/ysAfEbbm1Vm+7lEVADiN/2NLF+ts8srk22pClMuAw/HqcnZ1Wwv/MYd+xjQYYRsiUTix1Tnzq93qyd2AhhltJZDEKMwv7gnMe30Cc0V+4wW489uc9p5egseImCa0VpCSBQDdKyWs5BIJJKjjTSwRgZ1RJw3yzX6WYJ2IHNlW3zWeFO0sAG4DYzR4dLumQl7CPzHaGfbIylY2RmYKrgJWtR4tf3qanQsJmAGADDwnsLI9y1EJT4qLbZrwXy539BTqe6S50J9nGqL7XYwfnVwhD9rdzkLhjLnKO58iAkn+A15mej7JLAV/URcMfCQ8ChlJ7cWfjuUYw8XdWb7VC9xFpiuZyC613eQ0UFEq7sUvXRed1FvyRHgn1pYrU6/GuBsAD9iX2phsIis1O7Uwp9Xme3ngpBrjPKD+FIf36i22C4CUx4Ib1ap9jdIoZzZjUUfpDaWVAK4vMqc9V8gkceEVePVjjQmfsKYADKJRNIDYYPeQGmfg3G60VoOg6ldJry+M/7u86e23mf47+euMWmzSOdCBi42WsvRQTMhxA10JBKJRNKNNLAiGAZ2KqD8Wa76p/wjrmoT08bqUVEZYHEHgHgDJQYl1Vn852Djm6BFHa92XsPoWAxQT02kd8HISw2ocSPpjuohxkq/oS87EXtnqI9TlZSRAqaSAwOMDjYp1w0lnanKbL8CxFcGDEeB8Ysgu7cS8UNdHr1sXkv5d4M95nBSlZSRAsW02AtcA1DgebYN4IcRbSqdHSE1u8IZwgYdLjzJmP+0n5HVE5EV1MjqMY62xWeN7zUX8Wwj7pzPdpa8wsCrNWrmxQzWWPD7VWb73wQj96Sm4k/muAs/A3BRZVLm6TAhjxhDMo8lEkmIYLwPRISBBQA/UKKj3v8iKe3KE5sqPjFCwBfmjGlC0W3QcWOQ38YRQ0P3+koaWBKJRHIUGLE/HiMZwXATcEt7QE2UrWa7xQSkeQl3gZF4JHP2DgwJOQ3M9HR/GzdBizpO7bgW6MwW4J4w8nd8xtVboZcT+TA0pYo7HmegJ6VPgHHDD9zaEMqpBzvOfFO1YlrD/kYo0WJfitOgqBlrnaB76cHD+KS1gvCg1+MtjxTjauuYzFkmnRczcBX6tohrBfFDostUHikRZJFEoJHFPiMLJN6oVO3/AkMLPJ/0vA9xZtHa1MJvApRfrdovq2RaOsc96gX/iNYjRaDveXWgTzwBDFfRCwztpWpzx3wGcknBR5Wq/RVAyU11FX6e2lT0EYBfbbdknkXM+YPVJpFIQgMx3mfCQqN1HAFThYL3dqnphVEJesnAnU5Dx0417ScK+B4B8RswRX6dq0MQP+67KOw1WoVEIpGMTKSBFYGkNhXXA6jvebzDYjN3MN0DYCEAs2HC+tLATIUd7v1rgkXrbMaC6NFq8nVAx2IAU33Lu7cZSt5JrsJNw642gqhWO+8C8D89jxl8/0nukpCbfVWWqRlg/Mhv6O05rlH3DnY+BqjKozwC4uQBdmth4gdHeZTylJaiiLgErEy2pbKuZJPOl6Nv+mMzmB6I0bE8paU4Il5PJBPEyFoC4McgvNmfkeVbxJ1babGdzUy5IN5QpXZsq2T70jnu2I1DMbKOXL8m4MZ6xvznqyxTrwJTDiA+q1TtLxA0YRAhAAAgAElEQVQp2hxn4faTnEXvAfj5JmjyN1wiMRCKNr3PXv3QO4YX0QTO1VuU6xvMaYWt7sS1wTqdDpUdSRkpisLXEPgaANMRLnUshoFWT4w8N0skEslRQp5gI5jKcVoCvO13dbCSBgxoCAwzvIuYCvvrmrUZC6LjzMm/Y+IsAFN8z9mkQMmb7SoypKhyJFGZnDmHdS7yuxbsgsDfGZoSyoX2NkvWXLDQ/IaaFeCGoRyjymy/BYTz+9ncQoQHoj1UESlGzzZL1lyF9SUQdAkRBxpXbgatNOm4d3Zz0X5DBB7D9Daypl7DoGwcwsjy1cg6rzvCCbkgfq5K7dheybalc9yjnx9eI6u7WP0maM8ep3ZeB4glzGLLdnPmcyIKeXP3F9WcI2usSCSGcuK+0j0NlrRaMGYarWUQTAFhdby5eWkDpa1TBNZPbEr8dLDnuYax93yPvVE/JPB5AM4DxIwQ640YRukmub6SSCSSo4Q8wUYguyZrse3OjjvZ02EFaGz4NDrhXcRKQZu7cW0w46oSWgybO39HxFkMTPbdjXuLwHlzXCXvDLvcCIWYfxbQTTKGFPp7lbnjm0pkvgjw83PcO972r4t2pFRCiwF3rIVfdyViWjjbXdQw2Dm3mu1TQagIsqkFTH+KEl0VM8OsQ1J/VJmz/otJXwIWv+kumdQLJ4D7dcZ9c91FzmDPlwwfPiNrLWP+usM1snwRTr/Ylmz7kYkpl0Hrq9SOyiq2L53tjt0wnEbWOdC8cOHxzVjw1Ghz8o1EvNikY3ulan8mxkuLIiVKUSIZsTA2AMg2WsagIRwPIE0oSNutNu9rQNpHYGxhhb9ShLKfgX0EdgOATog3McVAEcdDKN9n4u8TYQYzToEX4ylsrkeNpTNWiUKz0SokEolkZCINrAikw9mRykSloZ018KLjiEK9dwJU0O7a92R/xhXMnTeCOjMJmOSb+w2QyPNFPEiOAAaUoO9P90XoHwD6Q5U6fW8VZb6kC36+09246YgLrps7cwGa53fUV+a4ix4dvGZNqaKuJwBO8Btu7jauOpdHinG1Pcl+mqJQDoMvAJTAN2E/AfeOIrFymrPEHXQCiWH0GFmboD09Xu26miGyAfIZWVnvMKAFpi6f3FjyPoBfVidnnikYuQw8W6V2LqmirGWznTHPDWxkBQbkEYaSQnMqHvbAjYcroa2BpXMRGEVdJloD4M1DPVcikRw92IR1pEewgdWbsQAuAOECYgJT97VhzxWiAnSPMQE926Rn1YdofeQWqJdIJBKjkSfYCMSDvkujocL9/P8Q7GbQilhX859TsLIzcGMltBhWu65kdOYA6CnO/h5AS2SNq8EjWDEdxl3Occy4hYhuiVXHOCuR+SqTsmGUs+n1YO+VP1uTM8+EgO3gEWgfRXsXDEVzpbkzHcDZvoctBDwmPFQYKcXMtyZnnqkIZAG4QPRxIWgfAw90kr7iVGlchT2+iKa1DO2pKnPHpUy0DOCfAHhru5r5HkgpOclZ8Ir/c2Y3Fn0A4FdVyYvPEEIsZuanK81dOdspq7jK5Vh3eT/RjkdjXZcKratStz/PChUdOxVlJJLwZcr+ipoGNW07gJOM1iIJDzyiS66vJBKJ5CghT7CSwbCDgILvXKOeDFaDxYE7R3Va4m9m7rQDmAgAIPxDEPLmdi8EJUOAwAfWrcz8oQI8DqLLGDgHwb/TFgauA4vrOtUEVyUyXwHwfJw66vUpDVqH/46bJ2hxSlvnGvbvoMfittS9Zd8MVm+VJesk0d0xrZmY7lcEr4iUmlCVlswfg7GEBc4LsvlbZpSL2K6H5n1b3jrs4iRDwlcsfcMmaC+OUzuvQXcK0Flg8fI2NesdChKRNaex4EMAF1UlLz5D6HoOQE/MMafYK5WsZXOcMc8OZ2qhRCIJIwjPgFFgtAxJeBAlZASWRCKRHC3kCVZyJDQQc9F37tjHghlX3amCHTd0Ei0B4wQAYOANk6Is8S38JCGAQCb2xXaQQk2pzqKHATy81Wy3KKRcBPB8AL8AEBPk6SoD1wG4rtXV2bZdzXwLoA0UHfNC6l6tJbatsxSAX+FVXnuSu3jjYLVuxoJowbwSRPeSHlOa2qQ1Dnau4aS7G51iY8aFQTZ/B+blHfGxK0/do7VBxlxFNL6IrCcY2pM9EVl0iIgs3/ns15Vq1imsIIuZn6pUO5dWsr2kv/OjRCIZuUR5Y1Z5TV2ZABIOubNkxCNICaeO4BKJRDKikAaW5HCoB7Bsr2vUumALs12Ttdg2V9ctQKeNQd8HAAK/BmHKP6mp4ONhVzvCEczUp2w4gLnuYieAtQDWHjSzxGUA/QJ+xdj9iANwIcAXsqfzwUrV/k8Gfu23/UsPYu8eitbRFsv3oI+6NFKMq23mrPOIeAkzfhy4jYCvASqJU2NWT2nQOqRxNbIYKCKrUs18W4C1k13F//R/Tqqr8HMAl1cmLf6hIJELolXjzJ0LKxX7MsFsomOobbxEcixzQnPR/t3qokcYdI/RWiTGI0xinNEaJBKJZKQiDawIJdS1VfyXWQfnZgeBCvozrt4/YeHoxJbRC5pdnVYCJvie+ioJzk9tKv4kxBIlPghQ/N7/oB8FfzPLkawltXPHRcR0GYBfAhgd5CnxDLrA7zEz800/cGuuoWhNdZZ8MZTnDxdbLVnnk+AlID4zyB/0CyIuiXG2PpqClZ0Y0l9EEu70RGRtgrZunNp5DQPZDPwUoE3b1My3EczI6jbqL9ieZD+NFeQy01MAvAw09OwT6txCBjDoNqMSiSTkmJSoCq/Qb0fw6GfJMYQi6DijNUgkEslIRRpYkmA4CPTAXteop/szrpJaYm/lFlgB/h4BDPArzMib6y7+1AjBxxJCgeJr/gMWh/YyUxq1JgDrAKyrHKcliK6OC5joMuqOtooL+iRG51x38RuhUx1+MEDbLZkXgJED5tOCBMvsYuZikzt2TSq0LgMkSgzE38gao3ZdS+BsHMLIOqnbuL9wm3nxqSCRC2CWEdolEsnwc0Jj6VcNlkVPgOkWo7WMeBjfQKF/gXm+0VKCwnS80RIkEolkpCINLEkfTnYVXRtsfPMELS62retWbmYrE44HwAT6i87In+cu+myYZR6zENjUEzOnHGED69S9WguA9QDWb56gxcW2dpzPoMtAuABAYujVhh8M0DY18zfbgSVg/FeQXXYAVNjp2vfkqXjYM+wCJWGFz8haswnaU8GMLAZy57qK3vZ/zsnugs0ALqpKyk7pPZsYvwlalKyRJZGMTGK8lNVlwsUAxhqtZQTzHZnEuczKTwGEpYHFhJlGa5BIJJKRijSwJACjRgD/7m/zlvHp8UpnzG1o68xgYDwIDOAlBZTnqwEjGUaYoYSiss6pe7Q2ABsBbNymZl7i+/+IhaEpVebOS7YTlhAwN3A7AXUAFex1xQSNPJQc2/RnZBHwz21q5j8Z0AKNrDlNyxw9/yeiT5lxy1i1s2Yrspbtd8U8JT9nEsnIYkJzxb4Gc1omCKuN1jJC+Y4U8T+TGldU7lLTUsK2yiAh1WgJEolEMlJRjBYgGSwUin87mZVb97lHnRws9W/L+PT4bWrW3UpnjANAOUDHAcqrzHzaya6ii6V5ZQwExdTzHjJMISmHpgDevp+PkQFDU7ZbFl+0TfVsFkQbAJob8Fp3MCu37nWNSj3JVbhWmgqSgTgHmneuq3DNSa5RM5iVywlUB9DPCPTPbWrWu1vMWT8P9ryTnIW3gugUIvqMgMfGqV2ObWrW3Q7cGazBwmEwcr6jEslIYpK74lEG/8toHSMOxjcw6T+b1LiiEgBYiD1GS+oXRupmLIg2WoZEIpGMRGQEVoQyJNeCUc2E4lqXY93l2NCnDvCW8enx6Iz5PXXCxsD3ADCDXiXWNVnjyngYRAc+AXRkKYT9oRO8Ie8MYDAMTdlm9ly6DV15YMzuHuu1RyWDSvv7HkgkA9HTtZChbdxm9lxKxAUMnEWEN7aoWe+BkTvPXfim/3NOdhZuBXD5VsuSkxn6EjBWtKmJC7cga0Wcq/nPKVjZebjHH2FfV4lkxEAA7zLRAuj4BECC0XpGCLs5Cr+asv/emp4BEUX/UULdHSN0JIxRk86CC/80WohEIpGMNKSBdSzRY1y5D2FcdZAdxMfDZ1yBOXeeu0DWuAofDkROMigk61gS7GUaGREdB4wrpWspOGgdiu0MlNW66qVxJRkywYwsAGdhACNrrnPpNviMLBqikSWRSMKPKfsrahrUtN8BeB4yXHJIMPAJopX/nbK37Bv/8WmNSf/ZrTZ3IUy7PhL4QkAaWBKJRBJqZArhsUEVA7+rcTtOnucqXBu4aK8cpyVsUbPups6YHQTcC+LjGPSqgPjvea6Ci+a5C6V5FUYQH/zeHmkR937nJCXii5VvxoLoLWrW9dvUrmoQPxfEvNoKpstPdhXODfY9kEiGAkETc90FG05yxcwC0+UEOOhgRFbQ1MK5zqXb5joLLweZ5gH0DgHL29TE2i1DSi2USCThwGRXxQsALTNaR4Tz0qi4xJ8FmlcAQNC8IOwyQtRhcvNus91itAiJRCIZacgIrJFNFQMl/aVIVY7TEryerpt1T1cmAeMBCAa9GgVekuoqkPWtwhQ+CsazTuwljsybxJXQYrxq15UELAEwve8etAWMgpPdBc+TzLySHGV6IrI2Y8FL0erYqxQgG4cXkXX9FktWKZisBF7eriYu2oKs5UlqzKopDVqHMa9GIpEMhUmuBO0LtWkug35jtJbIg5ZPciVkkEvrN1GQGXWEsO34pzJ5FgNIN1qIRCKRjCSkgRWhDLQKp8MwrvSurju8ni4rgGQGBAgbFEXJnbt/WfXRUy0JBUKB0pM4yCEyZIjgDU0s1/DRY1x50ZULYGof+YwPoFDRXGfBq9K4kgw3p+JhD1xYuxkLnolWx16FwzCy5jkLt8PPyAK4osnVtWiL2tfIkh9oiST8IWjiy4SFV+nNygsg/pXReiICRgeB7prkLj9kJ0cCOcL8bLhot3nRR5PcyzcYLUQikUhGCtLAGlFwJUClNf0YVzVjrYldnqjbvZ4uKwjJ8BlXpHDO3P1FNUEmlIQh1DsCKzRF3L3sVZTIiMBy4M5R7eak33mpKwfA94Ps8h6ISua5Cl4Zbm0SSSBDMbI+T15SQkLYAo2stkYZkCWRRAoTv1rR7sCdv41WY54HcKHResIaRo1Q6IqpzvKth7l/VZhXGCMmeqrBkh492Vn+tNFiJBKJZCQgDawRAW8DI3+ue9QLhL6h1v9WNVVB1z3/397dR+ld1nce/1z3nQkgCTMJT+qiiNajW1ceI1VAz6LW7lG7D9W62m2r1YIPR0AeNORhwk0SAkEJVpRVWq222mqp7Wmt7HE3Sm0FQTBA3Xi0WgVlFQSSmQQCycz8rv0jMzCEgIFM5p6H1+u/uWbu33xzmDPMvOf6Xb/twzkrJX1JRpLy53WkWX3s1ov/tQsDsxdKbVp1on9ia039M7BuO/y8A+v2ue/aVst5ow8Z2NW1TVorjxtY/Y+TPRv8Mo8KWb0H/35KWZaHQ9aSr6Wkc8zmi/95/GuO3bRqY5Lf/5cF/R8cfWrhui0DO85JaX92iu86AMZ5fq7YvnGg84YD+7Z+Icl/7fY8U1FJPr3f/uW9T7/7Qw/s8YvmDF+fkfY+nGpCzE2tn72979xF7XnNsmfdefmD3R4IYDoTsKa1nTuuHu9pamM7rmp2LE6yIKM7rjLc6j9m6+rvT/68TIT6qKcQTsxvsa2S4an6+/DDT8fcnsVJnrGbBy/udhcLTEWLctVQBvPJm3P6nz2yI6u8MjWv3Lkjq7XimMHVXxv/mrGnFt66sP9FpWkWp9TF3ZkeeKpelM6OOvDbb7xjwbMvTs158XTCMVtLqe85cvO6zz7ZFx5534e/d0ffufcmOWQfzDWRSpKzh+9vvf6O3nOWPXtwnTM5AZ4iAWsaGim5r6S+4ZiBi/92d/8D3HhQZ+FQa+jsHcP1zFpyUJLhmny6p2kuetGWS37YhZGZWBN+iHtp1eE6MrV+lr5hYeegA+qOM7I9Zyc5eDdnXP2v0q6rjt508Te7MB7slcffkdV89ZftyLp1Yf/aUof7a8rjHm4MTD0lV49kcz5wR+85N9VSPpVkXrdn6qZS8pXalHcfOXDZU3qaYEnqHanXTZdD8kvy/FrKX93ed97bM/ChP+32PADTkYA1DR03cMntSW7fdf3G+UsO3r/VPnuoDJ2R5KAmZSjJn7ZruejFg6v/bZLHZB+pKe1xf7idmEPch9tDzWN3NnXFLX2dvpKhM9MMva+m7PoI6prky7VprTxuy6qbujEfTKRH7cjqPez3a6nLxnZk3dq37Ksp6Ry7+aJvjH/NaMh6c5dGBvbSkYPrrr5j4dnfrSPtq1Pqv+/2PF3wi5Scc+Tmyz63txeqyT8lmRYBa0yr1p5uzwAwXQlYM8CN85ccPLfdPqOkvq+m9iYZSvLntSmrjtuy+gfdno+JVWtapYx7awIMl+GRku6eI3HDws5B+4/seHcyNHbL63jCFTParrcW1pT+JK9Kzatu7Vt+Xal5zK2FwPR15KbLN96c0485tPegc2qpK5PM7fZMk6KUq+cO1/c8c+tl907E5YZbuXpOkw/FLZkAs4KANY2ND1cZF65GmpGVJ7hVcMYqrbQe2Xc1MdumSrs9lMecojY5Hv46bobOSil9u7y7Jvlyq7Y6Rw+u+nY35oPJtOtTC3eGrHpyLfnqLA5Zz7u979ybuz0EM1OTHNSt8jEartf+dMHZ1zS19Sc1ObFLo+xzNbkpad5/1ObLvz6R1/2VTet+envfud9MctJEXheAqUnAmsbm9rReUJr6iiS9O1fqPamt6/bfsv9PujoY+1RJaU30zX7th+rwSM/k/gh/27zOYekZPq/W+u6k7noOSJNa/qq0mouO2bzm/07qYDAFjA9Zc/oOe1dS142FrNv6lq1vDdXfffEDa+7u9pyT5IAkJ3R7CGamqbBt51mbL/9OzW+fdHvfs3+3JCuSPLfbM02g7ybpf87AZbs9t3UilOTzVcACmBUm/DBoJs9xmy66/tiBi15ZS3NKkn9IyjNT6seH+oZ+eFvf8rOuP+LsA7o9IxOv1vFPIZyYWwi3terwRFxnT9w2r3PYrQuWX1LnDP241vr+PPoQ26aUXD3SLv/h2MHVbxGvmM02pjN3Tu+hf5DUxRn9g1NJ1jdNa+ksilcwK5RcPXLUwGWfuXdg6wtLLacndbr/MfL6UvPbRw785OjnDFz2N/vyqXtNT+vqpFv7yAGYTHZgzQDHbb74uiS/uWHhkpeVprU0yetq6ocPuP9pS2/tXbpu+MC5Vyz6WWdbt+dkYtTx4blMzC2E7TnNcK3jLjsRF93Fdw5cevjQ3NbZTR06MzW7xtUmJV9sDZf+Y7au/v4++PQwbWxMZ+5Q79DbdpShFUn+3ejy+jStpcc6Aw5mtNHbCv/4Bznjz3oWzH1jajktqa/I1Ngs9ss8kJS/bZqRK5675fJvTdYnPeqeD94Vv9M8xlED617R7Rl48p4zcNnB3Z4BpjLf7GeQ4zdd/M0kv7mhr/+YUpplqXljLeWS9rahc2/tXXqZkDVjjNs5OUGPDjzggKFsG5qQS+3qOwuXPWukyXnDyWml1l3D1VBJPp+RZvWxWy/+130yAEwTTxSuZtXDC0rzw6Q4846uKWkPdnuG5+eK7dmczyX53I/mf+AFrfbIaUl+J8kzujzaroZrcm0r9bMH9Dz0N4fdc+X93R4IgJlrOvw1h6fo2wuWHt1KWZ6aN2bnf+t7k/KxkTJ0+aLNa7v+wxlPza19y/6sJr+XJLXkC8dvvujNe3vNjenM3dE3tH3s7VLz0LGDF+3VLagb+pYd2UrOSc3ptWT/Xd49VJLPe+AAPBKuasnsDlfAE6pJ+UnvucfXUl+bUl6XmpekG8eB1NxVSr6SWq5pyvD/PmrgwwOTPgMAs5KANQvc0rf02Jr0l5T/lrGQVeq6A9rDH33hvZdu7fZ8PDm39C37bJL/Mfrmj0rK+/914Pt/96Zc/ZTPf6jptG7tG3r49XsTsG7uXf68VqlLy87I1rPLu7en5pMjreG1izavne7ne8Beuf6Isw844P4DTx894+oZSWpSv9SqufCYwTUbuj0fMLXdOX/JwUNlx6LSzgmpOSE7H3Zw5AR/ml+U5HtN6q0p5YbSlBueM/ihH0/w5wCAPSJgzSK3Lux/UdPUxdm5Bb2dZEtK/mepcy45bqDjr2fTxIbe5X+RkrfssvzzmlxVhkc+dvz9F9/zlK7bt3wkY3/JrXno+MHVTypg3da7/KimVc+vtbw9j709eUcp9dOt0rPqmE2dO5/KfDBTbExn7kO9I28rpT5qx1Vpih1XwF656/DzDtw+VI9shvOsUsoRteRZrVoPr63aTlp9qc2cpMxPklIyUlO2JElN3VxquTslvyhNc3dTWz9Ja/j7dlcBMJUIWLPQhoVLfjUj7WUp+e/ZGbIGavJHPXX4j44evGRzt+fjiW1Y0P+u1LomyYLHvLPmoVLylyXlimMHVt3ypK7bt/yhJPuNXWdPA9Zuvp7G21aST4zMaT646N41P38y88BMM7bjqibjdlzlS01tLlxkxxUAADwhAWsWu6m389w5raHF43bM3J+UT/UMjazxiPap7drndPbvHRh5U1LPTXL043zYt5PykWbg7r9clKt+6QntG/qW35/kwCR7FLB2s6NvvAeS8slmzsglwhWznR1XAACw9wQscktf5zkpQ0tqLX+QnWcW3Z+UTw33tC8+8Z7OXd2ejyf27d7+E0qpZyV5S3b3ZNGau9LKZ9plzkef6Pa9DX3LB5L0jr7mcQPWzQv6X9yq9f3ZfbjytQOjhCsAAJg4AhYP29C37MikdU5S35mdt5LZRTON3HzI0meU4dY7S/KeJIfu5kN2pJS/S1OvOn5w9fpd37mhb/m9SQ5OstuA9e0FS48uaS9PrWNPtXxYTbaWkiv3G5lz6Yu2dDZN2D8KpiHhCgAAJp6AxWPcvKDz7FYdObfWenpK9k+yPaV+pt3KymPvu+j/dXs+ntgPcsZ+g70H/eeScnZKXvY4H/bt1HLV9vn3//lJd17+YJJs6Ft+V00OT5LUPHTCaMC6pW/psbW0l9bdhKskW2vJlXOb4bXOT2O2GwtX2SVctYQrAADYawIWj+tbC5c9q92Uxal5x2jIerCk/HGr3VwqZE0PNy3oP7mVekZqfis7bw99lJLcneSqzJnz8WZ4+MaSHJEkqXmoaZVXt9L0p5bf2M2l70vJ5UNlzhUv3dTZsm//FTC1XX/E2QfMvf/A08suh7NXh7MDAMCEEbD4pW49eNm/a0ZaH6ippyU5IMn2JH8y0qprT9x00U+7PB57YMMhnWdmePhdSU5/eJfVo40d8v6YyLWLe0rNZdt6dlx5yr2Xbp3YKWF6Ea4AAGDyCFjssQ3zlhza9LTPLTVnJHladkaPz6eZs/KELZ0fdnk89sDGdOY+2Dv0X1qlnFWTk5/ES+9JcuVQa846O66Y7dwqCAAAk0/A4km7eX7nkNpu3ltS35edT60bKqmfbzVZddyW1T/o9nzsmW/39p/QtHJ6qfm97NxZtzu/SK3rcuCcKxb9rLNtMueDqWYsXNWSh8NVSdaPNFl6onAFAAD7lIDFU3bj/CUHt9o9Z5TUs5L0JWlS8sU6XPtfsnX197s9H3vmtnmdw4baw3+QUt6T5Nmjy3en1st3zH/gI2OHvMNsJVwBAED3CVjstesP6iyc2xo5O8kZ2bkja6Sk/kVtz1mz6L7O97o8Hnvo5pzeU3qf/ltNmr6+wcFPPz9XbO/2TNBNY2dcJeXhM65K8qVa2xcuGuw44woAACaRgMWE+cYhH5i//9Dc96SUDyRZmKRJck1NVrxkYNUtXR4PYI/YcQUAAFOPgMWE23hoZ96DQ8PvSMqS7HziXZPkmtT2BXYtAFOVcAUAAFOXgMU+s/HQzrwHhobfUWo5PyVPT1Jr8uVamwt/bfCim7s9H0CyM1xt6x15WylZUcc9VbAKVwAAMGUIWOxztx1+3oHbt+//h+WRc2SSZH2aZtlLtlz0rW7OBsxewhUAAEwfAhaT5gc5Y7+B3r637vrLYmmyfNGWVTd2dThg1hCuAABg+hGwmHRjvzympD/JEaPL15WU/kUDK6/t5mzAzCVcAQDA9CVg0TUb05m7rW/kzUlWJHne6PJ1tZYLThxc+dUujgbMIMIVAABMfwIWXXdzTu8Z6Tv8LUnpL8mvjC5fl5K1J25e+aWuDgdMW2Phqpby8FMFk7o+whUAAEw7AhZTxljIKinLkzx/dFnIAp4U4QoAAGYeAYspp6bT+lZv84bSyqrUvGB08Ztp5eKXbF75DyWpXR4RmIKEKwAAmLkELKash0NWsjIlLxxdvrXWrDlxcOVfC1lAIlwBAMBsIGAx5dV0WjctaF5Xay5Mctzo8r+kZrWQBbPXxnTmbu0deVsZF65q6vqWcAUAADOOgMW0MRayUtOpyfFJUpLv1NQP3THwvc+9KVePdHtGYN8TrgAAYPYRsJh2alJuWrDi9bVmRZJFo8sbk3qpkAUzl3AFAACzl4DFtHZTb+fVI6W5qCQnji59N6lrtw20/+LUdIa7OhwwIcbCVauUC2ryzES4AgCA2UbAYka4qbfz6qbVrE7Nr40u/ajWuvbBwfanhCyYnoQrAABgjIDFjHLDgs4pqVmZ1FN3rpQfp+aSBwcjZME0sTNc5W0p9YKMhqsk61tNI1wBAMAsJWAxI92woHNKremU1FftXCl3JM3lmwY2f/y1uWJ7d6cDdke4AgAAHo+AxYy2M2TVxSV5fZLU5Ccldd2Dfa1PnHp756FuzwcIVwAAwC8nYDErfHNB/8mprfPHQlZSfpo0lzXztl510p2XP9jd6WB2Eq4AAIA9JWAxq1y3sP9lraa1NCmvS2pJ8ovUuopY3ZYAABChSURBVK7nwNYVi37W2dbt+WA2GAtXdZdw1TTN0pOFKwAAYDcELGal6/o6x7ZLltaaN+4MWeWe1OYyIQv2HeEKAAB4qgQsZrUbFnSOTrL8kZCVe5PysZ7y4OWLNq8d7PZ8MBMIVwAAwN4SsCDJ9Qv6X5zafn9Jfiep7aTcl+SjDyUfPnWgM9Dt+WA6Eq4AAICJImDBON9a2P+i4aa9+JGQlU1JuULIgj0nXAEAABNNwILduGFh51ebJucn9S1J5iRlaym5crh5aO3LBy/Z3O35YCramM7cwd08VbAKVwAAwF4SsOAJ/HNv57ntVhan5u1J5iS5vySfKkM9a176wLK7uz0fTAWPhKvsEq5aS0/eskK4AgAA9pqABXvgxt5VR420Rs7fNWS1e3Lxifd07ur2fNANwhUAADBZBCx4Eq7rW31kK8Pn1OSdSfZL8kBJPjk0p+eSV9y77Ofdng8mg3AFAABMNgELnoJvLOg8u11zbq05PSX7J9meks807Vx4yr2dn3V7PtgXrslH9uvr3fRW4QoAAJhsAhbsha8vXP2sOc3weUlOS3JAkh0p+XS7ZNVLN3Xu7PJ4MCHGwlUdF65qsr4IVwAAwCQRsGACXDevc1h6ck5qzsxYyEq+kNq+8OTB/n/r8njwlAhXAADAVCFgwQT6p3lrDm337Dg3NWckeVqSoSSfL01WnrSl88Mujwd7RLgCAACmGgEL9oFr53cOmdvOe5O8L0lvRkNWu2mveumW/h90dzrYPeEKAACYqgQs2IdunL/m4B3tHWeU5KwkfUmaUvLFOtzuP2Vr//e7PR8kO8PV/N5Nby27HM4uXAEAAFOFgAWT4PqDOgtHWuXMXUNWadUVJ93X+V6352N22hmuBt5aSh0Xrsr60kS4AgAAphQBCybRNw5ZO78OPfSeUrI4yYIkTUm5piQrThpYcUu352N2EK4AAIDpRsCCLrj20M68OUPlHSVZkuTwjIaskdpc8IrBzoZuz8fMJFwBAADTlYAFXfRwyKo5PyVPT1JLypdrbS48ZbBzc7fnY2YQrgAAgOlOwIIp4CuHf/DAp23f9odJFid5xs7Vsr4lMLAXxsJVdglXvq4AAIDpRsCCKeTxgkOaLH/5lhU3dnU4pg3hCgAAmGkELJiCNqYzd1Nv620ptT/JEaPL15Wk/5SBC67t5mxMXcIVAAAwUwlYMIVtTGfupr7Wm5O6IsnzRpevqzUXvGLwgq92czamDuEKAACY6QQsmAZuzid6Huy7+y01tT/Jr4wuX1dK1r588wVf6uZsdM9YuKq7hKumydL/KFwBAAAziIAF08i4kLU8yfNHl4WsWUa4AgAAZhsBC6ahmk7rG73lDbVVVqXmBaOL3yytevEpm1f8Q0mpXR6RfeCRcJVx4SrCFQAAMOMJWDCNjYWspKysJS/cuVZubdVmzSmDK/5ayJoZhCsAAGC2E7BgBqjptL6xoLyu1nJhkuN2rpZ/KbVZLWRNX48Xrlq1teSUweU3d3M2AACAySRgwQxS02l9fUF5XamtTlKPH13+TpIP3T3wws+9KW8a6eJ47KFr8pH9DuwdeGvGhauSrB+prSWnClcAAMAsJGDBDFRTy9cXrHx9qVmRlEU717KxJJcKWVOXcAUAALB7AhbMcNf2rnp1q9Q1SV4yuvTdJGuFrKlDuAIAAHhiAhbMEtf2rnp1q1VXp+bXRpd+lJq1zWDzqVPTGe7qcLOUcAUAALBnBCyYZa5dsPqUVm1WJjl1dOnHqblEyJo8whUAAMCTI2DBLDUasjo1edXo0h0l5fIHBno//tqcub2rw81QY+Fq16cKVuEKAADgCQlYMMtdu2D1KaXWxUleP7r0k5Ksa/pGPnHq7Z2HujnbTPFIuCq7hKsiXAEAAOwBAQtIknxtwcqTW7Wcn0dC1k9LclnPvAOvOunOcx7s5mzTlXAFAAAwMQQs4FH+ceHKl6UpS5O8Lju/R/yi1KzrmX/gR4SsPSNcAQAATCwBC9ita/suOjalWZqaN2bn94p7UnPZ/QeOXPGbP+ts6/Z8U9E1+ch++/cOvLVVygV1XLiKcAUAALBXBCzgCa1fcNHR7TTLx4Wse5N87MHWyLrXbups6fJ4U4JwBQAAsG8JWMAe+fqClS8eqeX9JfmdJO2Mhqzh0nP5r28+f7DL43WFcAUAADA5BCzgSfnawpUvSlMWjwtZ9yX5aDLy4VMHOgNdHm9SCFcAAACTS8ACnpL1C9f8aqsZOX9cyNqakivnNHPWvnxwyeZuz7cvCFcAAADdIWABe2V9b+e5rdacxan17UnmJNlaS64cGhm59D9t6Wzq9nwTYSxcZZenChbhCgAAYFIIWMCE+HrvqqNGWuX8cSHr/qR+qvQ0F596T+eubs/3VAhXAAAAU4OABUyor/atPrIk5yR5Z5L9kjyQ5JNz5pRLXnHvsp93d7o9szNcbX1rSi5I6rhwFeEKAACgCwQsYJ/4PwsueXa7Dp+bmtNTsn+S7Sn5zHB7+MLX3Nv5Wbfn2x3hCgAAYGoSsIB96isLVz+r3eS8kpyW5IAkO2rJp9tleNWpmzp3dnu+5JFwVceFqyJcAQAATBkCFjApvjKvc9icnvY5qeXMjIasJF+otd159eCSH3VjJuEKAABgehCwgEn1T/PWHDrUM3JuajkjydMyGrJaTXvlqVuW/HAyZhCuAAAAphcBC+iKa+d3Dmna7fcm5ewkByUZSvL5kaaues2W/h/si88pXAEAAExPAhbQVeNC1vuS9CZpUvLFMlz7X7m1//sT8TmEKwAAgOlNwAKmhPXz1xxc2yNnlJSzkvRlNGSNtForfuO+pd97Kte8Jh/Zb+5unirY1Cx5jXAFAAAwbQhYwJTyjUPWzt8+NPyeWuriJAuSNEmuaVL6XzOw7NY9uYZwBQAAMLMIWMCU9EjIygeSLEzSJPWaUssFrxpctmF3r3l0uMpouCrrm9oIVwAAANOYgAVMadce2pk3MtTzjtR6fkp5epKa1C83NReORSnhCgAAYGYTsIBp4dpDO/OGd/S8u5RyXlIPS1KT/H1KbkxTz3wkbuXva1oX/vrAklu6OzEAAAATRcACppUvPbPztP229ZxWkg/k4d1WSVLWVzuuAAAAZiQBC5iWrj9i3QHb7t92WlPLy0ppXWrHFQAAAAAAAAAAAAAAAAAAAAAAAAAAAAAAAAAAAAAAAAAAAAAAAAAAAAAAAAAAAAAAAAAAAAAAAAAAAAAAAAAAAAAAAAAAAAAAAAAAAAAAAAAAAAAAAAAAAAAAAAAAAAAAAAAAAAAAAAAAAAAAAAAAAAAAAAAAAAAAAAAAAAAAAAAAAAAAAAAAAAAAAAAAAAAAAAAAAAAAAAAAAAAAAAAAAAAAAAAAAAAAAAAAAAAAAAAAAAAAAAAAAAAAAAAAAAAAAAAAAAAAAAAAAAAAAAAAAAAAAAAAAAAAAAAAAAAAAAAAAAAAAAAAAAAAAAAAAAAAAAAAAAAAAAAAAAAAAAAAAAAAAAAAAAAAAAAAAAAAAAAAAAAAAAAAAAAAAAAAAAAAAAAAAAAAAAAAAAAAAAAAAAAAAAAAAAAAAAAAAAAAAAAAAAAAAAAAAAAAAAAAAAAAAAAAAAAAAAAAAAAAAAAAAAAAAAAAAAAAAAAAAAAAAAAAAAAAAAAAAAAAAAAAAAAAAAAAAAAAAAAAAAAAAAAAAAAAAAAAAAAAAAAAAAAAAAAAAAAAAAAAAAAAAAAAAAAAAAAAAAAAAAAAAAAAAAAAAAAAAAAAAAAAAAAAAAAAAAAAAAAAAAAAAAAAAAAAAAAAAAAAAAAAAAAAAAAAAAAAAAAAAAAAAAAAAAAAAAAAAAAAAAAAAAAAAAAAAAAAAAAAAAAAAAAAAAAAAAAAAAAAAAAAAAAAAAAAAAAAAAAAAAAAAAAAAAAAAAAAAAAAAAAAAAAAAAAAAAAAAAAAAAAAAAAAAAAAAAAAAAAAAAAAAAAAAAAAAAAAAAAAAAAAAAAAAAAAAAAAAAAAAAAAAAAAAAAAAAAAAAAAAAAAAAAAAAAAAAAAAAAAAAAAAAAAAAAAAAAAAAAAAAAAAAAAAAAAAAAAAAAAAAAAAAAAAAAAAAAAAAAAAAAAAAAAAAAAAAAAAAAAAAAAAAAAAAAAAAAAAAAAAAAAAAAAAAAAAAAAAAAAAAAAAAAAAAAAAAAAAAAAAAAAAAAAAAAAAAAAAAAAAAAAAAAAAAAAAAAAAAAAAAAAAAAAAAAAAAAAAAAAAAAAAAAAAAAAAAAAAAAAAAAAAAAAAAAAAAAAAAAAAAAAAAAAAAAAAAAAAAAAAAAAAAAAAAAAAAAAAAAAAAAAAAAAAAAAAAAAAAAAAAAAAAAAAAAAAAAAAAAAAAAAAAAAAAAAAAAAAAAAAAAAAAAAAAAAAAAAAAAAAAAAAAAAAAAAAAAAAAAAAAAAAAAAAAAAAAAAAAAAAAAAAAAAAAAAAAAAAAAAAAAAAAAAAAAAAAAAAAAAAAAAAAAAAAAAAAAAAAAAAAAAAAAAAAAAAAAAAAAAAAAAAAAAAAAAAAAAAAAAAAAAAAAAAAAAAAAAAAAAAAAAAAAAAAAAAAAAAAAAAAAAAAAAAAAAAAAAAAAAAAAAAAAAAAAAAAAAAAAAAAAAAAAAAAAAAAAAAAAAAAAAAAAAAAAAAAAAAAAAAAAAAAAAAAAAAAAAAAAAAAAAAAAAAAAAAAAAAAAAAAAAAAAAAAAAAAAAAAAAAAAAAAAAAAAAAAAAAAAAAAAAAAAAAAAAAAAAAAAAAAAAAAAAAAAAAAAAAAAAAAAAAAAAAAAAAAAAAAAAAAAAAAAAAAAAAAAAAAAAAAAAAAAAAAAAAAAAAAAAAAAAAAAAAAAAAAAAAAAAAAAAAAAAAAAAAAAAAAAAAAAAAAAAAAAAAAAAAAAAAAAAAAAAAAAAAAAAAAAAAAAAAAAAAAAAAAAAAAAAAAAAAAAAAAAAAAAAAAAAAAAAAAAAAAAAAAAAAAAAAAAAAAAAAAAAAAAAAAAAAAAAAAAAAAAAAAAAAAAAAAAAAAAAAAAAAAAAAAAAAAAAAAAAAAAAAAAAAAAAAAAAAAAAAAAAAAAAAAAAAAAAAAAAAAAAAAAAAAAAAAAAAAAAAAAAAAAAAAAAAAAAAAAAAAAAAAAAAAAAAAAAAAAAAAAAAAAAAAAAAAAAAAAAAAAAAAAAAAAAAAAAAAAAAAAAAAAAAAAAAAAAAAAAAAAAAAAAAAAAAAAAAAAAAAAAAAAAAAAAAAAAAAAAAAAAAAAAAAAAAAAAAAAAAAAAAAAAAAAAAAAAAAAAAAAAAAAAAAAAAAAAAAAAAAAAAAAAAAAAAAAAAAAAAAAAAAAAAAAAAAAAAAAAAAAAAAAAAAAAAAAAAAAAAAAAAAAAAAAAAAAAAAAAAAAAAAAAAAAAAAAAAAAAAAAAAAAAAAAAAAAAAAAAAAAAAAAAAAAAAAAAAAAAAAAAAAAAAAAAAAAAAAAAAAAAAAAAAAAAAAAAAAAAAAAAAAAAAAAAAAAAAAAAAAAAAAAAAAAAAAAAAAAAAAAAAAAAAAAAAAAAAAAAAAAAAAAAAAAAAAAAAAAAAAAAAAAAAAAAAAAAAAAAAAAAAAAAAAAAAAAAAAAAAAAAAAAAAAAAAAAAAAAAAAAAAAAAAAAAAAAAAAAAAAAAAAAAAAAAAAAAAAAAAAAAAAAAAAAwe/x/EHv5GCY60UIAAAAASUVORK5CYII=;clipPath=inset(32.33% 7.67% 33% 7.67%);" vertex="1" parent="_0TWMCMOEPgWWZoUAao2-1">
          <mxGeometry x="730" y="158.75" width="204.81" height="83.86" as="geometry" />
        </mxCell>
      </root>
    </mxGraphModel>
  </diagram>
</mxfile>
